<?xml version="1.0" standalone="no"?>
<!DOCTYPE svg PUBLIC "-//W3C//DTD SVG 20010904//EN"
 "http://www.w3.org/TR/2001/REC-SVG-20010904/DTD/svg10.dtd">
<svg version="1.0" xmlns="http://www.w3.org/2000/svg"
 width="168.000000pt" height="168.000000pt" viewBox="0 0 168.000000 168.000000"
 preserveAspectRatio="xMidYMid meet">
<metadata>
Created by potrace 1.11, written by Peter Selinger 2001-2013
</metadata>
<g transform="translate(0.000000,168.000000) scale(0.100000,-0.100000)"
fill="#000000" stroke="none">
<path d="M2 1105 l1 -566 153 -242 c84 -133 159 -250 166 -261 13 -17 32 -18
315 -18 328 -1 363 4 473 56 82 38 203 156 243 238 114 229 68 498 -114 670
-68 64 -176 123 -244 134 -25 3 -45 7 -45 9 0 1 16 19 35 40 78 82 104 192 70
300 -22 69 -88 146 -153 177 -46 23 -54 23 -473 26 l-427 3 0 -566z m868 497
c51 -24 65 -34 102 -80 74 -90 60 -254 -28 -332 -65 -57 -69 -57 -332 -56
l-242 1 -149 240 c-82 132 -148 242 -146 245 2 3 171 5 377 4 358 0 375 -1
418 -22z m-674 -278 l139 -227 0 -253 c0 -217 -2 -253 -15 -256 -8 -2 -71 -3
-140 -3 l-125 0 -3 483 c-1 265 -1 482 2 482 2 0 66 -102 142 -226z m710 -280
c113 -80 147 -200 90 -318 -15 -30 -42 -66 -61 -81 -72 -54 -92 -58 -332 -59
l-223 -2 0 251 0 250 235 0 234 -1 57 -40z m116 15 c163 -55 289 -192 333
-364 68 -266 -106 -557 -371 -618 -42 -10 -138 -14 -331 -14 l-273 -1 0 238 0
239 238 3 c223 3 240 4 283 26 25 12 62 39 82 59 113 112 115 305 5 413 -23
22 -38 40 -34 40 4 0 34 -9 68 -21z m-687 -723 c0 -113 -3 -207 -5 -210 -3 -3
-56 75 -118 172 -62 97 -121 192 -133 210 l-21 32 139 0 138 0 0 -204z"/>
</g>
</svg>
