<svg width="48" height="48" fill="none"><g clip-path="url(#clip0)"><path d="M46.97 25.75C50.6 12.62 44.3 0 33.3 0c-6.1 0-8.7 3.5-15.4 11.66C11.2 19.82 1.65 8.48 0 25.75c1.39 15.91 18.65 30.31 26.67 17.02 7.3-12.1 16.66-3.9 20.3-17.02z" fill="#FFDD76"/><path d="M21.65 14.56h.53l.2-.49c.32-.8.9-1.29 1.62-1.29.72 0 1.3.49 1.63 1.3l.2.48H32c.26 0 .5.08.7.21h-4.03v3.56h-9.34v-3.56H15.3c.2-.13.43-.21.69-.21h5.65zm11.31 1v-.53c.16.2.26.47.26.75V34c0 .28-.1.54-.26.75V15.56zM32.18 35h.51c-.2.14-.44.22-.69.22H16c-.25 0-.49-.08-.7-.22h16.88zm-17.14-.78v.53a1.21 1.21 0 01-.26-.75V15.78c0-.28.1-.54.26-.75v19.19zm13.38-18.66v-.79h-2.73v-.1c0-.95-.76-1.67-1.69-1.67-.93 0-1.69.72-1.69 1.67v.1h-2.73v3.34h8.84v-2.55zm-5.88 13.52l.55.53.55-.53 5.17-5.06.17.16-5.89 5.76-3.16-3.09.17-.16 2.45 2.39z" fill="#63522B" stroke="#63522B" stroke-width="1.56"/></g><defs><clipPath id="clip0"><path fill="#fff" d="M0 0h48v48H0z"/></clipPath></defs></svg>