<svg width="48" height="48" fill="none"><g clip-path="url(#clip0)"><path d="M46.97 22.25C50.6 35.37 44.3 48 33.3 48c-6.1 0-8.7-3.5-15.4-11.66C11.2 28.18 1.65 39.52 0 22.25 1.39 6.34 18.65-8.06 26.67 5.23c7.3 12.1 16.66 3.9 20.3 17.02z" fill="#FFDD76"/><path d="M23.5 15.52h0a.3.3 0 01.18 0L34.3 18.9l.04.02h.04c.08.01.14.05.2.11.05.07.08.15.08.24v9.11l.24.14c.35.21.59.6.59 1.05 0 .13-.06.38-.22.74a11.23 11.23 0 01-.94 1.76l-.39-.67c-.2-.36-.38-.72-.54-1.09a2.31 2.31 0 01-.22-.74c0-.45.24-.84.59-1.05l.24-.14v-8.62l-.66.2-9.68 3.1a.3.3 0 01-.19 0l-10.75-3.43a.33.33 0 01-.17-.13.38.38 0 010-.43c.04-.06.1-.1.16-.13l10.76-3.42zm-6.04 12.73v-4.27l5.24 1.67c.58.18 1.2.18 1.77 0l5.24-1.67v4.27h-.13a13.04 13.04 0 00-6 2.4 13.05 13.05 0 00-6.12-2.4z" fill="#63522B" stroke="#63522B"/></g><defs><clipPath id="clip0"><path fill="#fff" d="M0 0h48v48H0z"/></clipPath></defs></svg>