<svg width="48" height="48" fill="none"><g clip-path="url(#clip0)"><path d="M46.97 25.75C50.6 12.62 44.3 0 33.3 0c-6.1 0-8.7 3.5-15.4 11.66C11.2 19.82 1.65 8.48 0 25.75c1.39 15.91 18.65 30.31 26.67 17.02 7.3-12.1 16.66-3.9 20.3-17.02z" fill="#FFDD76"/><path d="M32.75 12a.56.56 0 00-.57.58c0 .32.25.57.57.57h.54l-6.43 6.5-5.7-5.75a.55.55 0 00-.8 0l-6.28 6.26a.56.56 0 000 .8.55.55 0 00.8 0l5.89-5.85 5.7 5.74c.22.23.59.23.8 0l6.84-6.9v.55c0 .32.24.57.57.57.32 0 .57-.25.57-.57v-1.92a.58.58 0 00-.36-.54.68.68 0 00-.21-.04h-1.92zm-1.7 9.4a.56.56 0 00-.56.58v13.44c0 .33.24.58.57.58h3.43c.32 0 .57-.25.57-.58V21.98a.56.56 0 00-.57-.57h-3.43zm-18.5.5a.55.55 0 00-.55.6v.08c0 .3.27.56.6.56.31 0 .56-.27.54-.6v-.08c0-.32-.26-.55-.59-.55zm6.31 1.43a.56.56 0 00-.57.57v11.52c0 .33.25.58.57.58h3.43c.32 0 .57-.25.57-.58V23.9a.56.56 0 00-.57-.57h-3.43zm.57 1.15h2.29v10.37h-2.29V24.48zm5.53 2.69a.56.56 0 00-.57.57v7.68c0 .33.25.58.57.58h3.43c.32 0 .57-.25.57-.58v-7.68a.56.56 0 00-.57-.57h-3.43zm.57 1.15h2.29v6.53h-2.29v-6.53zm-12.77.77a.56.56 0 00-.57.57v5.76c0 .33.25.58.57.58h3.43c.33 0 .57-.25.57-.58v-5.76a.56.56 0 00-.57-.57h-3.43zm.58 1.15h2.28v4.6h-2.28v-4.6z" fill="#63522B"/></g><defs><clipPath id="clip0"><path fill="#fff" d="M0 0h48v48H0z"/></clipPath></defs></svg>