<svg width="48" height="48" fill="none"><g clip-path="url(#clip0)"><path d="M33.3 48c11.01 0 17.3-12.63 13.67-25.75-3.64-13.12-13-4.92-20.3-17.02C18.65-8.07 1.39 6.33 0 22.25.53 30.84 7.93 48 33.3 48z" fill="#FFDD76"/><path d="M24 12c-1.17 0-2.22.78-2.92 2.01l-2.65 4.65 1.62.96L22.67 15c.47-.83.95-1.08 1.33-1.08.38 0 .85.25 1.33 1.08l2.88 5.07-1.47.93 4.62 2.88v-5.76l-1.56.96-2.89-5.07C26.21 12.78 25.17 12 24 12zm-5.6 8.61l-4.62 2.88 1.42.87-2.57 4.53c-.7 1.23-.86 2.58-.27 3.63.6 1.05 1.8 1.56 3.18 1.56h5.69v-1.92h-5.69c-.95 0-1.4-.31-1.59-.63-.17-.32-.2-.85.26-1.68l2.54-4.5 1.65 1.02v-5.76zm14.72 4.41l-1.56.99 2.23 3.84c.47.84.43 1.36.26 1.68-.18.31-.64.63-1.6.63H27.7v-1.92l-4.62 2.88L27.7 36v-1.92h4.76c1.38 0 2.58-.51 3.17-1.56.6-1.05.44-2.4-.26-3.63v-.03l-2.25-3.84z" fill="#63522B"/></g><defs><clipPath id="clip0"><path fill="#fff" d="M0 0h48v48H0z"/></clipPath></defs></svg>