<svg width="48" height="48" fill="none"><g clip-path="url(#clip0)"><path d="M1.03 25.75C-2.6 12.62 3.7 0 14.71 0c6.1 0 8.7 3.5 15.4 11.66C36.8 19.82 46.34 8.48 48 25.75c-1.39 15.91-18.65 30.31-26.67 17.02-7.3-12.1-16.66-3.9-20.3-17.02z" fill="#FFDD76"/><path d="M12.72 33h22.56c.4 0 .72-.32.72-.74V29.1a.76.76 0 00-.53-.72l-.67-.2c-.12-.02-.2-.14-.2-.27v-3.25a10.9 10.9 0 00-5.82-9.68v-.22c0-.96-.77-1.75-1.7-1.75h-6.15c-.94 0-1.7.79-1.7 1.75v.22a10.92 10.92 0 00-5.84 9.68v3.25a.28.28 0 01-.19.27l-.67.2a.74.74 0 00-.53.71v3.18c0 .42.34.74.72.74zm.72-3.35l.14-.05a1.78 1.78 0 001.25-1.67v-3.26c0-3.27 1.7-6.3 4.4-7.98v3.38a.72.72 0 101.44 0v-5.3c0-.14.11-.27.26-.27h6.14a.27.27 0 01.27.27v.7c0 .04 0 .19.02.34v4.26c0 .42.31.74.72.74.4 0 .72-.32.72-.74V18.6c2.4 1.36 2.93 2.79 2.93 6.04v3.25c0 .23.05.42.12.62h-11.9c-.41 0-.73.32-.73.74 0 .41.32.74.72.74h13.18v1.52H13.44v-1.87z" fill="#63522B"/></g><defs><clipPath id="clip0"><path fill="#fff" d="M0 0h48v48H0z"/></clipPath></defs></svg>