<svg viewBox="0 0 512 512" xmlns="http://www.w3.org/2000/svg"><path d="M218.7 445.5l-17.8 2c-29.1 2.9-54.5-5-73.7-27.7-6-7.1-9.4-16.3-14.5-24.2-7.9-12.4-16-24.7-24.7-36.6-3-4.1-8.2-6.5-12.2-10-1.3-1.1-1.7-3.2-2.6-4.9 1.8-.7 3.5-1.9 5.3-2.1 23-2.1 39.2 8.5 50.5 27.6 14.1 23.8 34.5 36.8 62.2 36.8 8 0 16-2.7 23.9-4.5 1.5-.4 3.3-2.7 3.5-4.4 1.4-10.4 2.7-20.8 7.5-30.3 1.8-3.5 3.9-6.8 6-10.4-8.1-1.6-15.9-2.8-23.6-4.7-35.5-9-64.8-26.8-81.8-60.6a101.5 101.5 0 01-10.8-42.2c-.8-22.8-.5-45.7 4.1-68.2a77.4 77.4 0 0121.3-41.9c2.6-2.5 3.1-4.7 1.7-8.5a89 89 0 01-1.7-56.8l3.5-12.5c27.4 5.2 43.7 23.7 59 44.2 15.8-11.7 34.5-12.7 52.7-13.9a287 287 0 0164.8 2.4 71.1 71.1 0 0129 10.6c9.4-9.7 18.2-19.5 27.9-28.4a60.3 60.3 0 0127.7-14c2.9-.7 4.4-.4 5.6 2.8a89.1 89.1 0 01.4 66.2c-1.2 3-1.1 5.1 1.4 7.5a79.7 79.7 0 0123.2 50.5c2 17.7 3.1 35.5 3.1 53.3a106.9 106.9 0 01-65.5 100.2 169.3 169.3 0 01-49.7 13.7l-1.5.7c11.8 16.9 13.7 35.9 13.5 55.6-.3 28.7-.2 57.3 0 86 0 4.5-1.3 5.6-5.7 5.6-35.5-.2-71-.2-106.5 0-4.4 0-5.8-1.4-5.8-5.7.2-15.5.1-31 .1-46.5.2-2.3.2-4.3.2-6.7z"/></svg>