<svg viewBox="0 0 512 512" xmlns="http://www.w3.org/2000/svg"><path d="M304 383c0 40.2-.1 80.3.1 120.5 0 4.4-1.2 5.6-5.6 5.5-34.2-.2-68.3-.2-102.5 0-4.7 0-6.2-1.1-6.2-6 .2-79.7.1-159.3.1-239 0-8 .9-7-7.3-7.1-14.5 0-29-.1-43.5.1-3.5 0-4.5-1.1-4.5-4.6v-76c0-3.5 1-4.6 4.5-4.5 15.2.2 30.3-.1 45.5.2 4.1.1 5.4-1 5.4-5.3-.2-21.3 0-42.7-.1-64a98.1 98.1 0 0111.5-50.4c9.6-17 24-28.7 41.8-36.3 15-6.4 30.8-9.4 47-10.3 32.1-1.8 64.3-.3 96.4-.9 3.6-.1 4.5 1.2 4.5 4.6v79c0 4-1.5 4.6-5 4.6l-55.5-.1a25.5 25.5 0 00-26.5 26.3c0 15.7.2 31.3-.1 47-.1 4.5 1.4 5.6 5.7 5.6 25.3-.2 50.7 0 76-.2 4.2 0 5.6 1.2 5.1 5.4l-4.2 38.7c-1.3 12.4-3.5 24.7-5.5 37-.6 3.5-1.7 4.3-4.9 4.3h-65c-8.5 0-7.3-1.1-7.3 7.5L304 383z" fill="#A7A7A7"/></svg>