<svg viewBox="0 0 512 512" xmlns="http://www.w3.org/2000/svg"><g fill="#A7A7A7"><path d="M505 257v108c0 52-24 90-68 117-25 16-53 23-83 23H159c-46 0-85-16-116-50a128 128 0 01-34-91V150C9 98 33 59 77 32c25-16 53-23 83-23h195c46 0 85 17 116 50 19 21 30 46 33 74l1 32v92zm-459 0v110c0 25 9 47 27 65 23 24 51 36 85 36h197c21 0 41-5 59-15 35-20 54-49 54-89V147c0-25-9-47-26-64-23-25-52-37-85-37H158c-21 0-40 5-58 15a98 98 0 00-54 90v106z"/><path d="M257 363c-64 0-116-52-116-116 0-63 53-114 117-114s116 52 116 116c0 63-52 114-117 114zm0-37c44 0 80-35 80-78s-35-78-79-78-80 35-80 78 36 78 79 78zm106-202c0-15 11-26 25-26 13 0 24 12 24 26 0 13-11 25-24 25-14 0-25-11-25-25z"/></g></svg>