<svg width="237" height="112" fill="none" xmlns="http://www.w3.org/2000/svg"><path d="M32.2 1h59.2M32.1 1L2 58.8 32.1 111h60.1M91.4 1L111 31.9M112 79.8L92.2 111" stroke="#4276EF" stroke-width="2" stroke-linecap="round"/><path d="M45.2 63h-2.3v-7.6h-4.2v-2.2h10.7v2.2h-4.2V63zm-6.5-16.8h10.7v2.3H38.7v-2.3zM58.5 63v-7.8L54.2 63H52v-9.6h-1.6v-2.2h3.8V59l4.3-7.8h2.2V63h-2.2zm7.7-8.3V63H64V51.2h2.4l3.2 5.7 3-5.7h2.5v9.6h1.7V63h-3.9v-8.3L70.5 59h-2l-2.3-4.3zM87 58.8a4.7 4.7 0 01-1.3 3.2 4.2 4.2 0 01-3.2 1.2 4.5 4.5 0 01-3.2-1.2 4.5 4.5 0 01-1.2-3.2v-3.4l.3-1.8c.2-.5.5-1 1-1.4a4.7 4.7 0 013.2-1.2c.6 0 1.2.1 1.7.3.6.2 1 .5 1.4 1 .4.3.7.8 1 1.3l.3 1.8v3.4zm-6.7 0c0 .7.2 1.2.6 1.7.4.4 1 .6 1.6.6.7 0 1.3-.2 1.7-.6.4-.5.6-1 .6-1.7v-3.4c0-.6-.2-1.2-.6-1.6-.4-.4-1-.6-1.7-.6-.6 0-1.2.2-1.6.6-.4.4-.6 1-.6 1.6v3.4zM94.8 63h-.9a4.5 4.5 0 01-3.2-1.2 4.5 4.5 0 01-1.2-3.2v-3c0-.6 0-1.2.3-1.7a4 4 0 012.3-2.3c.6-.2 1.2-.4 1.8-.4h.9v-2.8H93v-2.2h3.8v5h.9c.6 0 1.2.2 1.8.4.5.2 1 .5 1.3.9.4.4.7.8 1 1.4.2.5.3 1.1.3 1.8v2.9a4.7 4.7 0 01-1.3 3.2 4.2 4.2 0 01-3.1 1.2h-.9v5h-2.1v-5zm5.2-7.3c0-.7-.2-1.2-.6-1.7-.4-.4-1-.6-1.6-.6h-.9v7.4h.9c.6 0 1.2-.2 1.6-.6.4-.4.6-1 .6-1.6v-3zm-8.4 2.9c0 .6.2 1.2.7 1.6.4.4 1 .6 1.6.6h.9v-7.4h-.9c-.7 0-1.2.2-1.6.6-.5.5-.7 1-.7 1.7v2.9zm13-3.3c0-.6 0-1.2.3-1.7.2-.5.5-1 1-1.4A4.4 4.4 0 01109 51a4.4 4.4 0 013 1.2c.4.4.7.9.9 1.4.2.5.3 1.1.3 1.7v3h-6.4v.6c0 .6.1 1 .5 1.4.4.4.8.5 1.4.5h3.8V63h-3.8a4.2 4.2 0 01-3-1.1l-.8-1.3c-.2-.5-.3-1-.3-1.7v-3.6zm4.3-2.1a2 2 0 00-1.5.6 2 2 0 00-.6 1.5v1h4.3v-1a2 2 0 00-.7-1.5 2 2 0 00-1.5-.6zm13.7 9.8v-7.8l-4.3 7.8H116v-9.6h-1.7v-2.2h3.9V59l4.3-7.8h2.2V63h-2.2zm-2.2-15.4c.4 0 .7 0 1-.3l.5-.9 1.8.3a4 4 0 01-1.2 1.9c-.2.2-.5.4-1 .5-.3.2-.6.2-1 .2-.5 0-.9 0-1.2-.2a3.3 3.3 0 01-1.7-1.4 4 4 0 01-.4-1l1.8-.3.5 1 1 .2zm12 15.4V48.5h-1.9v-2.3H143V63h-2.3V48.5h-6V63h-2.3zm22.8-4.2A4.7 4.7 0 01154 62a4.2 4.2 0 01-3.2 1.2 4.5 4.5 0 01-3.2-1.2 4.5 4.5 0 01-1.2-3.2v-3.4c0-.6 0-1.2.3-1.8a4 4 0 012.3-2.3c.5-.2 1.1-.3 1.8-.3s1.3.1 1.8.3c.5.2 1 .5 1.4 1 .4.3.7.8.9 1.3l.3 1.8v3.4zm-6.7 0c0 .7.2 1.2.6 1.7.5.4 1 .6 1.7.6s1.2-.2 1.6-.6c.5-.5.7-1 .7-1.7v-3.4c0-.6-.2-1.2-.7-1.6-.4-.4-1-.6-1.6-.6-.7 0-1.2.2-1.7.6-.4.4-.6 1-.6 1.6v3.4zm16.3 4.2v-9.6h-4.3V63h-2.2v-9.6h-1.6v-2.2H167V63h-2.2zm14-4.2a4.7 4.7 0 01-1.3 3.2 4.2 4.2 0 01-3.2 1.2 4.5 4.5 0 01-3.2-1.2 4.5 4.5 0 01-1.2-3.2v-3.4c0-.6 0-1.2.3-1.8a4 4 0 012.3-2.3c.5-.2 1.1-.3 1.8-.3s1.3.1 1.8.3c.5.2 1 .5 1.4 1 .4.3.7.8 1 1.3l.2 1.8v3.4zm-6.8 0c0 .7.2 1.2.6 1.7.5.4 1 .6 1.7.6s1.2-.2 1.6-.6c.5-.5.7-1 .7-1.7v-3.4c0-.6-.2-1.2-.7-1.6-.4-.4-1-.6-1.6-.6-.7 0-1.2.2-1.7.6-.4.4-.6 1-.6 1.6v3.4zm18 .6c0 1-.3 2-1 2.6-.6.7-1.5 1-2.6 1h-6v-2.2h1.5v-7.4h-1.5v-2.2h5.8c1 0 1.8.3 2.4 1 .6.6 1 1.4 1 2.4 0 .4-.1.8-.3 1l-.5.7-.7.5c.3.1.7.3 1 .6l.6.8c.2.3.3.7.3 1.2zm-6-3.6h2.2c.3 0 .6-.1.8-.3.3-.2.4-.5.4-.9s-.1-.7-.4-.9c-.2-.2-.5-.3-.8-.3H184v2.4zm2.4 5a1.4 1.4 0 001.5-1.4 1.4 1.4 0 00-1.5-1.4H184v2.8h2.4zm5.8-5.4c0-.6 0-1.2.3-1.8a4 4 0 012.3-2.3l1.8-.3a4.2 4.2 0 013.2 1.3l.8 1.2-1.8 1.1-.5-.7-.7-.5a2 2 0 00-1-.2c-.7 0-1.2.2-1.6.6-.5.4-.7 1-.7 1.6v3.4c0 .7.2 1.2.7 1.7.4.4 1 .6 1.6.6.4 0 .8 0 1-.2l.7-.5.5-.8 1.8 1.1-.8 1.3a4 4 0 01-3.2 1.2 4.5 4.5 0 01-3.2-1.2 4.5 4.5 0 01-1.2-3.2v-3.4zm13 .6h2l2.4-4.8h2.3l-3 6 3 5.8h-2.3l-2.4-4.8h-2V63H203v-9.6h-1.7v-2.2h3.8V56zm15.3 7v-7.8l-4.3 7.8H214v-9.6h-1.7v-2.2h3.9V59l4.3-7.8h2.2V63h-2.2zm12.2 0v-7.8l-4.3 7.8h-2.2v-9.6h-1.6v-2.2h3.8V59l4.3-7.8h2.2V63h-2.2zm-2.1-15.4c.3 0 .6 0 .9-.3.2-.2.4-.5.5-.9l1.8.3a4 4 0 01-1.1 1.9l-1 .5c-.3.2-.7.2-1.1.2-.4 0-.8 0-1.2-.2a3.3 3.3 0 01-1.6-1.4 4 4 0 01-.5-1l1.8-.3c.2.4.3.7.6 1l.9.2z" fill="#000"/></svg>