<svg width="170" height="82" fill="none" xmlns="http://www.w3.org/2000/svg"><path d="M23.7 1.4h42.6M23.7 1.4L2 43l21.7 37.6h43.2M66.3 1.4l14 22.3M81.1 58.1L67 80.6" stroke="#4276EF" stroke-width="2" stroke-linecap="round"/><path d="M32 46.2h-1.6V41h-3v-1.7H35V41h-3v5.3zm-4.6-11.9H35V36h-7.6v-1.6zm14 12v-5.6l-3 5.5h-1.6v-6.8h-1.2V38h2.8v5.5l3-5.5H43v8.3h-1.6zm5.5-6v6h-1.6v-8.4H47l2.2 4 2.2-4h1.7v6.8h1.2v1.5h-2.7v-5.9L50 43.4h-1.3l-1.7-3zm14.8 3a3.3 3.3 0 01-1 2.2 3 3 0 01-2.2.9c-.5 0-.9 0-1.3-.2l-1-.7a3.2 3.2 0 01-.8-2.3V41c0-.5 0-1 .2-1.3.1-.4.4-.7.6-1 .3-.3.6-.5 1-.6a3.3 3.3 0 012.5 0c.5.1.8.3 1 .6.4.3.6.6.7 1 .2.4.3.8.3 1.3v2.3zm-4.8 0c0 .4.1.8.4 1.1.3.3.7.5 1.2.5s.9-.2 1.2-.5c.3-.3.4-.7.4-1.2V41c0-.5-.1-.9-.4-1.2-.3-.3-.7-.5-1.2-.5s-.9.2-1.2.5c-.3.3-.4.7-.4 1.2v2.3zm10.2 3h-.6c-.5 0-.9-.2-1.3-.3l-1-.7a3.2 3.2 0 01-.9-2.2v-2c0-.5.1-1 .3-1.3.1-.4.3-.8.6-1l1-.7 1.3-.2h.6v-2h-1.2v-1.6h2.7V38h.6c.5 0 .9 0 1.3.2l1 .7c.3.2.5.6.6 1 .2.3.3.8.3 1.2v2a3.3 3.3 0 01-1 2.3 3 3 0 01-2.2 1h-.6v3.5h-1.5v-3.6zm3.7-5.3c0-.4-.1-.8-.4-1.1-.3-.3-.7-.5-1.2-.5h-.6v5.3h.6c.5 0 .9-.2 1.2-.5.3-.3.4-.7.4-1.1v-2zm-6 2c0 .5.2 1 .5 1.2.3.3.7.5 1.2.5h.6v-5.3h-.6c-.5 0-.9.2-1.2.5-.3.3-.4.7-.4 1.1v2zm9.3-2.2c0-.5 0-.9.2-1.3l.6-1 1-.5 1.2-.3a3.1 3.1 0 012.2.9c.3.3.5.6.6 1 .2.3.3.7.3 1.2v2.1h-4.6v.4c0 .4.1.7.4 1 .2.3.6.4 1 .4h2.7v1.5h-2.8c-.4 0-.8 0-1.1-.2a3 3 0 01-1-.6 3 3 0 01-.5-.9c-.2-.4-.2-.7-.2-1.2v-2.5zm3-1.6c-.4 0-.8.2-1 .5-.4.3-.5.6-.5 1v.8h3v-.7c0-.5-.1-.8-.4-1.1-.3-.3-.7-.5-1-.5zm9.7 7v-5.5l-3 5.5h-1.6v-6.8H81V38h2.8v5.5l3-5.5h1.5v8.3h-1.5zm-1.5-10.9c.2 0 .5 0 .6-.2.2-.1.3-.4.4-.6l1.3.2a2.8 2.8 0 01-.8 1.3l-.7.4-.8.1-.9-.1a2.3 2.3 0 01-1.1-1l-.3-.7 1.3-.2.3.6c.2.2.4.2.7.2zm8.5 11V35.8h-1.4v-1.6h8.9v12h-1.7V35.8h-4.2v10.3h-1.6zm16.1-3a3.3 3.3 0 01-.9 2.2 3 3 0 01-2.2.9c-.5 0-.9 0-1.3-.2l-1-.7a3.2 3.2 0 01-.9-2.3V41c0-.5.1-1 .3-1.3.1-.4.3-.7.6-1 .3-.3.6-.5 1-.6a3.3 3.3 0 012.5 0c.4.1.8.3 1 .6l.7 1c.2.4.2.8.2 1.3v2.3zm-4.7 0c0 .4.1.8.4 1.1.3.3.7.5 1.2.5s.8-.2 1.1-.5c.3-.3.5-.7.5-1.2V41c0-.5-.2-.9-.5-1.2-.3-.3-.6-.5-1.1-.5-.5 0-.9.2-1.2.5-.3.3-.4.7-.4 1.2v2.3zm11.5 3v-6.9h-3v6.8H112v-6.8H111V38h7.4v8.3h-1.6zm9.9-3a3.3 3.3 0 01-.9 2.2 3 3 0 01-2.3.9c-.4 0-.9 0-1.2-.2-.4-.2-.8-.4-1-.7a3.2 3.2 0 01-1-2.3V41c0-.5.2-1 .3-1.3l.7-1c.2-.3.6-.5 1-.6.3-.2.8-.3 1.2-.3.5 0 1 0 1.3.3.4.1.7.3 1 .6.3.3.5.6.6 1 .2.4.3.8.3 1.3v2.3zm-4.8 0a1.6 1.6 0 001.6 1.6c.5 0 .9-.2 1.2-.5.3-.3.5-.7.5-1.2V41c0-.5-.2-.9-.5-1.2-.3-.3-.7-.5-1.2-.5-.4 0-.8.2-1.1.5-.3.3-.5.7-.5 1.2v2.3zm12.8.4c0 .7-.3 1.4-.7 1.8-.5.5-1.1.7-1.9.7h-4.2v-1.5h1v-5.3h-1V38h4c.8 0 1.4.2 1.8.6.4.5.6 1 .6 1.8l-.1.7a2 2 0 01-.4.5l-.5.3.7.4.4.6c.2.2.3.5.3.9zm-4.3-2.6h1.5c.3 0 .5 0 .7-.2l.2-.6c0-.3 0-.5-.2-.6a.8.8 0 00-.7-.3h-1.5v1.7zm1.7 3.6a1 1 0 001-1 1 1 0 00-1-1h-1.7v2h1.7zm4.1-3.8c0-.5 0-1 .2-1.3l.7-1c.2-.3.6-.5 1-.6l1.2-.3a3 3 0 012.3 1l.5.8-1.2.8-.4-.5a2 2 0 00-.4-.4l-.8-.2c-.4 0-.8.2-1.1.5-.3.3-.5.7-.5 1.2v2.3c0 .5.2.9.5 1.2.3.3.7.5 1.1.5l.8-.2.4-.4.4-.5 1.2.8c0 .3-.3.6-.5.9a2.8 2.8 0 01-2.3.9c-.4 0-.8 0-1.2-.2-.4-.2-.8-.4-1-.7a3.2 3.2 0 01-.9-2.3V41zm9.2.4h1.4l1.7-3.4h1.6l-2 4.1 2 4.2h-1.6l-1.7-3.4h-1.4v3.4h-1.6v-6.8h-1.1V38h2.7v3.4zm10.9 5v-5.6l-3.1 5.5h-1.5v-6.8h-1.2V38h2.7v5.5l3-5.5h1.6v8.3h-1.5zm8.6 0v-5.6l-3 5.5h-1.6v-6.8H159V38h2.8v5.5l3-5.5h1.6v8.3h-1.6zm-1.5-11c.3 0 .5 0 .6-.2.2-.1.3-.4.4-.6l1.3.2a2.8 2.8 0 01-.8 1.3l-.7.4-.8.1-.8-.1a2.3 2.3 0 01-1.2-1l-.3-.7 1.3-.2.3.6c.2.2.4.2.7.2z" fill="#000"/></svg>