<svg width="48" height="48" fill="none"><g clip-path="url(#clip0)"><path d="M1.03 22.25C-2.6 35.38 3.7 48 14.71 48c6.1 0 14.79-1 18.4-9.66C36.56 29.99 47.5 37.5 48 20.25 48 6 27.12-7.66 21.33 5.23c-5.79 12.89-16.66 3.9-20.3 17.02z" fill="#E8F3FE"/><path d="M25.56 21.72l.16.01c.38 0 .79-.17 1.23-.6.37-.36.82-1.26.62-2.52-.17-1.05-.97-3.24-4.77-5.05.03.4-.09.77-.24 1.1-.17.37-.4.74-.63 1.1l-.02.02c-.7 1.11-1.47 2.34-1.17 4.12l4.82 1.82zm0 0c.36-2.45 0-4.25-.7-6.08a.9.9 0 00-1.2-.53h0a.94.94 0 00-.5 1.2c.64 1.71.95 3.27.52 5.58l1.88-.17zm0 0l-1.88.17 1.88-.17zm-1.88.17a2.2 2.2 0 01-2.16-.44 2.66 2.66 0 01-.78-1.55l2.94 1.99zM13.96 27l.4-.3-.01-.02-.02-.01-.08-.09a3 3 0 01-.51-.7 3.1 3.1 0 01-.24-1.38v-6c0-.38.12-.62.27-.76a.94.94 0 01.66-.24c.28 0 .51.09.67.24.14.14.27.38.27.76v4.17c-.1.08-.2.17-.29.27-.2.26-.35.57-.42.9-.15.73.02 1.64.84 2.5l2.1 2.34h0a.87.87 0 001.29 0 .96.96 0 000-1.27h0l-2.3-2.55h0a.75.75 0 01.01-1h0a.55.55 0 01.28-.16c.1-.01.32-.02.67.34l2.28 2.55h.01a5.53 5.53 0 011.75 3.91v4H17.8v-3.16l-.1-.14-2.89-3.89-.33-.44-.09-.13-.02-.03h-.01 0l-.4.29zm17.45-2.14h0l-2.3 2.55h0a.96.96 0 000 1.28.87.87 0 001.3 0h0l2.1-2.35c.81-.86.98-1.78.83-2.5a2.11 2.11 0 00-.42-.9c-.08-.1-.18-.2-.29-.27V18.5c0-.38.13-.62.27-.76a.94.94 0 01.66-.24c.28 0 .51.09.66.24.16.14.28.38.28.76v6c0 .7-.1 1.1-.24 1.38-.12.26-.28.44-.51.7l-.08.09-.02.01v.02l.4.3-.4-.3v0h0l-.02.01-.02.03-.1.13-.32.44-2.9 3.9-.1.13v3.16h-3.78v-4c0-1.66.79-2.89 1.75-3.9h0v-.01l2.3-2.55c.34-.36.56-.35.66-.34.14.03.25.13.28.16a.75.75 0 010 1v0z" fill="#2C70C1" stroke="#2C70C1"/></g><defs><clipPath id="clip0"><path fill="#fff" d="M0 0h48v48H0z"/></clipPath></defs></svg>