<svg width="48" height="48" fill="none"><g clip-path="url(#clip0)"><path d="M33.3 48c11.01 0 17.3-12.63 13.67-25.75-3.64-13.12-13-4.92-20.3-17.02C18.65-8.07 1.39 6.33 0 22.25.53 30.84 7.93 48 33.3 48z" fill="#E8F3FE"/><path d="M20.37 12.9l-.87 1.13h0a.91.91 0 01-.42.3l-1.34.48 2.63-1.91zm0 0a1.84 1.84 0 011.99-.63h0l1.36.4c.17.05.36.05.53 0l1.36-.4h0c.73-.21 1.53.04 1.98.63l.88 1.13h0c.1.13.24.25.42.3l1.33.48a1.85 1.85 0 011.23 1.67l.05 1.41c0 .2.05.36.17.5l.8 1.18h0c.44.6.44 1.45 0 2.05h0l-.8 1.18h0a.9.9 0 00-.17.5l-.05 1.41a1.85 1.85 0 01-1.22 1.67L20.37 12.9zm0 0l9.86 13.48-9.86-13.48zm-3.86 3.58v0l-.04 1.41a.9.9 0 01-.17.5h0l-.81 1.17a1.94 1.94 0 00.02 2.09l.8 1.17a.8.8 0 01.18.5l.04 1.41v0c.02.74.52 1.41 1.23 1.67l.7.24.2.06-.08.2-2.52 6.82a.45.45 0 00.12.48c.14.12.34.15.52.08a2.64 2.64 0 013.5 1.27c.07.16.24.25.41.25h.02c.2-.02.36-.13.42-.3h0l2.52-6.87.03-.08.07-.03.04-.02h.01l.02-.01a.88.88 0 01.53 0l1.36.39c.73.21 1.53-.04 1.98-.63l.8-1.02.21-.28.12.33 2.02 5.5.1.28-.3-.02a3.63 3.63 0 00-2.74 1l-.22.2-.1-.28-1.14-3.07c-.1-.25-.36-.36-.58-.28-.25.1-.37.37-.29.58h0l1.56 4.26a.5.5 0 00.42.31h.01a.47.47 0 00.42-.26 2.64 2.64 0 013.5-1.27L16.51 16.48zm0 0l14.9 17.75-14.9-17.75zm0 0a1.85 1.85 0 011.23-1.67l-1.23 1.67zm14.9 17.75a.48.48 0 00.5-.07.45.45 0 00.13-.48l-2.5-6.85-.07-.19.19-.07.57-.2 1.17 7.86zm0 0l-1.18-7.85 1.17 7.85zm-11.72-6.85l-.21-.28-.12.33-2.02 5.44-.1.26h.54a3.6 3.6 0 012.5.99l.21.21.11-.29 1.78-4.82.1-.26H22h0l-.15.02a1.9 1.9 0 01-1.46-.71l-.7-.9zm8.45-6.77a4.14 4.14 0 00-8.3 0 4.14 4.14 0 008.3 0v0zm-4.61-1.09c0-.26.2-.46.46-.46.27 0 .47.2.47.46v2.17c0 .26-.2.46-.47.46a.45.45 0 01-.46-.46v-2.17z" fill="#2C70C1" stroke="#2C70C1" stroke-width=".39"/></g><defs><clipPath id="clip0"><path fill="#fff" d="M0 0h48v48H0z"/></clipPath></defs></svg>