<svg width="48" height="48" fill="none"><g clip-path="url(#clip0)"><path d="M46.97 25.82C50.6 12.7 44.3.08 33.3.08c-6.1 0-14.8 1-18.4 9.66C11.43 18.08.5 10.57 0 27.82c0 14.25 20.88 27.92 26.67 15.03 5.79-12.9 16.66-3.9 20.3-17.03z" fill="#E8F3FE"/><path fill-rule="evenodd" clip-rule="evenodd" d="M33 24a9 9 0 11-18 0 9 9 0 0118 0zm2 0a11 11 0 11-22 0 11 11 0 0122 0zm-12.5 5L18 24.5l1.5-1.5 3 3 6-6 1.5 1.5-7.5 7.5z" fill="#2C70C1"/></g><defs><clipPath id="clip0"><path fill="#fff" d="M0 0h48v48H0z"/></clipPath></defs></svg>