<svg width="48" height="48" fill="none"><path d="M46.97 22.25C50.6 35.38 44.3 48 33.3 48c-6.1 0-14.8-1-18.4-9.66C11.43 29.99.5 37.5 0 20.25 0 6 20.88-7.66 26.67 5.23c5.79 12.89 16.66 3.9 20.3 17.02z" fill="#E8F3FE"/><path d="M21.34 12s-1.68-.04-2.63 1.02c-.95 1.05-.8 2.8-.8 2.8s1.68.05 2.63-1c.94-1.07.8-2.82.8-2.82zm5.32 0s-.14 1.76.8 2.81c.95 1.06 2.63 1.02 2.63 1.02s.15-1.76-.8-2.81c-.95-1.06-2.63-1.02-2.63-1.02zm-11.2 1.2s-1.11 1.31-.95 2.75c.17 1.44 1.54 2.45 1.54 2.45.3.24 1.37 1.09 2.55.97 1.38-.15 2.37-1.57 2.37-1.57s-1.24-1.19-2.62-1.04c-.79.08-1.44.57-1.86.98.29-.52.6-1.29.51-2.1-.16-1.44-1.54-2.45-1.54-2.45zm17.08 0s-1.38 1-1.54 2.44c-.1.82.22 1.58.5 2.1a3.27 3.27 0 00-1.85-.98c-1.38-.15-2.62 1.04-2.62 1.04s1 1.42 2.37 1.57c1.18.12 2.25-.73 2.54-.98v.01s1.38-1.01 1.55-2.45c.16-1.44-.95-2.76-.95-2.76zM12.77 18.6s-.68 1.61-.12 2.93c.57 1.33 2.18 1.86 2.18 1.86v-.02c.36.12 1.66.46 2.7-.12 1.22-.69 1.61-2.4 1.61-2.4s-1.58-.6-2.8.09c-.59.33-.98.9-1.23 1.4.09-.55.1-1.25-.17-1.88-.56-1.32-2.17-1.86-2.17-1.86zm22.46 0s-1.6.54-2.17 1.86a3.44 3.44 0 00-.17 1.88 3.25 3.25 0 00-1.23-1.4c-1.22-.69-2.8-.1-2.8-.1s.39 1.72 1.6 2.4c1.05.6 2.34.25 2.7.13l.01.02s1.6-.53 2.17-1.85c.57-1.33-.11-2.94-.11-2.94zm-16.7 5.34s-1.64.38-2.33 1.63c-.33.61-.37 1.31-.33 1.87a3.29 3.29 0 00-1.09-1.5c-1.15-.82-2.78-.4-2.78-.4s.23 1.75 1.37 2.56c1.15.82 2.79.39 2.79.39v-.02c.35-.1 1.64-.52 2.22-1.6.69-1.25.16-2.92.16-2.92zm10.93 0s-.53 1.68.16 2.93c.58 1.08 1.87 1.5 2.23 1.6v.02s1.63.43 2.78-.38c1.14-.82 1.37-2.56 1.37-2.56s-1.64-.43-2.78.38c-.55.4-.89 1-1.09 1.52.04-.57 0-1.27-.34-1.88-.68-1.25-2.33-1.62-2.33-1.62zm-9.6 3.43s-1.54.72-1.96 2.1c-.24.79-.07 1.6.12 2.18a3.34 3.34 0 00-1.63-1.33c-1.33-.42-2.77.5-2.77.5s.72 1.6 2.04 2.01c1.16.36 2.34-.26 2.64-.43.6.64 1.3 1.08 2.06 1.37a2.4 2.4 0 00-.71.9h-.01a.96.96 0 00.18 1.05.86.86 0 001.1.12c.15-.1.27-.23.33-.4.09-.2.32-.38.92-.56a13.8 13.8 0 011.83-.33c.7.1 1.36.19 1.83.33.6.18.83.37.91.57.08.16.19.3.33.4a.86.86 0 001.11-.13.95.95 0 00.18-1.04v-.02a2.4 2.4 0 00-.71-.9c.75-.28 1.46-.72 2.05-1.36.3.17 1.48.8 2.63.43 1.33-.41 2.05-2 2.05-2s-1.44-.93-2.77-.51c-.75.23-1.3.84-1.63 1.33.19-.57.36-1.4.12-2.18-.42-1.38-1.96-2.1-1.96-2.1s-.85 1.52-.43 2.9c.12.39.33.72.57 1-.91.83-2.4 1.14-3.98 1.36l-.3.04-.3-.04c-1.58-.22-3.07-.53-3.98-1.36.24-.28.45-.61.57-1 .42-1.38-.43-2.9-.43-2.9z" fill="#2C70C1"/></svg>