<svg width="81" height="86" fill="none" xmlns="http://www.w3.org/2000/svg"><g clip-path="url(#clip0)"><path d="M76.8 80.8l-3.5-22c-.4-2.4-2-4.3-4.2-5l-9.5-3c-.2-2.5-1.2-4.8-2.8-6.7a10.6 10.6 0 00-4.6-3.1 20.4 20.4 0 004.6-9.8h.8c1.9 0 3.4-1.7 3.4-3.7v-2c0-1.3-.7-2.5-1.8-3.1v-4.6c0-.7-.5-1.2-1.1-1.2-.7 0-1.2.5-1.2 1.2V23a7 7 0 00-2.1.8v-10c0-2.8-2.1-5-4.7-5h-3.3c-1 0-2.2.3-3 1.1l-.4.3c-.5.5-1.3.8-2 .8-.8 0-1.5-.3-2.1-.8l-.3-.3c-.9-.8-2-1.2-3-1.2h-3.3c-2.6 0-4.8 2.3-4.8 5v10a5.8 5.8 0 00-.5-.2 7 7 0 00-1.6-.5V10c0-4 3.1-7.3 7-7.3H50C53.8 2.7 57 6 57 10v2c0 .7.5 1.2 1.2 1.2.6 0 1.1-.5 1.1-1.2v-2c0-5.4-4.1-9.8-9.2-9.8H32.7c-5 0-9.2 4.4-9.2 9.8v12.4c-1 .6-1.8 1.8-1.8 3.2v1.9c0 2 1.6 3.7 3.5 3.7h.7a20.3 20.3 0 004.6 9.8c-4 1.3-7 5.2-7.4 9.8l-9.5 3a6.2 6.2 0 00-4.1 5l-1.5 9c0 .6.3 1.3 1 1.4.6 0 1.2-.4 1.3-1l1.5-9a3.7 3.7 0 012.5-3l8.8-2.8v2.5a6 6 0 00-4.4 3.9c-.2.5-.4 1-.4 1.7L17.4 73c0 .9.3 1.7.8 2.4a3 3 0 002.2 1H22c.6 0 1.2-.6 1.2-1.2 0-.7-.6-1.3-1.2-1.3h-1.5c-.2 0-.3 0-.4-.2a.7.7 0 01-.2-.5l.8-11.6c0-.4.1-.7.3-1a3.6 3.6 0 013.3-2.5h.2c1.4 0 2.7 1 3.3 2.3l.2 1.2.9 11.6c0 .2 0 .4-.2.5l-.4.2h-1.5c-.7 0-1.2.6-1.2 1.3 0 .6.5 1.2 1.2 1.2h1.5a3 3 0 002.1-1c.6-.7.9-1.5.8-2.4l-.8-11.6c0-.7-.2-1.4-.5-2-.8-2-2.4-3.3-4.3-3.7v-3.2l4-1.2 2.5 6.4a1076 1076 0 018.3 22.7c.1.5.6.8 1 .8.6 0 1-.3 1.2-.8a1677.2 1677.2 0 0110.8-29.1l4 1.2V60c-2.8.6-5 3.2-5 6.3 0 3.6 2.8 6.4 6.1 6.4 3.4 0 6.1-2.8 6.1-6.4 0-3.1-2.1-5.7-4.9-6.3v-6.6l8.9 2.8c1.3.4 2.2 1.6 2.5 3l3.5 22c0 .4 0 .7-.3 1-.2.3-.5.5-.8.5h-64c-.4 0-.7-.2-1-.5l-.2-1L9.4 74c.1-.7-.3-1.4-1-1.5-.6 0-1.2.4-1.3 1l-1.2 7.3c-.2 1 .1 2.2.8 3 .7.9 1.6 1.4 2.7 1.4h64c1 0 2-.5 2.6-1.4.7-.8 1-2 .8-3zM57 25.5l1.1-.2.6-.1.1.4v1.9c0 .6-.5 1.2-1.1 1.2h-.7v-3.2zm-31 3.2h-.7c-.7 0-1.2-.6-1.2-1.2v-2l.1-.3.6.1 1.1.2v3.2zm2.3 1.4v-3.3h1c.7-.3 1-1 1-1.7V13.7c0-1.4 1.2-2.6 2.5-2.6h3.2c.6 0 1.1.2 1.6.6l.3.3c1 .9 2.3 1.3 3.6 1.3 1.3 0 2.5-.4 3.5-1.3l.3-.3c.5-.4 1-.6 1.6-.6h3.3c1.3 0 2.4 1.2 2.4 2.6V25c0 .7.3 1.4 1 1.6a1.6 1.6 0 001 .1v3.3c0 1.8-1.1 5.3-3.3 8.3a16 16 0 01-3 3 11 11 0 01-13.8 0A16.6 16.6 0 0128.2 30zM49 50l-7.6 6.2-7.7-6.1c.7-1 1.2-2.4 1.2-3.6v-2a13 13 0 0013 0v2c0 1.2.4 2.5 1.1 3.6zm-17.3-1.3a3 3 0 00-2-.1l-4 1.3a8.6 8.6 0 016.8-7v3.6c0 .8-.3 1.6-.8 2.2zm3.2 10a308 308 0 00-.2-.6l-.2-.5-.5-1.3v-.1l-.2-.4v-.1l-.1-.4-.3-.6v-.2l-.1-.2-.1-.3a11.7 11.7 0 01-.5-1.1l-.2-.5v-.2l6.5 5.2-2.7 1.3-1.2.5-.2-.5zm2.8 7.6a1335.1 1335.1 0 00-1.7-4.8l.4-.2 1.8 2.2-.5 2.8zm3.7 10l-.1-.1-2-5.5 1.1-6.3h2l1 6.3-2 5.7zM42.8 62H40l-1.3-1.6 2.7-1.2 2.7 1.2-1.3 1.6zm3 2.5l-.8 1.9-.5-2.8 1.8-2.2.5.2-1 2.9zm4.4-12l-.2.5-.2.5-.2.5v.2l-.1.2-.1.2-.3.7v.1l-.2.4v.1l-.1.4-.6 1.4-.2.5-.2.5-.2.6-1.1-.5-2.8-1.3 6.6-5.2v.2zm2.9-3.8a3 3 0 00-2.1 0c-.5-.5-.8-1.3-.8-2V43c3.5.6 6.2 3.4 7 7L53 48.7zm9 17.6c0 2.2-1.6 4-3.7 4-2 0-3.7-1.8-3.7-4s1.7-4 3.7-4 3.8 1.8 3.8 4z" fill="#fff"/></g><defs><clipPath id="clip0"><path fill="#fff" transform="translate(.3 .2)" d="M0 0h80v84.9H0z"/></clipPath></defs></svg>