<svg width="20" height="20" fill="none" xmlns="http://www.w3.org/2000/svg"><path fill-rule="evenodd" clip-rule="evenodd" d="M11.7 1.7a.8.8 0 110-1.7C16.3 0 20 3.7 20 8.3a.8.8 0 11-1.7 0c0-3.6-3-6.6-6.6-6.6zm1.9 10.2l-2 2-5.4-5.6L8 6.4c.3-.3.3-.8 0-1.2L3.9 1.1a.8.8 0 00-1.2 0L.2 3.6l-.2.6C0 12.9 7 20 15.8 20c.3 0 .5 0 .6-.2l2.5-2.5c.3-.4.3-.9 0-1.2l-4.1-4.2a.8.8 0 00-1.2 0zM11 15.6c.3.3.8.3 1.2 0l1.9-2 3 3-1.7 1.7A14.2 14.2 0 011.7 4.5l1.6-1.7 3 3-1.9 2c-.3.3-.3.8 0 1.1l6.7 6.7zm-.3-11.4c0 .4.4.8.9.8C13.5 5 15 6.5 15 8.3a.8.8 0 101.7 0 5 5 0 00-5-5c-.5 0-.9.4-.9.9z" fill="#0096FF"/><mask id="a" maskUnits="userSpaceOnUse" x="0" y="0" width="20" height="20"><path fill-rule="evenodd" clip-rule="evenodd" d="M11.7 1.7a.8.8 0 110-1.7C16.3 0 20 3.7 20 8.3a.8.8 0 11-1.7 0c0-3.6-3-6.6-6.6-6.6zm1.9 10.2l-2 2-5.4-5.6L8 6.4c.3-.3.3-.8 0-1.2L3.9 1.1a.8.8 0 00-1.2 0L.2 3.6l-.2.6C0 12.9 7 20 15.8 20c.3 0 .5 0 .6-.2l2.5-2.5c.3-.4.3-.9 0-1.2l-4.1-4.2a.8.8 0 00-1.2 0zM11 15.6c.3.3.8.3 1.2 0l1.9-2 3 3-1.7 1.7A14.2 14.2 0 011.7 4.5l1.6-1.7 3 3-1.9 2c-.3.3-.3.8 0 1.1l6.7 6.7zm-.3-11.4c0 .4.4.8.9.8C13.5 5 15 6.5 15 8.3a.8.8 0 101.7 0 5 5 0 00-5-5c-.5 0-.9.4-.9.9z" fill="#fff"/></mask></svg>