<svg width="0" height="0" class="hidden">
  <symbol fill="none" xmlns="http://www.w3.org/2000/svg" viewBox="0 0 40 40" id="fb">
    <path d="M25.2 8.9h3.1V3.6l-4.5-.3c-4.6 0-7.7 2.8-7.7 7.9v4.3h-5v6h5v15.2h6.2V21.5h5l.8-6h-5.8v-3.7c0-1.8.4-3 2.9-3z" fill="#fff"></path>
  </symbol>
  <symbol fill="none" xmlns="http://www.w3.org/2000/svg" viewBox="0 0 18 22" id="geo">
    <path d="M15 3.5a8.5 8.5 0 00-12 12l5.3 5.3a1 1 0 001.4 0l5.3-5.4a8.4 8.4 0 000-12zM13.6 14L9 18.6 4.4 14a6.5 6.5 0 119.2 0zM6 6.4a4.3 4.3 0 107.4 3.1 4.2 4.2 0 00-1.3-3 4.3 4.3 0 00-6.1 0zm4.7 4.7a2.3 2.3 0 11.7-1.6c0 .6-.3 1.2-.8 1.6z" fill="#BDBDBD"></path>
  </symbol>
  <symbol fill="none" xmlns="http://www.w3.org/2000/svg" viewBox="0 0 18 21" id="home">
    <path d="M17 7l-6-5.3a3 3 0 00-4 0L1 7a3 3 0 00-1 2.3V18a3 3 0 003 3h12a3 3 0 003-3V9.3A3 3 0 0017 7zm-6 12H7v-5a1 1 0 011-1h2a1 1 0 011 1v5zm5-1a1 1 0 01-1 1h-2v-5a3 3 0 00-3-3H8a3 3 0 00-3 3v5H3a1 1 0 01-1-1V9.3a1 1 0 01.3-.8l6-5.2a1 1 0 011.4 0l6 5.2a1 1 0 01.3.8V18z" fill="#BDBDBD"></path>
  </symbol>
  <symbol fill="" xmlns="http://www.w3.org/2000/svg" viewBox="0 0 40 40" id="home-big">
    <path d="M39.3 17.4L29.5 10V1.7c0-1-.8-1.7-1.7-1.7-1 0-1.7.8-1.7 1.7v5.8L21 3.7c-.6-.4-1.4-.4-2 0L.7 17.4c-.7.5-.8 1.5-.3 2.3.5.7 1.5.8 2.3.3l1.7-1.3v19.6c0 1 .7 1.7 1.7 1.7H34c1 0 1.7-.8 1.8-1.7V18.9l1.5 1.1c.4.3.7.3 1 .3.6 0 1-.1 1.3-.6.5-.7.4-1.8-.3-2.3zM17.8 36.7v-8.5h4.5v8.5h-4.5zm14.6 0h-6.7V26.5c0-1-.8-1.7-1.7-1.7h-7.8c-1 0-1.7.7-1.7 1.7v10.2H7.7V19.2h24.7v17.5zm-24-20.9L20 7.1l6.6 5 .4.2 4.7 3.5H8.3z" ></path>
  </symbol>
 <symbol xmlns="http://www.w3.org/2000/svg" viewBox="0 0 1024 1024" id="instagram">
    <g clip-rule="evenodd" fill-rule="evenodd">
      <path d="M512.3.1C583.2.1 654-.2 724.9.2 791.5.6 854 15.8 908.4 56.3c70.8 53 107 125.3 113.8 212.5 2.4 30.7 1.7 61.7 1.7 92.5.2 119.6 0 239.2 0 358.9 0 48.8-6.7 96.5-27.4 141.2-42 90.6-115.1 140.2-211.6 157.3a358 358 0 01-61.4 5c-141.3.4-282.6.3-424 .2-73.5-.1-140.7-19.5-198-67.2-58.2-48.4-88.9-111.8-98.4-186a306.6 306.6 0 01-2.7-38.8c-.1-148.5-1-297.1.4-445.7.8-81.2 27.8-153.1 88.3-209.8 50-47 111-71.6 178.7-74 81.4-3 163-.7 244.5-.7V0zm-.8 929.3c68.2 0 136.4.2 204.5-.2 17.9-.1 36-1 53.5-4.2 66.8-12 117.6-45.6 144.2-110.7a283 283 0 0018.5-102.8c2.3-133.3 1-266.6.9-400 0-14.4-.2-29-2.3-43.2-9.1-64-36.9-116.5-95.8-148.4a217.9 217.9 0 00-105.6-24.5H300.9c-12.9.1-26 .8-38.7 2.6-72.7 10.2-126.3 46-153.1 116.6a246.7 246.7 0 00-14.3 88.6c0 139.4-.2 278.8.2 418.2 0 17 1.3 34.3 4.3 51.1 13.6 74.4 55 125.5 128.9 146 24.6 6.9 50.9 9.9 76.5 10.4 69 1.4 137.9.5 206.8.5z" fill="#fff"></path>
      <path d="M775.9 510.4c0 145.7-119 264.3-264.8 264a263.7 263.7 0 01-263.4-264A264.5 264.5 0 01512.3 246a265.4 265.4 0 01263.6 264.3zm-264 168.8a170 170 0 00169.4-169.3 170.8 170.8 0 00-168.8-169.2A170 170 0 00343 509.8a169.3 169.3 0 00169 169.4zm273.8-379.9c-33-.3-59-26.7-59-59.8a59.8 59.8 0 01119.6.4 59.7 59.7 0 01-60.6 59.4z" fill="#fff"></path>
    </g>
  </symbol>
  <symbol fill="none" xmlns="http://www.w3.org/2000/svg" viewBox="0 0 130 26" id="logo">
    <circle cx="9.6" cy="9.6" r="9.6" fill="#82CDE5"></circle>
    <path d="M7.3 25.6h8.9c6.2 0 10.5-3.7 10.5-9.4 0-5.8-4.3-9.4-10.5-9.4H7.3v18.8zm5.3-4.3V11H16c3.2 0 5.3 2 5.3 5.2s-2.1 5.1-5.3 5.1h-3.4zm28.8 4.3H47l-4-6a6.2 6.2 0 003.7-5.9c0-4.3-3.2-7-8.4-7h-8.5v18.9H35v-5h3l3.4 5zm0-11.9c0 1.8-1.2 2.8-3.4 2.8h-3V11h3c2.2 0 3.3 1 3.3 2.7zm13.7 7.8V18h8.4v-4H55v-3h9.5V6.8H49.9v18.8h15v-4.1h-9.8zm27.1 4.1h5.5L79.4 6.8h-5.2l-8.3 18.8h5.4l1.5-3.7h8l1.4 3.7zM74.4 18l2.4-6 2.4 6h-4.8zm36.9 7.6V6.8h-4.4l-6.4 10.8-6.6-10.8h-4.4v18.8h5v-9.7l4.7 7.8h2.4l4.8-8v9.9h5zm9.5-13.4h1.3v-4h1.6V7h-4.5v1h1.6v4zm3.6 0h1.3v-3l1.5 2.7 1.5-2.7v3h1.3V7h-1.3l-1.5 2.7-1.5-2.7h-1.3v5.2z" fill="#3072C4"></path>
  </symbol>
  <symbol  xmlns="http://www.w3.org/2000/svg" viewBox="0 0 12 18" id="next">
    <path d="M10.7 8L3.2.6a1.3 1.3 0 10-2 1.9L8 9.1l-6.6 6.6a1.3 1.3 0 00.4 2.1 1.3 1.3 0 001 0c.2 0 .3-.1.5-.3l7.5-7.5a1.3 1.3 0 000-2z" ></path>
  </symbol>
  <symbol fill="none" xmlns="http://www.w3.org/2000/svg" viewBox="0 0 35 4" id="pagination">
    <path fill="#E0E0E0" d="M0 0h35v4H0z"></path>
  </symbol>
  <symbol  xmlns="http://www.w3.org/2000/svg" viewBox="0 0 12 18" id="prev">
    <path d="M1.3 10L9 17.6c.6.6 1.4.6 1.9 0 .5-.5.5-1.3 0-1.8L4.3 9l6.5-6.7c.5-.5.5-1.3 0-1.8-.3-.3-.5-.4-1-.4-.3 0-.6.1-.9.4L1.3 7.9c-.5.7-.5 1.5 0 2.2 0-.2 0-.2 0 0z" ></path>
  </symbol>
  <symbol fill="none" xmlns="http://www.w3.org/2000/svg" viewBox="0 0 61 43" id="quote">
    <path d="M14.4 0C5 8.5 0 17.4 0 25.7 0 35.7 5.5 43 13.4 43 20.2 43 26 37.1 26 30c0-6.8-5.6-12.7-12.4-12.7 1.2-4 4-8.3 8-11.8L14.4 0zm35 0C40 8.5 35 17.4 35 25.7c0 10 5.5 17.3 13.4 17.3C55.3 43 61 37.1 61 30c0-6.8-5.6-12.7-12.4-12.7 1.1-4 4-8.3 8-11.8L49.4 0z" fill="#3072C4"></path>
  </symbol>
  <symbol fill="none" xmlns="http://www.w3.org/2000/svg" viewBox="0 0 362 355" id="ellipse">
    <circle cx="93.5" cy="268.5" r="268.5" transform="rotate(-180 93.5 268.5)" fill="url(#paint0_linear)"></circle>
    <defs>
      <linearGradient id="paint0_linear" x1="384" y1="495.5" x2="-175" y2="124" gradientUnits="userSpaceOnUse">
        <stop stop-color="#fff" stop-opacity=".1"></stop>
        <stop offset="1" stop-color="#fff" stop-opacity="0"></stop>
      </linearGradient>
    </defs>
  </symbol>
  <symbol fill="none" xmlns="http://www.w3.org/2000/svg" viewBox="0 0 21 22" id="close">
    <path d="M1 2l18.3 18.3M1 20.3l19-19" stroke="" stroke-width="2" stroke-linecap="round" stroke-linejoin="round"></path>
  </symbol>
  <symbol fill="" xmlns="http://www.w3.org/2000/svg" viewBox="0 0 40 40" id="sale">
    <path d="M35.4 9.9L25.4.4c-.3-.2-.6-.4-1-.4H5.6C4.6 0 4 .8 4 1.6v36.8c0 1 .8 1.6 1.6 1.6h28.6c1 0 1.6-.7 1.6-1.6V11c0-.4-.1-.8-.5-1.1zM26 5.2l5 4.8h-5V5.2zm6.9 31.6H7.2V3.2h15.4v8.3c0 1 .8 1.6 1.7 1.6h8.5v23.7z" ></path>
    <path d="M24.9 15.1c-.7-.4-1.6 0-2 .6L14.6 32c-.3.7 0 1.6.6 2 .8.3 1.7-.2 2-.7L25.5 17c.3-.7 0-1.5-.6-1.9zm-6 4.6c0-2.7-2-5-4.3-5s-4.2 2.3-4.2 5 1.9 5 4.2 5c2.4 0 4.3-2.3 4.3-5zm-5.7 0c0-1.2.7-2.1 1.4-2.1.8 0 1.4 1 1.4 2.1 0 1.2-.6 2.1-1.4 2.1-.7 0-1.4-1-1.4-2.1zm12.2 4.6c-2.4 0-4.3 2.2-4.3 5 0 2.7 2 4.9 4.3 4.9s4.2-2.2 4.2-5c0-2.7-1.9-5-4.2-5zm0 7c-.8 0-1.4-1-1.4-2 0-1.3.6-2.2 1.4-2.2.7 0 1.4 1 1.4 2.1 0 1.2-.7 2.1-1.4 2.1z" ></path>
  </symbol>
  <symbol fill=""  xmlns="http://www.w3.org/2000/svg" viewBox="0 0 40 40" id="search">
    <path d="M35.1 28l-3.4-3.5a5.1 5.1 0 00-5.7-1l-1.5-1.4a11.7 11.7 0 10-2.4 2.3l1.5 1.5a5 5 0 001 5.8l3.4 3.5a5 5 0 008.2-1.6 5 5 0 00-1-5.6zM21 21A8.3 8.3 0 119.2 9.2 8.3 8.3 0 0121 21zm11.8 11.8a1.7 1.7 0 01-2.4 0l-3.5-3.6a1.7 1.7 0 01.5-2.7 1.7 1.7 0 011.8.4l3.6 3.5a1.7 1.7 0 010 2.4z" ></path>
  </symbol>
  <symbol fill="" xmlns="http://www.w3.org/2000/svg" viewBox="0 0 40 40" id="tax">
    <path d="M39.9 19.5c-.2-.4-.5-.7-1-.9L27.4 14c1-2 1.3-4 1.3-6-.1-2.4-1.1-4.5-2.8-6-4-3.5-11-2.2-15.6 3-1.7 2-3 4.3-3.5 6.7v.3L1 14.8c-1 .4-1.2 1.3-1 2.2l5 12.3c.1.4.5.7.9.9L30.4 40h.6c.6 0 1.3-.4 1.6-1.1l7.2-18v-1.3zM12.8 7.2c3.3-3.9 8.3-5 11-2.8a5.6 5.6 0 011.6 3.7c0 1.5-.3 3.1-1 4.8l-10-4c-.3-.1-.9 0-1.3.1l-2.3 1.1c.5-1 1.2-2 2-3zm17.4 29l-22.3-9-4-10 10-4.9 8.5 3.4c-3.3 3.9-8.3 5-11 2.7-.7-.6-1.8-.5-2.4.1-.5.7-.5 1.8.2 2.4 1.5 1.3 3.5 2 5.6 2a14 14 0 0010-5c.3-.3.6-.5.8-.9l10.5 4.2-6 15z" ></path>
  </symbol>
  <symbol fill="none" xmlns="http://www.w3.org/2000/svg" viewBox="0 0 40 40" id="twitter">
    <path d="M38.3 6.6a1.7 1.7 0 00-2.5-1.4c-1 .5-2 1-3.1 1.3a8.7 8.7 0 00-14.3 6.4C13.9 12 9.8 9.7 7 6.2a1.7 1.7 0 00-2.2-.4l-.5.6a8.8 8.8 0 00-.4 8A1.7 1.7 0 003 16v.7c.2 2 1.2 4 2.7 5.5a1.7 1.7 0 00-.1 1.3c.6 2 2 3.8 4 4.9-2 .7-4 1-6 .7a1.7 1.7 0 00-1.2 3A21.6 21.6 0 0035.8 14v-.3a9.6 9.6 0 002.5-7zm-5.5 5.3c-.3.4-.4.8-.4 1.2v.8a18 18 0 01-.7 5.2A17.8 17.8 0 0114 32.3c-1.4 0-2.9-.2-4.2-.5 1.7-.6 3.4-1.5 4.9-2.6a1.7 1.7 0 00-1-3c-1.4 0-2.8-.6-3.7-1.6l.7-.1a1.7 1.7 0 00-.1-3.3 5.3 5.3 0 01-3.8-2.9l1 .1a1.7 1.7 0 001.6-1.1 1.7 1.7 0 00-.7-2 5.3 5.3 0 01-2.4-4.7C10.2 14 15 16 20.1 16.4a1.7 1.7 0 001.4-.6 1.7 1.7 0 00.3-1.5 5.3 5.3 0 011.5-5 5.4 5.4 0 017.7.1 1.7 1.7 0 001.5.5l2-.5c-.4 1-1 1.8-1.7 2.5z" fill="#fff"></path>
  </symbol>
  <symbol fill="" xmlns="http://www.w3.org/2000/svg" viewBox="0 0 32 32" id="arrow">
    <path d="M23.9 15.5c0-.2-.2-.3-.3-.4L17 8.4a1.3 1.3 0 00-1.8 1.9l4.4 4.4H9.3a1.3 1.3 0 100 2.6h10.2L15 21.7a1.3 1.3 0 00.4 2.2 1.3 1.3 0 001.4-.3l6.7-6.7.3-.4v-1z" ></path>
  </symbol>
  <symbol fill="none" xmlns="http://www.w3.org/2000/svg" viewBox="0 0 32 32" id="check">
    <path d="M19.6 11.7L14 17.5l-2.2-2.2a1.3 1.3 0 10-2 1.7l3.2 3.2a1.3 1.3 0 001.8 0l6.7-6.7a1.3 1.3 0 10-1.9-1.9zm-3.6-9a13.3 13.3 0 100 26.6 13.3 13.3 0 000-26.6zm0 24a10.7 10.7 0 110-21.4 10.7 10.7 0 010 21.4z" fill="#fff"></path>
  </symbol>
   <symbol fill="none" xmlns="http://www.w3.org/2000/svg" viewBox="0 0 7 11" id="next-best">
    <path d="M1 1l4 4.5L1 10"  stroke-width="2"></path>
  </symbol>
  <symbol fill="none" xmlns="http://www.w3.org/2000/svg" viewBox="0 0 7 10" id="prev-best">
    <path d="M6 1L2 5l4 4"  stroke-width="2"></path>
  </symbol>
</svg>