<svg width="0" height="0" class="hidden">
  
  
	

  <symbol fill="none" xmlns="http://www.w3.org/2000/svg" viewBox="0 0 112 112" id="logo">
   
        <path d="M32.1746 1L91.4264 1" stroke="#4276EF" stroke-width="2" stroke-linecap="round"/>
        <path d="M32.1344 1L2 58.835L32.1344 111H92.2494" stroke="#4276EF" stroke-width="2" stroke-linecap="round"/>
        <path d="M91.4265 1L110.903 31.9021" stroke="#4276EF" stroke-width="2" stroke-linecap="round"/>
        <path d="M112 79.8144L92.2494 111" stroke="#4276EF" stroke-width="2" stroke-linecap="round"/>

  </symbol>

   <symbol fill="none" xmlns="http://www.w3.org/2000/svg" viewBox="0 0 237 112" id="logo-test">
        <svg width="237" height="112" viewBox="0 0 237 112" fill="none" xmlns="http://www.w3.org/2000/svg">
            <path d="M32.1746 1L91.4264 1" stroke="#4276EF" stroke-width="2" stroke-linecap="round"/>
            <path d="M32.1344 1L2 58.835L32.1344 111H92.2494" stroke="#4276EF" stroke-width="2" stroke-linecap="round"/>
            <path d="M91.4265 1L110.903 31.9021" stroke="#4276EF" stroke-width="2" stroke-linecap="round"/>
            <path d="M112 79.8144L92.2494 111" stroke="#4276EF" stroke-width="2" stroke-linecap="round"/>
            <path d="M45.2 63H42.92V55.44H38.72V53.16H49.4V55.44H45.2V63ZM38.72 46.2H49.4V48.48H38.72V46.2ZM58.5172 63V55.2L54.1972 63H52.0372V53.4H50.3572V51.24H54.1972V59.04L58.5172 51.24H60.6772V63H58.5172ZM66.1916 54.72V63H64.0316V51.24H66.4316L69.5516 56.88L72.6716 51.24H75.0716V60.84H76.7516V63H72.9116V54.72L70.5116 59.04H68.5916L66.1916 54.72ZM87.08 58.8C87.08 59.456 86.968 60.056 86.744 60.6C86.536 61.144 86.232 61.616 85.832 62.016C85.448 62.4 84.984 62.704 84.44 62.928C83.896 63.136 83.296 63.24 82.64 63.24C81.984 63.24 81.384 63.136 80.84 62.928C80.296 62.704 79.824 62.4 79.424 62.016C79.04 61.616 78.736 61.144 78.512 60.6C78.304 60.056 78.2 59.456 78.2 58.8V55.44C78.2 54.784 78.304 54.184 78.512 53.64C78.736 53.096 79.04 52.632 79.424 52.248C79.824 51.848 80.296 51.544 80.84 51.336C81.384 51.112 81.984 51 82.64 51C83.296 51 83.896 51.112 84.44 51.336C84.984 51.544 85.448 51.848 85.832 52.248C86.232 52.632 86.536 53.096 86.744 53.64C86.968 54.184 87.08 54.784 87.08 55.44V58.8ZM80.36 58.8C80.36 59.472 80.568 60.024 80.984 60.456C81.416 60.872 81.968 61.08 82.64 61.08C83.312 61.08 83.856 60.872 84.272 60.456C84.704 60.024 84.92 59.472 84.92 58.8V55.44C84.92 54.768 84.704 54.224 84.272 53.808C83.856 53.376 83.312 53.16 82.64 53.16C81.968 53.16 81.416 53.376 80.984 53.808C80.568 54.224 80.36 54.768 80.36 55.44V58.8ZM94.7534 63H93.9134C93.2574 63 92.6574 62.896 92.1134 62.688C91.5694 62.464 91.0974 62.16 90.6974 61.776C90.3134 61.376 90.0094 60.904 89.7854 60.36C89.5774 59.816 89.4734 59.216 89.4734 58.56V55.68C89.4734 55.024 89.5774 54.424 89.7854 53.88C90.0094 53.336 90.3134 52.872 90.6974 52.488C91.0974 52.088 91.5694 51.784 92.1134 51.576C92.6574 51.352 93.2574 51.24 93.9134 51.24H94.7534V48.36H93.0734V46.2H96.9134V51.24H97.7534C98.4094 51.24 99.0094 51.352 99.5534 51.576C100.097 51.784 100.561 52.088 100.945 52.488C101.345 52.872 101.649 53.336 101.857 53.88C102.081 54.424 102.193 55.024 102.193 55.68V58.56C102.193 59.216 102.081 59.816 101.857 60.36C101.649 60.904 101.345 61.376 100.945 61.776C100.561 62.16 100.097 62.464 99.5534 62.688C99.0094 62.896 98.4094 63 97.7534 63H96.9134V68.04H94.7534V63ZM100.033 55.68C100.033 55.008 99.8174 54.464 99.3854 54.048C98.9694 53.616 98.4254 53.4 97.7534 53.4H96.9134V60.84H97.7534C98.4254 60.84 98.9694 60.632 99.3854 60.216C99.8174 59.784 100.033 59.232 100.033 58.56V55.68ZM91.6334 58.56C91.6334 59.232 91.8414 59.784 92.2574 60.216C92.6894 60.632 93.2414 60.84 93.9134 60.84H94.7534V53.4H93.9134C93.2414 53.4 92.6894 53.616 92.2574 54.048C91.8414 54.464 91.6334 55.008 91.6334 55.68V58.56ZM104.591 55.32C104.591 54.696 104.695 54.12 104.903 53.592C105.127 53.064 105.431 52.608 105.815 52.224C106.199 51.84 106.655 51.544 107.183 51.336C107.711 51.112 108.287 51 108.911 51C109.535 51 110.111 51.112 110.639 51.336C111.167 51.544 111.623 51.84 112.007 52.224C112.391 52.608 112.687 53.064 112.895 53.592C113.119 54.12 113.231 54.696 113.231 55.32V58.32H106.751V58.92C106.751 59.464 106.935 59.92 107.303 60.288C107.671 60.656 108.127 60.84 108.671 60.84H112.511V63H108.671C108.063 63 107.511 62.904 107.015 62.712C106.519 62.504 106.087 62.224 105.719 61.872C105.367 61.504 105.087 61.072 104.879 60.576C104.687 60.08 104.591 59.528 104.591 58.92V55.32ZM108.911 53.16C108.303 53.16 107.791 53.368 107.375 53.784C106.959 54.2 106.751 54.712 106.751 55.32V56.28H111.071V55.32C111.071 54.712 110.863 54.2 110.447 53.784C110.031 53.368 109.519 53.16 108.911 53.16ZM122.595 63V55.2L118.275 63H116.115V53.4H114.435V51.24H118.275V59.04L122.595 51.24H124.755V63H122.595ZM120.435 47.64C120.803 47.64 121.099 47.536 121.323 47.328C121.563 47.104 121.747 46.808 121.875 46.44L123.675 46.68C123.579 47.048 123.435 47.392 123.243 47.712C123.051 48.032 122.819 48.312 122.547 48.552C122.275 48.792 121.955 48.984 121.587 49.128C121.235 49.256 120.851 49.32 120.435 49.32C120.019 49.32 119.627 49.256 119.259 49.128C118.907 48.984 118.595 48.792 118.323 48.552C118.051 48.312 117.819 48.032 117.627 47.712C117.435 47.392 117.291 47.048 117.195 46.68L118.995 46.44C119.123 46.808 119.299 47.104 119.523 47.328C119.763 47.536 120.067 47.64 120.435 47.64ZM132.433 63V48.48H130.513V46.2H142.993V63H140.713V48.48H134.713V63H132.433ZM155.236 58.8C155.236 59.456 155.124 60.056 154.9 60.6C154.692 61.144 154.388 61.616 153.988 62.016C153.604 62.4 153.14 62.704 152.596 62.928C152.052 63.136 151.452 63.24 150.796 63.24C150.14 63.24 149.54 63.136 148.996 62.928C148.452 62.704 147.98 62.4 147.58 62.016C147.196 61.616 146.892 61.144 146.668 60.6C146.46 60.056 146.356 59.456 146.356 58.8V55.44C146.356 54.784 146.46 54.184 146.668 53.64C146.892 53.096 147.196 52.632 147.58 52.248C147.98 51.848 148.452 51.544 148.996 51.336C149.54 51.112 150.14 51 150.796 51C151.452 51 152.052 51.112 152.596 51.336C153.14 51.544 153.604 51.848 153.988 52.248C154.388 52.632 154.692 53.096 154.9 53.64C155.124 54.184 155.236 54.784 155.236 55.44V58.8ZM148.516 58.8C148.516 59.472 148.724 60.024 149.14 60.456C149.572 60.872 150.124 61.08 150.796 61.08C151.468 61.08 152.012 60.872 152.428 60.456C152.86 60.024 153.076 59.472 153.076 58.8V55.44C153.076 54.768 152.86 54.224 152.428 53.808C152.012 53.376 151.468 53.16 150.796 53.16C150.124 53.16 149.572 53.376 149.14 53.808C148.724 54.224 148.516 54.768 148.516 55.44V58.8ZM164.83 63V53.4H160.51V63H158.35V53.4H156.67V51.24H166.99V63H164.83ZM178.744 58.8C178.744 59.456 178.632 60.056 178.408 60.6C178.2 61.144 177.896 61.616 177.496 62.016C177.112 62.4 176.648 62.704 176.104 62.928C175.56 63.136 174.96 63.24 174.304 63.24C173.648 63.24 173.048 63.136 172.504 62.928C171.96 62.704 171.488 62.4 171.088 62.016C170.704 61.616 170.4 61.144 170.176 60.6C169.968 60.056 169.864 59.456 169.864 58.8V55.44C169.864 54.784 169.968 54.184 170.176 53.64C170.4 53.096 170.704 52.632 171.088 52.248C171.488 51.848 171.96 51.544 172.504 51.336C173.048 51.112 173.648 51 174.304 51C174.96 51 175.56 51.112 176.104 51.336C176.648 51.544 177.112 51.848 177.496 52.248C177.896 52.632 178.2 53.096 178.408 53.64C178.632 54.184 178.744 54.784 178.744 55.44V58.8ZM172.024 58.8C172.024 59.472 172.232 60.024 172.648 60.456C173.08 60.872 173.632 61.08 174.304 61.08C174.976 61.08 175.52 60.872 175.936 60.456C176.368 60.024 176.584 59.472 176.584 58.8V55.44C176.584 54.768 176.368 54.224 175.936 53.808C175.52 53.376 174.976 53.16 174.304 53.16C173.632 53.16 173.08 53.376 172.648 53.808C172.232 54.224 172.024 54.768 172.024 55.44V58.8ZM190.018 59.4C190.018 60.488 189.69 61.36 189.034 62.016C188.378 62.672 187.506 63 186.418 63H180.418V60.84H181.858V53.4H180.418V51.24H186.178C187.202 51.24 188.018 51.544 188.626 52.152C189.234 52.76 189.538 53.576 189.538 54.6C189.538 55.016 189.458 55.36 189.298 55.632C189.154 55.904 188.994 56.128 188.818 56.304C188.61 56.496 188.37 56.648 188.098 56.76C188.45 56.92 188.77 57.12 189.058 57.36C189.298 57.584 189.514 57.864 189.706 58.2C189.914 58.52 190.018 58.92 190.018 59.4ZM184.018 55.8H186.178C186.546 55.8 186.834 55.696 187.042 55.488C187.266 55.264 187.378 54.968 187.378 54.6C187.378 54.232 187.266 53.944 187.042 53.736C186.834 53.512 186.546 53.4 186.178 53.4H184.018V55.8ZM186.418 60.84C186.834 60.84 187.178 60.704 187.45 60.432C187.722 60.16 187.858 59.816 187.858 59.4C187.858 58.984 187.722 58.64 187.45 58.368C187.178 58.096 186.834 57.96 186.418 57.96H184.018V60.84H186.418ZM192.177 55.44C192.177 54.784 192.281 54.184 192.489 53.64C192.713 53.096 193.017 52.632 193.401 52.248C193.801 51.848 194.273 51.544 194.817 51.336C195.361 51.112 195.961 51 196.617 51C197.433 51 198.097 51.136 198.609 51.408C199.121 51.664 199.521 51.952 199.809 52.272C200.145 52.64 200.401 53.056 200.577 53.52L198.777 54.6C198.665 54.328 198.513 54.088 198.321 53.88C198.145 53.704 197.921 53.544 197.649 53.4C197.377 53.24 197.033 53.16 196.617 53.16C195.945 53.16 195.393 53.376 194.961 53.808C194.545 54.224 194.337 54.768 194.337 55.44V58.8C194.337 59.472 194.545 60.024 194.961 60.456C195.393 60.872 195.945 61.08 196.617 61.08C197.033 61.08 197.377 61.008 197.649 60.864C197.921 60.704 198.145 60.536 198.321 60.36C198.513 60.152 198.665 59.912 198.777 59.64L200.577 60.72C200.401 61.2 200.145 61.624 199.809 61.992C199.521 62.312 199.121 62.6 198.609 62.856C198.097 63.112 197.433 63.24 196.617 63.24C195.961 63.24 195.361 63.136 194.817 62.928C194.273 62.704 193.801 62.4 193.401 62.016C193.017 61.616 192.713 61.144 192.489 60.6C192.281 60.056 192.177 59.456 192.177 58.8V55.44ZM205.135 56.04H207.175L209.575 51.24H211.855L208.855 57.12L211.855 63H209.575L207.175 58.2H205.135V63H202.975V53.4H201.295V51.24H205.135V56.04ZM220.494 63V55.2L216.174 63H214.014V53.4H212.334V51.24H216.174V59.04L220.494 51.24H222.654V63H220.494ZM232.728 63V55.2L228.408 63H226.248V53.4H224.568V51.24H228.408V59.04L232.728 51.24H234.888V63H232.728ZM230.568 47.64C230.936 47.64 231.232 47.536 231.456 47.328C231.696 47.104 231.88 46.808 232.008 46.44L233.808 46.68C233.712 47.048 233.568 47.392 233.376 47.712C233.184 48.032 232.952 48.312 232.68 48.552C232.408 48.792 232.088 48.984 231.72 49.128C231.368 49.256 230.984 49.32 230.568 49.32C230.152 49.32 229.76 49.256 229.392 49.128C229.04 48.984 228.728 48.792 228.456 48.552C228.184 48.312 227.952 48.032 227.76 47.712C227.568 47.392 227.424 47.048 227.328 46.68L229.128 46.44C229.256 46.808 229.432 47.104 229.656 47.328C229.896 47.536 230.2 47.64 230.568 47.64Z" fill="black"/>
        </svg>
  </symbol>


 
  <symbol aria-hidden="true" xmlns="http://www.w3.org/2000/svg" viewBox="0 0 14 14" id="vk">
    <path d="M6.85 10.385h.719s.216-.023.327-.142C8 10.133 8 9.928 8 9.928s-.016-.963.434-1.105c.444-.14 1.006.93 1.606 1.342.458.314.802.247.802.247l1.606-.022s.84-.053.443-.713c-.03-.053-.225-.488-1.185-1.38-1.006-.93-.871-.78.338-2.394.734-.982 1.035-1.583.937-1.838-.083-.24-.63-.18-.63-.18l-1.8.015s-.136-.015-.233.045c-.098.06-.157.196-.157.196s-.286.764-.668 1.41C8.682 6.915 8.36 6.99 8.232 6.9c-.302-.196-.224-.79-.224-1.217 0-1.32.202-1.875-.39-2.017-.196-.046-.341-.075-.843-.083-.645-.007-1.19.005-1.498.155-.202.102-.36.326-.27.338.12.015.39.073.533.268.187.253.18.818.18.818s.105 1.558-.248 1.752c-.247.13-.577-.14-1.297-1.378-.368-.63-.646-1.335-.646-1.335s-.052-.128-.15-.203a.781.781 0 00-.278-.113L1.384 3.9s-.255.008-.345.12c-.083.098-.008.308-.008.308s1.343 3.143 2.866 4.726c1.395 1.451 2.978 1.358 2.978 1.358l-.025-.028z"></path>
  </symbol>
  <symbol xmlns="http://www.w3.org/2000/svg" viewBox="0 0 32 32" id="telegram">
    <path d="M29.92 6.16L25.69 26.1c-.31 1.4-1.15 1.75-2.33 1.1l-6.43-4.75-3.11 2.99c-.34.34-.63.63-1.3.63L13 19.5 24.92 8.72c.52-.46-.11-.72-.8-.26l-14.76 9.3-6.35-2c-1.38-.43-1.4-1.38.3-2.04l24.83-9.57c1.15-.43 2.15.26 1.78 2.01z"></path>
  </symbol>
  <symbol xmlns="http://www.w3.org/2000/svg" viewBox="0 0 1024 1024" id="inst">
    <g clip-rule="evenodd" fill-rule="evenodd">
      <path d="M512.3.1C583.2.1 654-.2 724.9.2 791.5.6 854 15.8 908.4 56.3c70.8 53 107 125.3 113.8 212.5 2.4 30.7 1.7 61.7 1.7 92.5.2 119.6 0 239.2 0 358.9 0 48.8-6.7 96.5-27.4 141.2-42 90.6-115.1 140.2-211.6 157.3a358 358 0 01-61.4 5c-141.3.4-282.6.3-424 .2-73.5-.1-140.7-19.5-198-67.2-58.2-48.4-88.9-111.8-98.4-186a306.6 306.6 0 01-2.7-38.8c-.1-148.5-1-297.1.4-445.7.8-81.2 27.8-153.1 88.3-209.8 50-47 111-71.6 178.7-74 81.4-3 163-.7 244.5-.7V0zm-.8 929.3c68.2 0 136.4.2 204.5-.2 17.9-.1 36-1 53.5-4.2 66.8-12 117.6-45.6 144.2-110.7a283 283 0 0018.5-102.8c2.3-133.3 1-266.6.9-400 0-14.4-.2-29-2.3-43.2-9.1-64-36.9-116.5-95.8-148.4a217.9 217.9 0 00-105.6-24.5H300.9c-12.9.1-26 .8-38.7 2.6-72.7 10.2-126.3 46-153.1 116.6a246.7 246.7 0 00-14.3 88.6c0 139.4-.2 278.8.2 418.2 0 17 1.3 34.3 4.3 51.1 13.6 74.4 55 125.5 128.9 146 24.6 6.9 50.9 9.9 76.5 10.4 69 1.4 137.9.5 206.8.5z"></path>
      <path d="M775.9 510.4c0 145.7-119 264.3-264.8 264a263.7 263.7 0 01-263.4-264A264.5 264.5 0 01512.3 246a265.4 265.4 0 01263.6 264.3zm-264 168.8a170 170 0 00169.4-169.3 170.8 170.8 0 00-168.8-169.2A170 170 0 00343 509.8a169.3 169.3 0 00169 169.4zm273.8-379.9c-33-.3-59-26.7-59-59.8a59.8 59.8 0 01119.6.4 59.7 59.7 0 01-60.6 59.4z"></path>
    </g>
  </symbol>
  <symbol xmlns="http://www.w3.org/2000/svg" viewBox="0 0 512 512" id="github">
    <path d="M218.7 445.5l-17.8 2c-29.1 2.9-54.5-5-73.7-27.7-6-7.1-9.4-16.3-14.5-24.2-7.9-12.4-16-24.7-24.7-36.6-3-4.1-8.2-6.5-12.2-10-1.3-1.1-1.7-3.2-2.6-4.9 1.8-.7 3.5-1.9 5.3-2.1 23-2.1 39.2 8.5 50.5 27.6 14.1 23.8 34.5 36.8 62.2 36.8 8 0 16-2.7 23.9-4.5 1.5-.4 3.3-2.7 3.5-4.4 1.4-10.4 2.7-20.8 7.5-30.3 1.8-3.5 3.9-6.8 6-10.4-8.1-1.6-15.9-2.8-23.6-4.7-35.5-9-64.8-26.8-81.8-60.6a101.5 101.5 0 01-10.8-42.2c-.8-22.8-.5-45.7 4.1-68.2a77.4 77.4 0 0121.3-41.9c2.6-2.5 3.1-4.7 1.7-8.5a89 89 0 01-1.7-56.8l3.5-12.5c27.4 5.2 43.7 23.7 59 44.2 15.8-11.7 34.5-12.7 52.7-13.9a287 287 0 0164.8 2.4 71.1 71.1 0 0129 10.6c9.4-9.7 18.2-19.5 27.9-28.4a60.3 60.3 0 0127.7-14c2.9-.7 4.4-.4 5.6 2.8a89.1 89.1 0 01.4 66.2c-1.2 3-1.1 5.1 1.4 7.5a79.7 79.7 0 0123.2 50.5c2 17.7 3.1 35.5 3.1 53.3a106.9 106.9 0 01-65.5 100.2 169.3 169.3 0 01-49.7 13.7l-1.5.7c11.8 16.9 13.7 35.9 13.5 55.6-.3 28.7-.2 57.3 0 86 0 4.5-1.3 5.6-5.7 5.6-35.5-.2-71-.2-106.5 0-4.4 0-5.8-1.4-5.8-5.7.2-15.5.1-31 .1-46.5.2-2.3.2-4.3.2-6.7z"></path>
  </symbol>
  
  <symbol xmlns="http://www.w3.org/2000/svg" viewBox="0 0 90 90" id="whatsapp">
    <path d="M90 43.8a44 44 0 01-65.5 38.4L0 90l8-23.5A44 44 0 0145.8 0 44 44 0 0190 43.8zM45.8 7A37 37 0 008.7 43.8c0 8.1 2.6 15.6 7 21.7L11.1 79l14.3-4.5A37.1 37.1 0 0083 43.8 37 37 0 0045.8 7zm22.3 47c-.2-.5-1-.8-2-1.3-1.1-.6-6.5-3.2-7.4-3.5-1-.4-1.8-.5-2.5.5a62 62 0 01-3.4 4.2c-.6.8-1.3.8-2.4.3-1-.5-4.5-1.7-8.7-5.3a32.4 32.4 0 01-6-7.5c-.6-1 0-1.6.5-2.2.5-.4 1-1.2 1.6-1.8l1-1.8c.5-.7.3-1.4 0-2l-3.3-7.9c-1-2.1-1.8-1.8-2.5-1.8h-2a4 4 0 00-3 1.3c-1 1-3.7 3.6-3.7 9 0 5.2 3.8 10.3 4.4 11 .5.8 7.5 12 18.5 16.3 11 4.3 11 2.8 13 2.7 2-.2 6.4-2.6 7.3-5.2.9-2.5.9-4.6.6-5z"></path>
  </symbol>


</svg>