<svg width="40" height="40" fill="none" xmlns="http://www.w3.org/2000/svg"><path d="M39.3 17.4L29.5 10V1.7c0-1-.8-1.7-1.7-1.7-1 0-1.7.8-1.7 1.7v5.8L21 3.7c-.6-.4-1.4-.4-2 0L.7 17.4c-.7.5-.8 1.5-.3 2.3.5.7 1.5.8 2.3.3l1.7-1.3v19.6c0 1 .7 1.7 1.7 1.7H34c1 0 1.7-.8 1.8-1.7V18.9l1.5 1.1c.4.3.7.3 1 .3.6 0 1-.1 1.3-.6.5-.7.4-1.8-.3-2.3zM17.8 36.7v-8.5h4.5v8.5h-4.5zm14.6 0h-6.7V26.5c0-1-.8-1.7-1.7-1.7h-7.8c-1 0-1.7.7-1.7 1.7v10.2H7.7V19.2h24.7v17.5zm-24-20.9L20 7.1l6.6 5 .4.2 4.7 3.5H8.3z" fill="#fff"/></svg>