<svg height="1024" width="1024" xmlns="http://www.w3.org/2000/svg"><g clip-rule="evenodd" fill-rule="evenodd"><path d="M512.3.1C583.2.1 654-.2 724.9.2 791.5.6 854 15.8 908.4 56.3c70.8 53 107 125.3 113.8 212.5 2.4 30.7 1.7 61.7 1.7 92.5.2 119.6 0 239.2 0 358.9 0 48.8-6.7 96.5-27.4 141.2-42 90.6-115.1 140.2-211.6 157.3a358 358 0 01-61.4 5c-141.3.4-282.6.3-424 .2-73.5-.1-140.7-19.5-198-67.2-58.2-48.4-88.9-111.8-98.4-186a306.6 306.6 0 01-2.7-38.8c-.1-148.5-1-297.1.4-445.7.8-81.2 27.8-153.1 88.3-209.8 50-47 111-71.6 178.7-74 81.4-3 163-.7 244.5-.7V0zm-.8 929.3c68.2 0 136.4.2 204.5-.2 17.9-.1 36-1 53.5-4.2 66.8-12 117.6-45.6 144.2-110.7a283 283 0 0018.5-102.8c2.3-133.3 1-266.6.9-400 0-14.4-.2-29-2.3-43.2-9.1-64-36.9-116.5-95.8-148.4a217.9 217.9 0 00-105.6-24.5H300.9c-12.9.1-26 .8-38.7 2.6-72.7 10.2-126.3 46-153.1 116.6a246.7 246.7 0 00-14.3 88.6c0 139.4-.2 278.8.2 418.2 0 17 1.3 34.3 4.3 51.1 13.6 74.4 55 125.5 128.9 146 24.6 6.9 50.9 9.9 76.5 10.4 69 1.4 137.9.5 206.8.5z"/><path d="M775.9 510.4c0 145.7-119 264.3-264.8 264a263.7 263.7 0 01-263.4-264A264.5 264.5 0 01512.3 246a265.4 265.4 0 01263.6 264.3zm-264 168.8a170 170 0 00169.4-169.3 170.8 170.8 0 00-168.8-169.2A170 170 0 00343 509.8a169.3 169.3 0 00169 169.4zM785.7 299.3c-33-.3-59-26.7-59-59.8a59.8 59.8 0 01119.6.4 59.7 59.7 0 01-60.6 59.4z"/></g></svg>