<svg width="130" height="26" fill="none" xmlns="http://www.w3.org/2000/svg"><circle cx="9.6" cy="9.6" r="9.6" fill="#82CDE5"/><path d="M7.3 25.6h8.9c6.2 0 10.5-3.7 10.5-9.4 0-5.8-4.3-9.4-10.5-9.4H7.3v18.8zm5.3-4.3V11H16c3.2 0 5.3 2 5.3 5.2s-2.1 5.1-5.3 5.1h-3.4zM41.4 25.6H47l-4-6a6.2 6.2 0 003.7-5.9c0-4.3-3.2-7-8.4-7h-8.5v18.9H35v-5H38l3.4 5zm0-11.9c0 1.8-1.2 2.8-3.4 2.8h-3V11h3c2.2 0 3.3 1 3.3 2.7zM55.1 21.5V18h8.4v-4H55V11h9.5V6.8H49.9v18.8h15v-4.1h-9.8zM82.2 25.6h5.5L79.4 6.8h-5.2l-8.3 18.8h5.4l1.5-3.7h8l1.4 3.7zM74.4 18l2.4-6 2.4 6h-4.8zM111.3 25.6V6.8h-4.4l-6.4 10.8-6.6-10.8h-4.4v18.8h5v-9.7l4.7 7.8h2.4l4.8-8v9.9h5zM120.8 12.2h1.3v-4h1.6V7h-4.5V8h1.6v4zM124.4 12.2h1.3v-3l1.5 2.7 1.5-2.7v3h1.3V7h-1.3l-1.5 2.7-1.5-2.7h-1.3v5.2z" fill="#003458"/></svg>