<svg width="40" height="40" fill="none" xmlns="http://www.w3.org/2000/svg"><path d="M35.4 9.9L25.4.4c-.3-.2-.6-.4-1-.4H5.6c-1 0-1.6.8-1.6 1.6v36.8c0 1 .8 1.6 1.6 1.6h28.6c1 0 1.6-.7 1.6-1.6V11c0-.4-.1-.8-.5-1.1zM26 5.2l5 4.8h-5V5.2zm6.9 31.6H7.2V3.2h15.4v8.3c0 1 .8 1.6 1.7 1.6h8.5v23.7z" fill="#E0E0E0"/><path d="M24.9 15.1c-.7-.4-1.6 0-2 .6L14.6 32c-.3.7 0 1.6.6 2 .8.3 1.7-.2 2-.7L25.5 17c.3-.7 0-1.5-.6-1.9zM18.9 19.7c0-2.7-2-5-4.3-5s-4.2 2.3-4.2 5 1.9 5 4.2 5c2.4 0 4.3-2.3 4.3-5zm-5.7 0c0-1.2.7-2.1 1.4-2.1.8 0 1.4 1 1.4 2.1 0 1.2-.6 2.1-1.4 2.1-.7 0-1.4-1-1.4-2.1zM25.4 24.3c-2.4 0-4.3 2.2-4.3 5 0 2.7 2 4.9 4.3 4.9s4.2-2.2 4.2-5c0-2.7-1.9-5-4.2-5zm0 7c-.8 0-1.4-1-1.4-2 0-1.3.6-2.2 1.4-2.2.7 0 1.4 1 1.4 2.1 0 1.2-.7 2.1-1.4 2.1z" fill="#E0E0E0"/></svg>