<svg width="40" height="40" fill="none" xmlns="http://www.w3.org/2000/svg"><path d="M39.9 19.5c-.2-.4-.5-.7-1-.9L27.4 14c1-2 1.3-4 1.3-6-.1-2.4-1.1-4.5-2.8-6-4-3.5-11-2.2-15.6 3-1.7 2-3 4.3-3.5 6.7v.3L1 14.8C0 15.2-.2 16.1 0 17l5 12.3c.1.4.5.7.9.9l24.5 9.8h.6c.6 0 1.3-.4 1.6-1.1l7.2-18v-1.3zM12.8 7.2c3.3-3.9 8.3-5 11-2.8a5.6 5.6 0 011.6 3.7c0 1.5-.3 3.1-1 4.8l-10-4c-.3-.1-.9 0-1.3.1l-2.3 1.1c.5-1 1.2-2 2-3zm17.4 29l-22.3-9-4-10 10-4.9 8.5 3.4c-3.3 3.9-8.3 5-11 2.7-.7-.6-1.8-.5-2.4.1-.5.7-.5 1.8.2 2.4 1.5 1.3 3.5 2 5.6 2a14 14 0 0010-5c.3-.3.6-.5.8-.9l10.5 4.2-6 15z" fill="#E0E0E0"/></svg>