<svg width="40" height="40" fill="none" xmlns="http://www.w3.org/2000/svg"><path d="M38.3 6.6a1.7 1.7 0 00-2.5-1.4c-1 .5-2 1-3.1 1.3a8.7 8.7 0 00-14.3 6.4C13.9 12 9.8 9.7 7 6.2a1.7 1.7 0 00-2.2-.4l-.5.6a8.8 8.8 0 00-.4 8A1.7 1.7 0 003 16v.7c.2 2 1.2 4 2.7 5.5a1.7 1.7 0 00-.1 1.3c.6 2 2 3.8 4 4.9-2 .7-4 1-6 .7a1.7 1.7 0 00-1.2 3A21.6 21.6 0 0035.8 14v-.3a9.6 9.6 0 002.5-7zm-5.5 5.3c-.3.4-.4.8-.4 1.2v.8a18 18 0 01-.7 5.2A17.8 17.8 0 0114 32.3c-1.4 0-2.9-.2-4.2-.5 1.7-.6 3.4-1.5 4.9-2.6a1.7 1.7 0 00-1-3c-1.4 0-2.8-.6-3.7-1.6l.7-.1a1.7 1.7 0 00-.1-3.3 5.3 5.3 0 01-3.8-2.9l1 .1a1.7 1.7 0 001.6-1.1 1.7 1.7 0 00-.7-2 5.3 5.3 0 01-2.4-4.7C10.2 14 15 16 20.1 16.4a1.7 1.7 0 001.4-.6 1.7 1.7 0 00.3-1.5 5.3 5.3 0 011.5-5 5.4 5.4 0 017.7.1 1.7 1.7 0 001.5.5l2-.5c-.4 1-1 1.8-1.7 2.5z" fill="#fff"/></svg>