<svg width="0" height="0" class="hidden">
  <symbol fill="none" xmlns="http://www.w3.org/2000/svg" viewBox="0 0 20 20" id="phone">
    <path fill-rule="evenodd" clip-rule="evenodd" d="M11.7 1.7a.8.8 0 110-1.7C16.3 0 20 3.7 20 8.3a.8.8 0 11-1.7 0c0-3.6-3-6.6-6.6-6.6zm1.9 10.2l-2 2-5.4-5.6L8 6.4c.3-.3.3-.8 0-1.2L3.9 1.1a.8.8 0 00-1.2 0L.2 3.6l-.2.6C0 12.9 7 20 15.8 20c.3 0 .5 0 .6-.2l2.5-2.5c.3-.4.3-.9 0-1.2l-4.1-4.2a.8.8 0 00-1.2 0zM11 15.6c.3.3.8.3 1.2 0l1.9-2 3 3-1.7 1.7A14.2 14.2 0 011.7 4.5l1.6-1.7 3 3-1.9 2c-.3.3-.3.8 0 1.1l6.7 6.7zm-.3-11.4c0 .4.4.8.9.8C13.5 5 15 6.5 15 8.3a.8.8 0 101.7 0 5 5 0 00-5-5c-.5 0-.9.4-.9.9z" fill="#0096FF"></path>
  </symbol>
  <symbol fill="none" xmlns="http://www.w3.org/2000/svg" viewBox="0 0 20 20" id="stopwatch">
    <path fill-rule="evenodd" clip-rule="evenodd" d="M7.6 1.8a.9.9 0 01-.8-.9c0-.5.3-.9.8-.9H10c-.5 0-.9.4-.9 1v.7H7.6zm3.3 0c0 .5-.4.8-.9.8a.9.9 0 01-.9-.8H11zm0 0v-1c0-.5-.4-.9-.9-.9h2.4c.5 0 .8.4.8 1 0 .4-.3.8-.8.8h-1.5zM10 20c-4.4 0-8-3.7-8-8.3C2 7 5.6 3.3 10 3.3s8 3.7 8 8.4c0 4.6-3.6 8.3-8 8.3zm3.2-9.3c.4 0 .8.5.8 1s-.4.9-.8.9H10a.9.9 0 01-.9-1V8.4c0-.5.4-.9.9-.9s.9.4.9 1v2.3h2.3zm3 1c0 3.6-2.7 6.5-6.2 6.5s-6.3-3-6.3-6.5C3.7 8 6.5 5 10 5s6.3 3 6.3 6.6z" fill="#0096FF"></path>
  </symbol>
  <symbol fill="none" xmlns="http://www.w3.org/2000/svg" viewBox="0 0 88 88" id="testing">
    <path d="M52.2 63.3c-2-2.1-5.5-2.1-7.6 0l-4.9 4.9-.4.1A24 24 0 0120 49l.1-.4 5-4.9c2-2 2-5.5 0-7.6l-7.2-7c-2-2.2-5.4-2.2-7.5 0l-5.6 5.5c-3.9 3.9-5.2 9.8-3.4 15a60.5 60.5 0 0027.2 32.7 1.3 1.3 0 101.3-2.2A58 58 0 013.8 48.7a12 12 0 012.8-12.3l5.6-5.6c1-1 2.9-1 4 0l7 7.1c1.1 1.1 1.1 2.9 0 4l-4.9 5a3 3 0 00-.8 2.5 26.5 26.5 0 0021.4 21.4c1 .2 2-.1 2.6-.8l5-5c1-1 2.8-1 3.9 0l7 7.2c1.2 1 1.2 2.9 0 4L52 81.6a12 12 0 01-12.3 2.8L35 82.7a1.3 1.3 0 00-1 2.4c1.5.6 3 1.3 4.6 1.8 5.2 1.8 11.1.5 15-3.4l5.6-5.6c2-2 2-5.5 0-7.5l-7.1-7.1zM80.7 7C75 1.6 66.7-.6 59 1.6a1.3 1.3 0 10.7 2.4A20.2 20.2 0 0185 23.2a19.9 19.9 0 01-17.2 20c-4.2.6-8.6-.2-12.3-2.2-.5-.3-1.2-.4-1.8-.2L44.4 44l3.1-9.3c.2-.6.1-1.2-.2-1.8a20.2 20.2 0 017.2-26.6 1.3 1.3 0 10-1.3-2.1A22.5 22.5 0 0045 33.9l-3.2 9.7c-.3.9 0 1.8.6 2.4.6.6 1.5.8 2.3.5l9.7-3.2a22.8 22.8 0 0026.6-4 22.4 22.4 0 00-.3-32.2zm-14 3.7h-3.4c-1.4 0-2.4 1.1-2.4 2.5v5.9h-6c-1.3 0-2.4 1-2.4 2.4V25c0 1.4 1.1 2.5 2.4 2.5h6v5.9c0 1.3 1 2.4 2.4 2.4h3.4c1.4 0 2.5-1 2.5-2.4v-6H75c1.3 0 2.4-1 2.4-2.4v-3.4c0-1.3-1-2.4-2.4-2.4h-6v-6c0-1.3-1-2.4-2.4-2.4zm8.3 11v3.1h-6.5c-1 0-1.9.9-1.9 1.9v6.5h-3.2v-6.5c0-1-.8-1.9-1.8-1.9H55v-3.2h6.5c1 0 1.8-.8 1.8-1.8v-6.5h3.2v6.5c0 1 .8 1.8 1.9 1.8H75z" fill="#fff"></path>
  </symbol>
  <symbol fill="none" xmlns="http://www.w3.org/2000/svg" viewBox="0 0 81 81" id="tools">
    <g clip-path="url(#clip0)" fill="#fff">
      <path d="M68.8 16.5H57.2v-6.1a8 8 0 00-8-8h-17a8 8 0 00-8 8v6.1H12.6a12 12 0 00-12 12v37.3a12 12 0 0012 12h56.2a12 12 0 0012-12V28.4a12 12 0 00-12-11.9zm-40-6.1c0-1.9 1.6-3.3 3.4-3.3h17c1.9 0 3.3 1.4 3.3 3.3v6.1H29v-6.1zM5.5 65.8V28.4c0-3.1 2-5.8 4.9-6.8v51a7.2 7.2 0 01-5-6.8zM15 73V21.2h51.5V73H15zm61-7.2c0 3.2-2 5.8-4.8 6.8v-51c2.8 1 4.9 3.7 4.9 6.8v37.4z"></path>
      <path d="M54.8 40h-7v-7c0-1.3-1-2.4-2.4-2.4H36c-1.3 0-2.3 1-2.3 2.4v7h-7.1c-1.3 0-2.4 1.1-2.4 2.4v9.4c0 1.3 1 2.4 2.4 2.4h7v7c0 1.3 1.1 2.4 2.4 2.4h9.4c1.3 0 2.4-1 2.4-2.4v-7h7c1.3 0 2.4-1 2.4-2.4v-9.4c0-1.3-1-2.4-2.4-2.4zm-2.3 9.5h-7c-1.4 0-2.4 1-2.4 2.3v7h-4.7v-7c0-1.3-1.1-2.3-2.4-2.3h-7v-4.8h7c1.3 0 2.4-1 2.4-2.3v-7H43v7c0 1.3 1 2.3 2.3 2.3h7.1v4.8z"></path>
    </g>
    <defs>
      <clipPath id="clip0">
        <path fill="#fff" transform="translate(.7)" d="M0 0h80v80H0z"></path>
      </clipPath>
    </defs>
  </symbol>
  <symbol fill="" xmlns="http://www.w3.org/2000/svg" viewBox="0 0 16 14" id="twitter">
    <path fill-rule="evenodd" clip-rule="evenodd" d="M7.5 4v.6L7 4.5c-2-.3-3.8-1.2-5.3-2.6L.9 1l-.2.6C.3 2.9.6 4.2 1.4 5c.5.5.4.6-.4.3l-.5-.1.4 1.5c.3.5.9 1 1.5 1.4l.6.3h-.7c-.6 0-.6 0-.6.2.3.8 1.1 1.6 2.1 1.9l.7.2-.6.4c-.9.5-2 .8-3 .8L0 12a9.5 9.5 0 009.5.2A9.8 9.8 0 0014 4.4c0-.5 0-.6.6-1.2l.8-.9c.1-.2.1-.2-.4 0-1 .3-1.1.3-.7-.2.4-.4.8-1 .8-1.2l-.3.1-1 .4-.6.2-.6-.4-1-.5c-.5-.2-1.4-.1-1.9 0A3.2 3.2 0 007.5 4z" ></path>
  </symbol>
  <symbol fill="" xmlns="http://www.w3.org/2000/svg" viewBox="0 0 18 13" id="youtube">
    <path fill-rule="evenodd" clip-rule="evenodd" d="M15.7.5c.7.2 1.3.8 1.5 1.5.3 1.4.3 4.3.3 4.3s0 2.8-.3 4.2c-.2.7-.8 1.3-1.5 1.5-1.4.4-6.7.4-6.7.4s-5.3 0-6.7-.4c-.7-.2-1.3-.8-1.5-1.5C.5 9 .5 6.3.5 6.3S.5 3.4.8 2C1 1.3 1.6.7 2.3.5 3.7.1 9 .1 9 .1s5.3 0 6.7.4zM7.4 3.9v5.3l4.3-2.7L7.4 4z" ></path>
  </symbol>
  <symbol fill="" xmlns="http://www.w3.org/2000/svg" viewBox="0 0 13 10" id="youtube-footer">
    <path d="M8.4 4.3l-3-1.8H5l-.2.3v3.5l.2.3a.4.4 0 00.4 0l3-1.7.1-.3-.1-.3zM5.6 5.7V3.4l1.9 1.2-2 1z" ></path>
    <path d="M10.8 0h-9C.8 0 0 .8 0 1.8v5.6C0 8.4.8 9 1.8 9h9c1 0 1.8-.8 1.8-1.7V1.8c0-1-.8-1.8-1.8-1.8zm1 7.4c0 .5-.4 1-1 1h-9a1 1 0 01-1-1V1.8c0-.6.4-1.1 1-1.1h9a1 1 0 011 1v5.7z"></path>
  </symbol>
  <symbol fill="" xmlns="http://www.w3.org/2000/svg" viewBox="0 0 10 10" id="gmail">
    <path d="M5 3.8v1.9h2.8A3 3 0 015 7.6a3 3 0 01-3-2.9A3 3 0 015 2a3 3 0 012 .7l1.3-1.4C7.3.4 6.2 0 5 0 2.2 0 0 2.1 0 4.7c0 2.7 2.2 4.8 5 4.8s5-2.1 5-4.8v-1H5z"></path>
  </symbol>
  <symbol fill="none" xmlns="http://www.w3.org/2000/svg" viewBox="0 0 20 20" id="address">
    <path fill-rule="evenodd" clip-rule="evenodd" d="M16.7 6.7c0 1.1-.4 2.4-1.2 3.8a23.8 23.8 0 01-4 5.2 36.6 36.6 0 01-.9 1 1 1 0 01-1.2 0 19 19 0 01-1-1 38.5 38.5 0 01-3.9-5.2 8.1 8.1 0 01-1.2-3.8C3.3 2.7 6.4 0 10 0s6.7 2.8 6.7 6.7zm-6.5 7.8A36.7 36.7 0 0014 9.6c.6-1.2 1-2.2 1-3 0-2.8-2.3-4.8-4.9-4.8-2.6 0-4.9 2-4.9 4.9 0 .7.4 1.7 1 2.9a22 22 0 003.7 5l.2.2.2-.3zM7.4 6.7a2.6 2.6 0 105.2 0 2.6 2.6 0 00-5.2 0zm2.6.7A.7.7 0 1010 6a.7.7 0 000 1.4zm4 7c0 .5.3 1 .8 1 1.2.2 2.1.5 2.8.8a3.2 3.2 0 01.6.4c0 .6-3.7 1.6-8.2 1.6-4.5 0-8.2-1-8.2-1.6l.6-.4c.7-.3 1.6-.6 2.8-.8a1 1 0 10-.3-1.8c-3 .6-4.9 1.5-4.9 3C0 18.8 4.4 20 10 20s10-1.2 10-3.4c0-1.5-1.9-2.4-4.9-3a1 1 0 00-1 .8z" fill="#0096FF"></path>
  </symbol>
  <symbol fill="" xmlns="http://www.w3.org/2000/svg" viewBox="0 0 16 10" id="arrow">
    <path d="M10.2 1.5a.7.7 0 111-1l4 4c.2.3.2.7 0 1l-4 4a.7.7 0 11-1-1l2.9-2.8H1.3A.7.7 0 01.7 5c0-.4.3-.7.6-.7h11.8l-2.9-2.8z" ></path>
  </symbol>
  <symbol fill="none" xmlns="http://www.w3.org/2000/svg" viewBox="0 0 85 89" id="care">
    <g clip-path="url(#clip0)">
      <path d="M27.6 57.3v8c0 13 9.9 23.6 22 23.6s22-10.6 22-23.5v-2.9c5.6-1.2 9.8-6.4 9.8-12.7 0-7.1-5.5-13-12.2-13-6.8 0-12.3 5.9-12.3 13 0 6.3 4.3 11.5 9.8 12.7v2.9c0 10-7.7 18.3-17.1 18.3-9.4 0-17.1-8.3-17.1-18.3v-8c10-2 21.5-15.2 23.5-27.7 1.3-8.2-2-14.8-8.8-18V8c0-4.3-3.3-7.8-7.4-7.8-4 0-7.3 3.5-7.3 7.8s3.3 7.8 7.3 7.8h4.4c5.6 2.2 8 6.7 7 13C49.4 39.5 38 52.3 30 52.3c-8.9 0-21.3-15-21.3-26.1 0-5 2.4-8.5 7.1-10.4h4.4c4 0 7.4-3.5 7.4-7.8S24.3.3 20.2.3c-4 0-7.3 3.5-7.3 7.8v3.5c-5.9 2.8-9.2 8-9.1 14.7 0 13 12.7 28.8 23.8 31zm39.1-10h5v5.1h-5v-5.2z" fill="#fff"></path>
    </g>
    <defs>
      <clipPath id="clip0">
        <path fill="#fff" transform="translate(.8 .3)" d="M0 0h83.5v88.6H0z"></path>
      </clipPath>
    </defs>
  </symbol>
  <symbol fill="none" xmlns="http://www.w3.org/2000/svg" viewBox="0 0 12 12" id="comments">
    <path fill-rule="evenodd" clip-rule="evenodd" d="M2 7.7H.5c-.3 0-.5-.3-.5-.5v-6C0 .7.2.5.5.5h9c.3 0 .5.2.5.5v6c0 .3-.2.6-.5.6H6.2L2.8 9.9c-.3.2-.8 0-.8-.4V7.7zM11 3c0-.3.2-.5.5-.5s.5.2.5.5v6c0 .3-.2.5-.5.5H10V11c0 .4-.5.6-.8.4L6.3 9.5H6c-.3 0-.5-.2-.5-.5s.2-.5.5-.5h.5l.3.1 2.1 1.3V9c0-.3.3-.5.6-.5h1.4V3zM1 1.6h8v5H6l-.3.1L3 8.5V7.2c0-.3-.3-.5-.6-.5H1.1v-5z" fill="#2296F9"></path>
  </symbol>
  <symbol fill="none" xmlns="http://www.w3.org/2000/svg" viewBox="0 0 81 86" id="experts">
    <g clip-path="url(#clip0)">
      <path d="M76.8 80.8l-3.5-22c-.4-2.4-2-4.3-4.2-5l-9.5-3c-.2-2.5-1.2-4.8-2.8-6.7a10.6 10.6 0 00-4.6-3.1 20.4 20.4 0 004.6-9.8h.8c1.9 0 3.4-1.7 3.4-3.7v-2c0-1.3-.7-2.5-1.8-3.1v-4.6c0-.7-.5-1.2-1.1-1.2-.7 0-1.2.5-1.2 1.2V23a7 7 0 00-2.1.8v-10c0-2.8-2.1-5-4.7-5h-3.3c-1 0-2.2.3-3 1.1l-.4.3c-.5.5-1.3.8-2 .8-.8 0-1.5-.3-2.1-.8l-.3-.3c-.9-.8-2-1.2-3-1.2h-3.3c-2.6 0-4.8 2.3-4.8 5v10a5.8 5.8 0 00-.5-.2 7 7 0 00-1.6-.5V10c0-4 3.1-7.3 7-7.3H50c3.8 0 7 3.3 7 7.3v2c0 .7.5 1.2 1.2 1.2.6 0 1.1-.5 1.1-1.2v-2c0-5.4-4.1-9.8-9.2-9.8H32.7c-5 0-9.2 4.4-9.2 9.8v12.4c-1 .6-1.8 1.8-1.8 3.2v1.9c0 2 1.6 3.7 3.5 3.7h.7a20.3 20.3 0 004.6 9.8c-4 1.3-7 5.2-7.4 9.8l-9.5 3a6.2 6.2 0 00-4.1 5l-1.5 9c0 .6.3 1.3 1 1.4.6 0 1.2-.4 1.3-1l1.5-9a3.7 3.7 0 012.5-3l8.8-2.8v2.5a6 6 0 00-4.4 3.9c-.2.5-.4 1-.4 1.7L17.4 73c0 .9.3 1.7.8 2.4a3 3 0 002.2 1H22c.6 0 1.2-.6 1.2-1.2 0-.7-.6-1.3-1.2-1.3h-1.5c-.2 0-.3 0-.4-.2a.7.7 0 01-.2-.5l.8-11.6c0-.4.1-.7.3-1a3.6 3.6 0 013.3-2.5h.2c1.4 0 2.7 1 3.3 2.3l.2 1.2.9 11.6c0 .2 0 .4-.2.5l-.4.2h-1.5c-.7 0-1.2.6-1.2 1.3 0 .6.5 1.2 1.2 1.2h1.5a3 3 0 002.1-1c.6-.7.9-1.5.8-2.4l-.8-11.6c0-.7-.2-1.4-.5-2-.8-2-2.4-3.3-4.3-3.7v-3.2l4-1.2 2.5 6.4a1076 1076 0 018.3 22.7c.1.5.6.8 1 .8.6 0 1-.3 1.2-.8a1677.2 1677.2 0 0110.8-29.1l4 1.2V60c-2.8.6-5 3.2-5 6.3 0 3.6 2.8 6.4 6.1 6.4 3.4 0 6.1-2.8 6.1-6.4 0-3.1-2.1-5.7-4.9-6.3v-6.6l8.9 2.8c1.3.4 2.2 1.6 2.5 3l3.5 22c0 .4 0 .7-.3 1-.2.3-.5.5-.8.5h-64c-.4 0-.7-.2-1-.5l-.2-1L9.4 74c.1-.7-.3-1.4-1-1.5-.6 0-1.2.4-1.3 1l-1.2 7.3c-.2 1 .1 2.2.8 3 .7.9 1.6 1.4 2.7 1.4h64c1 0 2-.5 2.6-1.4.7-.8 1-2 .8-3zM57 25.5l1.1-.2.6-.1.1.4v1.9c0 .6-.5 1.2-1.1 1.2H57v-3.2zm-31 3.2h-.7c-.7 0-1.2-.6-1.2-1.2v-2l.1-.3.6.1 1.1.2v3.2zm2.3 1.4v-3.3h1c.7-.3 1-1 1-1.7V13.7c0-1.4 1.2-2.6 2.5-2.6H36c.6 0 1.1.2 1.6.6l.3.3c1 .9 2.3 1.3 3.6 1.3 1.3 0 2.5-.4 3.5-1.3l.3-.3c.5-.4 1-.6 1.6-.6h3.3c1.3 0 2.4 1.2 2.4 2.6V25c0 .7.3 1.4 1 1.6a1.6 1.6 0 001 .1V30c0 1.8-1.1 5.3-3.3 8.3a16 16 0 01-3 3 11 11 0 01-13.8 0A16.6 16.6 0 0128.2 30zM49 50l-7.6 6.2-7.7-6.1c.7-1 1.2-2.4 1.2-3.6v-2a13 13 0 0013 0v2c0 1.2.4 2.5 1.1 3.6zm-17.3-1.3a3 3 0 00-2-.1l-4 1.3a8.6 8.6 0 016.8-7v3.6c0 .8-.3 1.6-.8 2.2zm3.2 10a308 308 0 00-.2-.6l-.2-.5-.5-1.3v-.1l-.2-.4v-.1l-.1-.4-.3-.6v-.2l-.1-.2-.1-.3a11.7 11.7 0 01-.5-1.1l-.2-.5v-.2l6.5 5.2-2.7 1.3-1.2.5-.2-.5zm2.8 7.6a1335.1 1335.1 0 00-1.7-4.8l.4-.2 1.8 2.2-.5 2.8zm3.7 10l-.1-.1-2-5.5 1.1-6.3h2l1 6.3-2 5.7zM42.8 62H40l-1.3-1.6 2.7-1.2 2.7 1.2-1.3 1.6zm3 2.5l-.8 1.9-.5-2.8 1.8-2.2.5.2-1 2.9zm4.4-12l-.2.5-.2.5-.2.5v.2l-.1.2-.1.2-.3.7v.1l-.2.4v.1l-.1.4-.6 1.4-.2.5-.2.5-.2.6-1.1-.5-2.8-1.3 6.6-5.2v.2zm2.9-3.8a3 3 0 00-2.1 0c-.5-.5-.8-1.3-.8-2V43c3.5.6 6.2 3.4 7 7L53 48.7zm9 17.6c0 2.2-1.6 4-3.7 4-2 0-3.7-1.8-3.7-4s1.7-4 3.7-4 3.8 1.8 3.8 4z" fill="#fff"></path>
    </g>
    <defs>
      <clipPath id="clip0">
        <path fill="#fff" transform="translate(.3 .2)" d="M0 0h80v84.9H0z"></path>
      </clipPath>
    </defs>
  </symbol>
  <symbol fill="" xmlns="http://www.w3.org/2000/svg" viewBox="0 0 8 15" id="facebook">
    <path d="M6.5 2.5H8V0H5.9C3.8 0 2.3 1.2 2.3 3.5v2.1H0v2.7h2.3V15h2.9V8.3h2.2l.4-2.7H5.2V3.8c0-.8.2-1.3 1.3-1.3z"></path>
  </symbol>
  <symbol fill="" xmlns="http://www.w3.org/2000/svg" viewBox="0 0 18 18" id="instagram">
    <path fill-rule="evenodd" clip-rule="evenodd" d="M9 .5H5.5c-1 0-1.5.2-2 .4-.7.2-1.1.5-1.6 1s-.8 1-1 1.5l-.4 2a61.4 61.4 0 00.4 9.2c.2.6.5 1 1 1.5s1 .8 1.5 1l2 .4a60.5 60.5 0 009.2-.4c.6-.2 1-.5 1.5-1s.8-1 1-1.5l.4-2a61 61 0 00-.4-9.2c-.2-.6-.5-1-1-1.5s-1-.8-1.5-1l-2-.4H9zM8.2 2H9a59.7 59.7 0 015 .3l1 .7.7 1c0 .3.2.7.2 1.6a59.3 59.3 0 01-.2 8.4l-.7 1c-.3.3-.6.5-1 .6a59.4 59.4 0 01-10 0c-.4-.1-.7-.3-1-.6l-.7-1c0-.3-.2-.7-.2-1.6A59.7 59.7 0 012.3 4L3 3l1-.7c.3 0 .7-.2 1.6-.2L8.2 2zm5.4 1.4a1 1 0 100 2 1 1 0 000-2zM9 4.6a4.4 4.4 0 100 8.8 4.4 4.4 0 000-8.8zm0 1.6a2.8 2.8 0 110 5.6 2.8 2.8 0 010-5.6z" ></path>
  </symbol>
  <symbol fill="none" xmlns="http://www.w3.org/2000/svg" viewBox="0 0 17 17" id="instagram-specialists">
    <g clip-path="url(#clip0)" fill="#0096FF">
      <path d="M11.8 2.4H3.3c-1 0-1.8.8-1.8 1.7v8.5c0 1 .8 1.8 1.8 1.8h8.5c1 0 1.7-.8 1.7-1.8V4.1c0-1-.8-1.7-1.7-1.7zm-4.2 9.1a3.2 3.2 0 110-6.3 3.2 3.2 0 010 6.3zM11 6a1 1 0 110-2.1 1 1 0 010 2z"></path>
      <path d="M11 4.5a.4.4 0 100 .7.4.4 0 000-.7zM7.6 5.9a2.5 2.5 0 100 5 2.5 2.5 0 000-5z"></path>
    </g>
    <defs>
      <clipPath id="clip0">
        <path fill="#fff" transform="translate(1.5 2.4)" d="M0 0h12v12H0z"></path>
      </clipPath>
    </defs>
  </symbol>
  <symbol fill="none" xmlns="http://www.w3.org/2000/svg" viewBox="0 0 12 12" id="like">
    <path fill-rule="evenodd" clip-rule="evenodd" d="M11 6.7a3.9 3.9 0 000-5.3 3.4 3.4 0 00-5 0 3.4 3.4 0 00-5 0 3.9 3.9 0 000 5.3l4.6 4.8c.2.3.6.3.8 0L11 6.7zm-.8-.8L6 10.3 1.8 5.9c-1-1-1-2.7 0-3.7a2.3 2.3 0 013.7.4c.3.4.7.4 1 0l.3-.4c1-1 2.4-1 3.4 0s1 2.6 0 3.7z" fill="#2296F9"></path>
  </symbol>
  <symbol fill="" xmlns="http://www.w3.org/2000/svg" viewBox="0 0 146 29" id="logo">
    <path fill-rule="evenodd" clip-rule="evenodd" d="M124 20c2.5 0 4.5-2.7 4.5-6V6h2v8c0 4.4-3 8-6.5 8s-6.4-3.6-6.4-8V6h2v8c0 3.4 2 6 4.4 6zm-48.2 2h-2v-1.4a8 8 0 111.6-11.8L74 10.1a6 6 0 10-4.5 10c1.7 0 3.3-.7 4.4-2h-5.4v-2h7.3v6zM42 6.2h-2v16h8v-2h-6V6zm12.2 12a6 6 0 100-12 6 6 0 000 12zm0-2a4 4 0 100-8 4 4 0 000 8zm4 6v-2h-8v2h8zm31-10a6 6 0 10-12 0 6 6 0 0012 0zm-6 4a4 4 0 10-4-4 4 4 0 004 4zm4 6v-2h-8v2h8zm4.1-16h2v16h-2V6zm6.8 0h-2v16h2v-4h.3a6 6 0 100-12h-.3zm0 2zm0 0h.3a4 4 0 110 8h-.3V8zm14.4-.8zm-2.8-1.1c1 0 2 .4 2.8 1.1l-1.5 1a2 2 0 00-3.3 1.2v.1c0 1 .6 1.5 1.8 1.6 4.6.3 6.7 2.4 6.7 5.3v.1a5.9 5.9 0 01-10.2 3.5l1.5-1.2c.8.8 1.8 1.2 2.8 1.1 2 .1 3.8-1.4 4-3.4v-.1c0-2.7-2.7-3.2-5-3.4-2-.2-3.5-1.5-3.5-3.4.1-2.1 1.8-3.7 3.9-3.6zM143.8 22h2V6.1l-6.6 8.7-6.6-8.7v16h2V12l4.6 6 4.6-6v10z" fill="#000"></path>
    <path d="M27.2 2.7A7.9 7.9 0 0021.3 0c-1.8 0-3.7 1-5.1 1.8l-1.4.7c-.3 0-1-.4-1.5-.7C12 1.1 10 0 8.2 0c-2.3 0-4.4 1-6 2.7a9 9 0 00-2.2 6A33.9 33.9 0 005.8 26c1 1.5 2 2.2 2.7 2.2.4 0 1-.1 1.4-1.1l1-3.3c.9-3.2 2-7.1 3.8-7.1h.1c.8 0 1.5.7 2.2 2 .7 1.4 1.2 3.3 1.6 5a47 47 0 001 3.4c.4 1 1 1.1 1.4 1.1.8 0 1.7-.7 2.7-2.3a34 34 0 005.8-17.2 9 9 0 00-2.3-6zM20.8 5s-2-.1-3.6-.6c-.8-.2-1.7-.6-1.7-.7l1.3-.8c1.3-.7 3-1.7 4.5-1.7 4.4 0 7 3.8 7 7.5a33.2 33.2 0 01-5.6 16.6c-1 1.3-1.5 1.7-1.7 1.7-.1 0-.2-.1-.2-.4-.4-.9-.7-2-1-3.1-.5-1.9-1-3.8-1.7-5.3-1-1.8-2-2.7-3.3-2.7h-.1c-1.3 0-2.3.9-3.2 2.7-.7 1.5-1.2 3.4-1.8 5.2-.3 1.2-.6 2.3-1 3.2 0 .3 0 .4-.2.4 0 0-.6 0-1.7-1.7A33.2 33.2 0 011.2 8.7c0-3.7 2.6-7.5 7-7.5a8 8 0 014 1.4l.7.5a39.4 39.4 0 001.6 1.1l.8.4a8.8 8.8 0 005.5.5h.1l-.1-.1z" ></path>
  </symbol>
  <symbol fill="" xmlns="http://www.w3.org/2000/svg" viewBox="0 0 146 29" id="logo-footer">
    <path fill-rule="evenodd" clip-rule="evenodd" d="M124 20c2.5 0 4.5-2.7 4.5-6V6h2v8c0 4.4-3 8-6.5 8s-6.4-3.6-6.4-8V6h2v8c0 3.4 2 6 4.4 6zm-48.2 2h-2v-1.4a8 8 0 111.6-11.8L74 10.1a6 6 0 10-4.5 10c1.7 0 3.3-.7 4.4-2h-5.4v-2h7.3v6zM42 6.2h-2v16h8v-2h-6V6zm12.2 12a6 6 0 100-12 6 6 0 000 12zm0-2a4 4 0 100-8 4 4 0 000 8zm4 6v-2h-8v2h8zm31-10a6 6 0 10-12 0 6 6 0 0012 0zm-6 4a4 4 0 10-4-4 4 4 0 004 4zm4 6v-2h-8v2h8zm4.1-16h2v16h-2V6zm6.8 0h-2v16h2v-4h.3a6 6 0 100-12h-.3zm0 2zm0 0h.3a4 4 0 110 8h-.3V8zm14.4-.8zm-2.8-1.1c1 0 2 .4 2.8 1.1l-1.5 1a2 2 0 00-3.3 1.2v.1c0 1 .6 1.5 1.8 1.6 4.6.3 6.7 2.4 6.7 5.3v.1a5.9 5.9 0 01-10.2 3.5l1.5-1.2c.8.8 1.8 1.2 2.8 1.1 2 .1 3.8-1.4 4-3.4v-.1c0-2.7-2.7-3.2-5-3.4-2-.2-3.5-1.5-3.5-3.4.1-2.1 1.8-3.7 3.9-3.6zM143.8 22h2V6.1l-6.6 8.7-6.6-8.7v16h2V12l4.6 6 4.6-6v10z" fill="#fff"></path>
    <path d="M27.2 2.7A7.9 7.9 0 0021.3 0c-1.8 0-3.7 1-5.1 1.8l-1.4.7c-.3 0-1-.4-1.5-.7C12 1.1 10 0 8.2 0c-2.3 0-4.4 1-6 2.7a9 9 0 00-2.2 6A33.9 33.9 0 005.8 26c1 1.5 2 2.2 2.7 2.2.4 0 1-.1 1.4-1.1l1-3.3c.9-3.2 2-7.1 3.8-7.1h.1c.8 0 1.5.7 2.2 2 .7 1.4 1.2 3.3 1.6 5a47 47 0 001 3.4c.4 1 1 1.1 1.4 1.1.8 0 1.7-.7 2.7-2.3a34 34 0 005.8-17.2 9 9 0 00-2.3-6zM20.8 5s-2-.1-3.6-.6c-.8-.2-1.7-.6-1.7-.7l1.3-.8c1.3-.7 3-1.7 4.5-1.7 4.4 0 7 3.8 7 7.5a33.2 33.2 0 01-5.6 16.6c-1 1.3-1.5 1.7-1.7 1.7-.1 0-.2-.1-.2-.4-.4-.9-.7-2-1-3.1-.5-1.9-1-3.8-1.7-5.3-1-1.8-2-2.7-3.3-2.7h-.1c-1.3 0-2.3.9-3.2 2.7-.7 1.5-1.2 3.4-1.8 5.2-.3 1.2-.6 2.3-1 3.2 0 .3 0 .4-.2.4 0 0-.6 0-1.7-1.7A33.2 33.2 0 011.2 8.7c0-3.7 2.6-7.5 7-7.5a8 8 0 014 1.4l.7.5a39.4 39.4 0 001.6 1.1l.8.4a8.8 8.8 0 005.5.5h.1l-.1-.1z" ></path>
  </symbol>
</svg>