<svg viewBox="0 0 512 512" xmlns="http://www.w3.org/2000/svg"><path d="M4 440.5c55.6 5 105.7-9 151.3-43.2-47.7-4.2-79.6-28-97.4-72.6 15.6 1.9 30.2 2.4 45.7-1.8-51.4-16-78.8-49.6-82.5-103.8a111 111 0 0047 12.6c-30.5-22.9-46.1-52.6-45.5-90a97 97 0 0114-48.7C93.1 159.1 164 195.7 251.3 201.8l-1.2-9.9a103.7 103.7 0 0183.8-116.3c34.5-6.6 65 2.5 90.8 26.3 4 3.6 7.4 4.4 12.4 3.1a249.4 249.4 0 0057.7-22.5 108 108 0 01-41.5 55.8c4.5-.8 9.1-1.4 13.6-2.3a240.5 240.5 0 0027.4-7.5c4.5-1.5 9-3.2 14.3-4.1-2.6 3.6-5.1 7.4-7.9 10.9a233.1 233.1 0 01-39.7 39.1 7.9 7.9 0 00-2.7 5.6 297 297 0 01-15.7 103.7c-22.6 66.2-62 119.8-121.1 158.1a279.5 279.5 0 01-95.2 38.5 314.4 314.4 0 01-101.9 4.4c-34.2-4-66.7-14.1-97.3-29.9-8.1-4.1-15.9-8.7-23.8-13.1l.7-1.2z"/></svg>