<svg width="17" height="17" fill="none" xmlns="http://www.w3.org/2000/svg"><g clip-path="url(#clip0)" fill="#0096FF"><path d="M11.8 2.4H3.3c-1 0-1.8.8-1.8 1.7v8.5c0 1 .8 1.8 1.8 1.8h8.5c1 0 1.7-.8 1.7-1.8V4.1c0-1-.8-1.7-1.7-1.7zm-4.2 9.1a3.2 3.2 0 110-6.3 3.2 3.2 0 010 6.3zM11 6a1 1 0 110-2.1 1 1 0 010 2z"/><path d="M11 4.5a.4.4 0 100 .7.4.4 0 000-.7zM7.6 5.9a2.5 2.5 0 100 5 2.5 2.5 0 000-5z"/></g><defs><clipPath id="clip0"><path fill="#fff" transform="translate(1.5 2.4)" d="M0 0h12v12H0z"/></clipPath></defs></svg>