<svg height="512" width="512" xmlns="http://www.w3.org/2000/svg" data-name="Layer 1"><path d="M476 284.5h-39.4V203a26 26 0 00-26-26H195a26 26 0 00-26 26v81.5h-39.4c-14.3 0-26 11.4-26 25.4v144.6a21.9 21.9 0 0043.9 0v-48.1H458v48a22 22 0 0044.1 0V309.9c0-14-11.6-25.4-26-25.4zM115.7 394.4v-17.9H490v17.9zM180.9 203a14 14 0 0114-14h215.7a14 14 0 0114 14v81.5h-14.3v-23.1c0-14-11.6-25.4-25.9-25.4h-48.5c-14.3 0-26 11.4-26 25.4v23h-14.3v-23c0-14-11.6-25.4-26-25.4h-48.4c-14.3 0-26 11.4-26 25.4v23H181zm141 81.5v-23.1a13.7 13.7 0 0114-13.4h48.5a13.7 13.7 0 0114 13.4v23zm-114.7 0v-23.1a13.7 13.7 0 0114-13.4h48.5a13.7 13.7 0 0114 13.4v23zm-77.7 12h346.6a13.7 13.7 0 0113.9 13.4v54.6H115.6V310a13.7 13.7 0 0113.9-13.4zm5.9 158a9.9 9.9 0 01-19.8 0v-48.1h19.8zM480 464a9.9 9.9 0 01-10-9.6v-48h20v48a9.9 9.9 0 01-10 9.6z"/><path d="M81.6 459.5H67.8V225.6h38.9a6.8 6.8 0 006.2-9.6l-24.2-53a6.8 6.8 0 00-6.3-4H41.1a6.8 6.8 0 00-6.2 4l-24.3 53a6.8 6.8 0 006.2 9.6h14.3v17.8a11 11 0 00-5.1 9.3 11.1 11.1 0 0022.2 0 11 11 0 00-5.1-9.3v-17.8h12.7v233.9h-14a6 6 0 000 12h39.8a6 6 0 000-12zM37.1 253.7a1 1 0 01-.9-1 1 1 0 01.1-.3 6.1 6.1 0 00.8 0 6 6 0 00.8 0 1 1 0 010 .3 1 1 0 01-.8 1zm7.3-82.8h34.7l19.5 42.7H25zM184.5 36a6 6 0 00-6 6v101.7a6 6 0 006 6H421a6 6 0 006-6V42a6 6 0 00-6-6zm139.2 101.7l-.8-1 28-23.5 26.2 24.5zm-91.2 0l38.8-38.3 36 38.3zm182.5 0h-20.4l-39.4-37a6 6 0 00-8-.1L314.7 128l-38.9-41.3a6 6 0 00-4.3-2 5.9 5.9 0 00-4.3 1.8l-51.7 51.2h-25V48H415z"/><path d="M314.8 103.8c11.3 0 20.4-9.8 20.4-21.8s-9.1-21.7-20.4-21.7S294.5 70 294.5 82s9.1 21.8 20.3 21.8zm0-31.5c4.7 0 8.4 4.3 8.4 9.7s-3.7 9.8-8.4 9.8-8.3-4.4-8.3-9.8 3.7-9.7 8.3-9.7z"/></svg>