<?xml version="1.0" standalone="no"?>
<!DOCTYPE svg PUBLIC "-//W3C//DTD SVG 20010904//EN"
 "http://www.w3.org/TR/2001/REC-SVG-20010904/DTD/svg10.dtd">
<svg version="1.0" xmlns="http://www.w3.org/2000/svg"
 width="960.000000pt" height="960.000000pt" viewBox="0 0 960.000000 960.000000"
 preserveAspectRatio="xMidYMid meet">
<metadata>
Created by potrace 1.14, written by Peter Selinger 2001-2017
</metadata>
<g transform="translate(0.000000,960.000000) scale(0.100000,-0.100000)"
fill="#000000" stroke="none">
<path d="M2418 9435 c-2 -1 -28 -5 -58 -8 -120 -13 -195 -23 -195 -27 0 -1
-13 -3 -30 -6 -37 -5 -70 -12 -70 -14 0 -1 -9 -3 -20 -4 -31 -5 -134 -33 -197
-55 -31 -11 -59 -17 -62 -14 -3 4 -6 2 -6 -3 0 -5 -8 -10 -17 -11 -10 -1 -49
-16 -88 -33 -38 -17 -71 -31 -72 -32 -20 -1 -43 -13 -43 -21 0 -6 -3 -8 -6 -5
-9 9 -206 -95 -291 -153 -23 -16 -46 -29 -52 -29 -6 0 -11 -4 -11 -10 0 -5 -6
-10 -14 -10 -8 0 -16 -3 -18 -7 -1 -5 -30 -28 -63 -52 -133 -98 -334 -287
-430 -406 -22 -27 -47 -56 -55 -65 -8 -8 -26 -32 -40 -53 -14 -20 -28 -37 -31
-37 -4 0 -12 -13 -19 -30 -7 -16 -16 -30 -21 -30 -5 0 -9 -6 -9 -14 0 -8 -4
-16 -8 -18 -10 -4 -122 -185 -122 -197 0 -5 -6 -16 -13 -23 -17 -18 -141 -281
-153 -323 -1 -5 -14 -38 -27 -72 -14 -35 -23 -63 -20 -63 3 0 1 -6 -4 -12 -9
-12 -19 -42 -29 -93 -2 -11 -8 -21 -14 -23 -6 -2 -8 -7 -6 -11 3 -4 -1 -32 -9
-62 -16 -56 -25 -100 -30 -134 -2 -11 -4 -20 -5 -20 -3 0 -14 -64 -26 -145 -3
-25 -8 -56 -10 -70 -14 -90 -19 -195 -18 -415 1 -206 8 -430 15 -430 1 0 5
-33 13 -120 6 -71 13 -128 21 -174 2 -14 7 -49 10 -77 3 -28 7 -59 9 -70 2
-10 7 -39 11 -64 4 -25 9 -54 11 -65 3 -11 7 -36 10 -55 7 -49 10 -61 33 -178
11 -56 23 -117 26 -135 3 -17 11 -50 17 -72 5 -22 12 -49 14 -60 3 -18 14 -69
29 -130 3 -11 7 -29 9 -40 3 -11 19 -74 36 -140 17 -66 32 -127 34 -135 2 -8
11 -41 21 -72 9 -31 18 -68 21 -82 2 -14 9 -38 15 -53 6 -16 13 -37 15 -48 5
-27 47 -165 96 -315 22 -69 41 -129 42 -135 1 -5 5 -16 9 -23 5 -6 6 -12 2
-12 -3 0 0 -10 7 -23 6 -12 13 -29 15 -38 2 -15 30 -93 124 -354 22 -60 64
-168 92 -240 28 -71 52 -132 53 -135 1 -7 14 -41 24 -65 10 -23 28 -65 76
-183 19 -46 43 -104 55 -130 161 -362 196 -438 316 -677 52 -104 99 -196 105
-202 6 -7 7 -13 2 -13 -5 0 -4 -4 1 -8 6 -4 17 -20 26 -37 9 -16 35 -64 57
-105 35 -66 115 -206 142 -250 5 -8 28 -46 52 -85 23 -38 46 -74 50 -80 5 -5
40 -59 80 -120 40 -60 77 -115 83 -122 5 -6 48 -62 95 -125 95 -126 305 -342
393 -403 79 -55 157 -96 212 -110 79 -22 172 -27 235 -13 33 7 87 33 130 62
91 60 157 153 216 307 20 52 37 99 38 104 13 51 20 72 29 83 5 6 6 12 2 12 -4
0 -2 7 5 15 7 9 10 18 7 22 -4 3 -3 11 2 17 4 6 16 38 26 71 9 33 21 69 26 80
5 11 11 31 13 45 2 14 9 39 16 55 7 17 14 41 16 55 3 14 12 45 20 70 9 25 17
52 19 60 2 8 13 47 25 87 12 39 23 80 25 90 2 10 4 18 5 18 1 0 3 7 5 15 2 8
22 80 45 160 24 80 44 152 45 160 1 8 5 22 9 30 3 8 21 69 40 135 19 66 41
141 49 168 9 26 16 51 16 55 3 13 62 206 77 252 17 48 23 69 24 73 0 1 13 40
30 87 17 47 38 108 46 135 9 28 19 55 22 60 4 6 7 13 8 18 1 4 3 9 4 12 1 3 3
8 5 13 2 8 12 35 25 67 156 397 297 649 449 803 90 90 108 104 181 142 81 41
209 57 290 37 19 -5 43 -8 52 -8 10 0 20 -4 23 -10 4 -5 12 -9 20 -9 29 0 134
-72 201 -137 71 -71 82 -84 124 -143 13 -19 30 -41 37 -48 6 -6 15 -21 18 -32
3 -11 10 -20 15 -20 5 0 10 -6 12 -13 2 -6 28 -57 58 -112 30 -55 55 -102 56
-105 0 -3 19 -45 42 -93 23 -49 42 -94 42 -101 0 -7 4 -16 8 -21 5 -6 18 -35
30 -65 12 -30 27 -68 33 -85 7 -16 13 -32 14 -35 6 -24 18 -59 27 -80 15 -35
23 -57 43 -120 9 -30 19 -62 22 -70 3 -8 7 -21 9 -29 1 -7 12 -41 23 -75 38
-112 140 -457 147 -496 2 -14 9 -36 14 -50 5 -14 11 -34 13 -45 2 -11 7 -27
10 -35 3 -8 9 -28 13 -45 4 -16 8 -32 9 -35 10 -34 28 -98 30 -110 2 -8 4 -15
5 -15 1 0 3 -9 6 -20 2 -11 19 -76 39 -145 19 -69 38 -136 40 -150 3 -14 9
-36 14 -50 5 -14 16 -52 26 -85 9 -33 23 -82 32 -110 8 -27 17 -61 20 -74 2
-13 8 -32 14 -43 5 -10 8 -18 5 -18 -3 0 2 -17 11 -37 8 -21 15 -39 14 -40 0
-2 -1 -4 0 -5 0 -2 2 -14 5 -27 2 -14 8 -29 13 -35 5 -6 12 -27 16 -46 4 -19
11 -39 15 -45 5 -5 8 -12 9 -15 0 -3 2 -12 5 -20 2 -8 12 -40 21 -70 18 -55
74 -176 100 -213 8 -11 34 -41 58 -66 131 -137 328 -163 512 -68 56 29 113 65
125 77 3 3 20 17 39 30 45 31 204 190 261 260 25 30 47 57 50 60 13 13 150
199 150 205 0 3 9 16 20 28 12 12 33 42 47 67 15 25 32 51 39 58 7 6 16 21 19
32 3 11 10 20 15 20 4 0 10 8 14 18 5 16 11 26 47 82 36 54 129 220 129 229 0
5 4 11 8 13 10 3 100 171 199 368 37 74 71 137 76 138 4 2 7 8 7 14 0 5 22 56
49 111 70 146 141 298 141 303 0 2 16 39 36 81 20 43 45 100 55 127 11 27 25
58 31 70 7 12 13 26 14 31 1 6 23 60 49 120 26 61 48 115 50 120 1 6 7 24 14
40 78 193 264 696 269 725 1 7 10 35 19 58 3 9 7 22 8 27 2 6 12 37 23 70 37
108 110 347 152 495 65 232 68 243 76 275 4 17 9 37 10 45 2 8 16 69 33 135
17 65 33 130 35 145 3 14 17 79 31 145 14 66 28 131 30 145 3 14 7 35 10 48
10 46 13 58 20 102 4 25 9 54 11 65 2 10 6 36 9 57 3 20 8 52 11 70 3 18 7 44
8 58 10 73 28 198 31 220 2 14 7 59 10 100 3 41 8 93 11 115 3 22 7 100 9 174
2 73 6 136 9 138 3 3 1 14 -5 24 -5 11 -6 19 -2 19 9 0 10 47 1 55 -3 3 -2 21
2 40 4 19 5 36 3 39 -3 3 -7 45 -9 93 -1 48 -5 102 -8 118 -3 17 -8 53 -11 81
-3 28 -8 61 -11 75 -2 13 -7 39 -9 56 -3 18 -10 54 -16 80 -6 27 -12 55 -14
63 -1 8 -8 35 -15 60 -7 25 -13 52 -15 61 -6 32 -63 207 -90 274 -64 166 -123
283 -246 494 -8 14 -22 34 -31 45 -10 11 -18 26 -18 33 0 7 -4 13 -8 13 -4 0
-15 13 -25 29 -64 108 -300 370 -440 488 -38 32 -81 68 -95 81 -86 73 -384
256 -460 283 -17 6 -32 15 -32 20 0 5 -7 9 -16 9 -8 0 -39 11 -67 24 -120 54
-363 128 -502 151 -16 3 -41 7 -55 10 -14 2 -43 7 -65 10 -22 2 -62 8 -90 12
-27 4 -142 7 -255 7 -184 0 -219 -3 -345 -28 -118 -23 -420 -113 -490 -146
-11 -5 -40 -17 -65 -28 -118 -49 -136 -57 -142 -67 -4 -5 -8 -7 -8 -3 0 6
-150 -62 -200 -92 -8 -4 -53 -28 -100 -51 -47 -24 -88 -48 -92 -53 -4 -6 -8
-7 -8 -2 0 5 -6 4 -13 -2 -14 -12 -141 -82 -197 -110 -19 -9 -37 -19 -40 -22
-3 -3 -34 -21 -70 -39 -99 -52 -105 -55 -111 -64 -3 -5 -9 -8 -13 -7 -5 1 -58
-23 -183 -82 -47 -23 -131 10 -407 161 -71 39 -133 71 -138 71 -4 0 -8 4 -8 8
0 5 -17 16 -37 25 -21 9 -67 32 -103 52 -90 51 -334 176 -395 202 -27 12 -101
44 -162 72 -62 27 -113 47 -113 45 0 -3 -13 2 -30 11 -16 8 -33 16 -37 16 -5
1 -19 6 -33 11 -14 5 -35 12 -47 14 -12 2 -35 9 -50 15 -16 6 -35 12 -43 14
-8 3 -42 12 -75 21 -33 9 -69 18 -80 19 -11 2 -31 6 -45 9 -14 4 -41 8 -60 11
-19 3 -46 8 -60 11 -25 6 -416 15 -422 9z m347 -389 c39 -4 89 -12 112 -17 24
-5 46 -8 50 -7 5 0 15 -1 23 -5 8 -3 47 -13 85 -22 62 -15 195 -56 235 -72 8
-4 18 -7 23 -8 4 -2 9 -4 12 -5 3 -1 8 -3 13 -4 4 -1 25 -10 47 -20 22 -9 54
-22 70 -29 70 -28 368 -182 390 -202 6 -5 29 -19 51 -30 21 -11 44 -24 50 -30
6 -5 23 -19 38 -30 15 -11 105 -78 200 -150 95 -71 213 -157 262 -190 49 -33
91 -62 94 -65 3 -3 16 -11 30 -19 14 -8 53 -32 87 -53 114 -70 247 -134 373
-180 130 -48 210 -73 223 -70 4 1 7 -3 7 -9 0 -5 3 -8 8 -6 4 3 41 -3 82 -14
41 -10 100 -23 130 -28 30 -6 71 -13 90 -16 19 -4 51 -8 70 -10 19 -2 35 -4
35 -5 0 -13 517 -18 636 -7 42 4 86 9 96 11 11 3 44 7 74 11 30 3 62 8 72 11
10 3 30 7 45 9 41 6 64 12 96 24 23 9 27 14 17 24 -6 6 -24 12 -39 13 -35 2
-199 14 -237 18 -150 16 -260 30 -400 52 -22 3 -53 8 -70 9 -26 3 -42 6 -105
20 -8 2 -17 4 -20 5 -3 1 -8 2 -12 1 -4 0 -58 11 -120 25 -173 39 -156 35
-233 58 -33 10 -64 19 -70 21 -35 8 -261 99 -310 125 -103 54 -111 64 -77 98
25 24 89 72 97 72 4 0 21 10 38 23 34 24 63 42 87 53 8 5 38 22 65 38 28 17
59 36 70 43 11 7 46 26 78 43 32 17 103 56 158 85 119 66 380 193 469 229 36
15 74 31 85 36 25 11 225 82 239 84 6 1 20 5 31 9 11 3 31 8 45 11 41 8 71 15
88 20 9 3 35 8 57 11 22 2 51 7 65 10 78 18 431 2 540 -25 19 -4 43 -8 53 -9
38 -2 47 -5 47 -13 0 -5 4 -7 9 -4 4 3 33 -1 62 -9 30 -9 61 -17 69 -19 26 -7
114 -37 135 -45 11 -5 36 -15 55 -22 113 -41 418 -212 428 -240 2 -5 9 -9 15
-9 7 0 28 -15 48 -33 20 -17 56 -48 80 -67 185 -149 404 -423 535 -670 16 -30
33 -58 39 -62 5 -4 7 -8 3 -8 -3 0 8 -30 26 -67 50 -103 129 -318 151 -413 1
-8 10 -42 19 -75 8 -33 18 -76 21 -95 3 -19 10 -59 16 -88 6 -29 12 -74 15
-100 2 -26 7 -78 11 -117 10 -107 4 -550 -7 -550 -1 0 -3 -25 -5 -55 -1 -30
-6 -80 -10 -110 -8 -58 -10 -76 -18 -150 -3 -25 -8 -56 -11 -70 -3 -14 -8 -45
-11 -70 -3 -25 -7 -56 -10 -70 -3 -14 -7 -38 -10 -55 -2 -16 -6 -40 -9 -51 -2
-12 -7 -38 -10 -58 -3 -19 -10 -55 -15 -78 -6 -24 -13 -59 -16 -78 -3 -19 -10
-51 -15 -70 -5 -19 -11 -48 -13 -65 -3 -16 -10 -50 -17 -75 -7 -25 -14 -56
-16 -70 -3 -14 -18 -79 -35 -145 -17 -66 -33 -127 -35 -135 -3 -13 -27 -103
-34 -128 -2 -4 -4 -11 -5 -17 -1 -5 -17 -59 -35 -120 -18 -60 -34 -117 -35
-125 -2 -8 -18 -60 -35 -115 -17 -55 -33 -107 -35 -115 -2 -8 -9 -28 -15 -45
-6 -16 -13 -37 -15 -45 -7 -31 -179 -527 -199 -575 -7 -16 -22 -55 -34 -85
-11 -30 -24 -64 -28 -75 -4 -11 -8 -22 -9 -25 -1 -3 -7 -17 -13 -31 -5 -14
-38 -95 -72 -180 -34 -85 -68 -167 -75 -184 -8 -16 -25 -58 -39 -92 -27 -66
-53 -123 -107 -238 -18 -38 -33 -72 -33 -75 -4 -22 -232 -479 -312 -626 -41
-76 -74 -140 -74 -143 0 -2 -6 -12 -14 -20 -7 -9 -27 -42 -45 -74 -31 -58
-159 -273 -173 -292 -5 -5 -47 -66 -95 -135 -141 -204 -263 -348 -389 -460
-72 -64 -152 -94 -178 -67 -14 14 -31 57 -28 70 1 4 -2 7 -8 7 -6 0 -9 3 -8 8
2 8 -9 47 -22 77 -8 19 -51 148 -56 170 -2 6 -19 64 -40 130 -20 66 -37 125
-38 132 -1 7 -5 16 -9 19 -4 4 -7 15 -7 24 0 9 -8 43 -19 76 -10 32 -28 97
-41 144 -12 47 -29 104 -36 127 -7 23 -15 52 -18 65 -2 13 -10 43 -17 68 -17
62 -16 58 -35 125 -9 33 -18 67 -19 75 -2 8 -4 16 -5 18 -3 2 -4 7 -14 47 -4
17 -14 53 -22 80 -8 28 -19 68 -25 90 -6 22 -15 49 -19 60 -7 20 -49 166 -55
195 -2 8 -20 67 -40 130 -20 63 -41 131 -47 150 -6 19 -16 51 -23 70 -7 19
-38 105 -69 190 -31 85 -61 171 -68 190 -7 19 -15 37 -18 40 -3 3 -16 32 -29
65 -40 100 -133 284 -196 389 -33 54 -67 110 -75 124 -8 15 -20 31 -26 37 -6
5 -24 28 -40 50 -62 85 -174 198 -265 266 -60 45 -219 126 -261 133 -15 3 -32
7 -37 10 -30 19 -310 29 -391 15 -172 -31 -350 -134 -498 -288 -62 -64 -193
-236 -226 -296 -9 -16 -25 -43 -36 -60 -10 -16 -34 -59 -52 -95 -18 -36 -37
-68 -41 -71 -5 -3 -9 -9 -8 -12 0 -4 -20 -50 -44 -102 -25 -53 -45 -99 -45
-102 0 -3 -12 -28 -26 -57 -14 -28 -25 -52 -24 -54 1 -2 -32 -93 -61 -167 -7
-16 -13 -34 -15 -40 -1 -5 -9 -27 -18 -47 -9 -21 -13 -38 -10 -38 4 0 1 -6 -5
-14 -7 -8 -14 -22 -16 -32 -2 -11 -22 -73 -43 -139 -45 -135 -113 -351 -117
-374 -2 -9 -4 -17 -5 -18 -2 -2 -3 -6 -4 -10 -2 -5 -8 -28 -16 -53 -7 -25 -15
-49 -16 -55 -2 -5 -17 -57 -34 -115 -18 -58 -33 -113 -33 -122 -1 -10 -4 -18
-7 -18 -3 0 -7 -12 -8 -26 -1 -14 -5 -31 -9 -37 -4 -7 -8 -16 -9 -22 -1 -5
-14 -53 -29 -105 -24 -87 -60 -213 -70 -250 -4 -14 -30 -102 -54 -177 -5 -18
-8 -33 -5 -33 2 0 -2 -13 -11 -30 -8 -16 -15 -32 -15 -35 2 -8 -29 -116 -39
-140 -11 -26 -43 -133 -42 -140 1 -3 -6 -19 -15 -37 -9 -17 -18 -40 -19 -52
-2 -12 -19 -61 -38 -111 -28 -74 -39 -91 -62 -101 -23 -9 -36 -8 -64 3 -117
49 -311 255 -501 533 -8 12 -27 40 -42 61 -34 47 -198 308 -198 314 0 2 -24
45 -54 95 -30 49 -52 90 -50 90 3 0 -3 12 -14 27 -21 31 -192 353 -197 373 -3
9 -165 344 -179 370 -8 14 -14 27 -14 30 1 3 -9 28 -22 55 -12 28 -29 66 -37
85 -8 19 -21 47 -29 61 -7 14 -11 29 -7 33 3 3 1 6 -5 6 -7 0 -12 8 -12 18 0
10 -4 22 -9 27 -4 6 -39 87 -76 180 -37 94 -73 184 -80 200 -16 38 -103 272
-145 390 -17 50 -35 99 -40 110 -5 11 -34 99 -65 195 -64 199 -70 217 -81 245
-4 11 -8 25 -8 30 -2 15 -27 96 -42 137 -7 20 -16 50 -19 65 -8 39 -13 58 -15
58 -1 0 -3 7 -5 15 -1 8 -19 74 -39 145 -20 72 -39 141 -41 153 -6 25 -6 27
-35 147 -11 50 -25 104 -30 120 -5 17 -11 47 -14 69 -4 21 -8 41 -10 45 -2 3
-7 24 -10 46 -4 22 -8 47 -11 55 -5 18 -15 67 -20 96 -1 11 -8 47 -15 79 -7
32 -13 68 -15 79 -2 19 -21 132 -40 251 -4 22 -9 58 -11 80 -2 22 -5 54 -8 70
-42 328 -50 704 -21 915 2 19 7 58 11 85 3 28 7 52 9 55 2 3 6 26 9 51 3 25
10 58 15 72 6 15 9 27 6 27 -2 0 0 12 5 28 5 15 18 61 30 102 12 41 24 82 27
90 4 8 7 17 8 20 1 3 4 12 8 20 3 8 14 40 25 70 42 116 121 278 190 395 70
116 190 285 204 285 4 0 8 5 8 10 0 6 13 24 30 40 16 16 30 32 30 35 0 6 163
167 197 195 55 46 133 107 153 120 12 8 28 20 34 25 34 29 216 132 317 178 78
36 154 67 179 72 3 1 42 13 88 28 45 15 95 29 110 32 29 5 61 12 102 21 14 3
39 7 55 10 17 2 42 6 57 9 14 2 73 7 130 11 56 4 104 7 105 8 5 4 154 -2 218
-8z"/>
</g>
</svg>
