<svg width="0" height="0" class="hidden">
  <symbol fill="none" xmlns="http://www.w3.org/2000/svg" viewBox="0 0 30 44" id="logo">
      <path d="M14.67 2.07L1.37 22l13.3 19.93L27.95 22 14.67 2.07zm0-2.07l14.66 22-14.66 22L0 22 14.67 0z" fill="#FFC22D"/>
      <path d="M10.68 16.85l-1.31 1.76-.55 5.58v-6.14l1.86-1.2zM14.12 11.48l-1.7 1.8-.58 2.7v-2.62l1.31-1.11v.06l.97-.83z" fill="#FFC22D"/>
      <path d="M6.4 24.19h2.42l-2.21.4-.94 1.81.73-2.21zM12.8 15.36v-1.62l1.87-1.43v1.8l-1.86 1.25zM13.56 26.25h-.58v-1.82l.58-.05v1.87zM13.56 22.3l-.58.14v-1.82l.58-.2v1.89zM13.56 18.61l-.58.27v-1.84l.58-.32v1.9zM11.88 26.25h-.47v-1.64l.47-.06v1.7zM11.88 22.7l-.47.1v-1.64l.47-.16v1.7zM11.88 19.37l-.47.21v-1.64l.47-.27v1.7zM10.43 26.25h-.39v-1.5l.4-.04v1.54zM10.43 23.04l-.39.09v-1.5l.4-.13v1.54zM10.43 20.02l-.39.18v-1.5l.4-.22v1.54z" fill="#FFC22D"/>
      <path d="M14.12 11.48l.55-.52-1.52 1.29V9.97l1.52-2.2 1.51 2.2v2.28l1.31 1.11V16l3.03 2.04v6.13h2.4l.74 2.23h-8.99V14.11l1.85 1.25v-1.62l-1.85-1.43v-1.28l-.55.45zm.07-1.14l-.46.43v.88l.46-.4v-.91zm2.16 6.7l-.59-.32v1.9l.59.26v-1.84zm0 3.58l-.59-.2v1.89l.59.13v-1.82zm0 3.81l-.59-.05v1.87h.59v-1.82zm2.55 1.82h.4v-1.5l-.4-.04v1.54zm0-3.2l.4.08v-1.5l-.4-.13v1.54zm0-3.03l.4.18v-1.5l-.4-.22v1.54zm-1.45 6.23h.48v-1.64l-.48-.06v1.7zm0-3.55l.48.12v-1.64l-.48-.16v1.68zm0-3.33l.48.22v-1.64l-.48-.26v1.68zm-2.38-8.1l.46.39v-.88l-.46-.43v.91z" fill="#FFC22D"/>
      <path d="M14.12 11.48l-.97.83v-.06l1.52-1.28-.55.51zM25.47 26.33l-21.56.07 10.76 16.13 10.8-16.2z" fill="#FFC22D"/>
  </symbol>
  <symbol fill="none" xmlns="http://www.w3.org/2000/svg" viewBox="0 0 48 48" id="losses">
    <g clip-path="url(#clip0)"><path d="M33.3 48c11.01 0 17.3-12.63 13.67-25.75-3.64-13.12-13-4.92-20.3-17.02C18.65-8.07 1.39 6.33 0 22.25.53 30.84 7.93 48 33.3 48z" fill="#FFDD76"/><path d="M24 12c-1.17 0-2.22.78-2.92 2.01l-2.65 4.65 1.62.96L22.67 15c.47-.83.95-1.08 1.33-1.08.38 0 .85.25 1.33 1.08l2.88 5.07-1.47.93 4.62 2.88v-5.76l-1.56.96-2.89-5.07C26.21 12.78 25.17 12 24 12zm-5.6 8.61l-4.62 2.88 1.42.87-2.57 4.53c-.7 1.23-.86 2.58-.27 3.63.6 1.05 1.8 1.56 3.18 1.56h5.69v-1.92h-5.69c-.95 0-1.4-.31-1.59-.63-.17-.32-.2-.85.26-1.68l2.54-4.5 1.65 1.02v-5.76zm14.72 4.41l-1.56.99 2.23 3.84c.47.84.43 1.36.26 1.68-.18.31-.64.63-1.6.63H27.7v-1.92l-4.62 2.88L27.7 36v-1.92h4.76c1.38 0 2.58-.51 3.17-1.56.6-1.05.44-2.4-.26-3.63v-.03l-2.25-3.84z" fill="#63522B"/></g><defs><clipPath id="clip0"><path fill="#fff" d="M0 0h48v48H0z"/></clipPath></defs>
  </symbol>
  <symbol fill="none" xmlns="http://www.w3.org/2000/svg" viewBox="0 0 48 48" id="safe">
    <g clip-path="url(#clip0)"><path d="M1.03 25.75C-2.6 12.62 3.7 0 14.71 0c6.1 0 8.7 3.5 15.4 11.66C36.8 19.82 46.34 8.48 48 25.75c-1.39 15.91-18.65 30.31-26.67 17.02-7.3-12.1-16.66-3.9-20.3-17.02z" fill="#FFDD76"/><path d="M12.72 33h22.56c.4 0 .72-.32.72-.74V29.1a.76.76 0 00-.53-.72l-.67-.2c-.12-.02-.2-.14-.2-.27v-3.25a10.9 10.9 0 00-5.82-9.68v-.22c0-.96-.77-1.75-1.7-1.75h-6.15c-.94 0-1.7.79-1.7 1.75v.22a10.92 10.92 0 00-5.84 9.68v3.25a.28.28 0 01-.19.27l-.67.2a.74.74 0 00-.53.71v3.18c0 .42.34.74.72.74zm.72-3.35l.14-.05a1.78 1.78 0 001.25-1.67v-3.26c0-3.27 1.7-6.3 4.4-7.98v3.38a.72.72 0 101.44 0v-5.3c0-.14.11-.27.26-.27h6.14a.27.27 0 01.27.27v.7c0 .04 0 .19.02.34v4.26c0 .42.31.74.72.74.4 0 .72-.32.72-.74V18.6c2.4 1.36 2.93 2.79 2.93 6.04v3.25c0 .23.05.42.12.62h-11.9c-.41 0-.73.32-.73.74 0 .41.32.74.72.74h13.18v1.52H13.44v-1.87z" fill="#63522B"/></g><defs><clipPath id="clip0"><path fill="#fff" d="M0 0h48v48H0z"/></clipPath></defs>
  </symbol>
  <symbol fill="none" xmlns="http://www.w3.org/2000/svg" viewBox="0 0 48 48" id="efficiency">
    <g clip-path="url(#clip0)"><path d="M46.97 25.75C50.6 12.62 44.3 0 33.3 0c-6.1 0-8.7 3.5-15.4 11.66C11.2 19.82 1.65 8.48 0 25.75c1.39 15.91 18.65 30.31 26.67 17.02 7.3-12.1 16.66-3.9 20.3-17.02z" fill="#FFDD76"/><path d="M32.75 12a.56.56 0 00-.57.58c0 .32.25.57.57.57h.54l-6.43 6.5-5.7-5.75a.55.55 0 00-.8 0l-6.28 6.26a.56.56 0 000 .8.55.55 0 00.8 0l5.89-5.85 5.7 5.74c.22.23.59.23.8 0l6.84-6.9v.55c0 .32.24.57.57.57.32 0 .57-.25.57-.57v-1.92a.58.58 0 00-.36-.54.68.68 0 00-.21-.04h-1.92zm-1.7 9.4a.56.56 0 00-.56.58v13.44c0 .33.24.58.57.58h3.43c.32 0 .57-.25.57-.58V21.98a.56.56 0 00-.57-.57h-3.43zm-18.5.5a.55.55 0 00-.55.6v.08c0 .3.27.56.6.56.31 0 .56-.27.54-.6v-.08c0-.32-.26-.55-.59-.55zm6.31 1.43a.56.56 0 00-.57.57v11.52c0 .33.25.58.57.58h3.43c.32 0 .57-.25.57-.58V23.9a.56.56 0 00-.57-.57h-3.43zm.57 1.15h2.29v10.37h-2.29V24.48zm5.53 2.69a.56.56 0 00-.57.57v7.68c0 .33.25.58.57.58h3.43c.32 0 .57-.25.57-.58v-7.68a.56.56 0 00-.57-.57h-3.43zm.57 1.15h2.29v6.53h-2.29v-6.53zm-12.77.77a.56.56 0 00-.57.57v5.76c0 .33.25.58.57.58h3.43c.33 0 .57-.25.57-.58v-5.76a.56.56 0 00-.57-.57h-3.43zm.58 1.15h2.28v4.6h-2.28v-4.6z" fill="#63522B"/></g><defs><clipPath id="clip0"><path fill="#fff" d="M0 0h48v48H0z"/></clipPath></defs>
  </symbol>
  <symbol fill="none" xmlns="http://www.w3.org/2000/svg" viewBox="0 0 48 48" id="fit-out">
    <g clip-path="url(#clip0)"><path d="M1.03 25.75C-2.6 12.62 3.7 0 14.71 0c6.1 0 8.7 3.5 15.4 11.66C36.8 19.82 46.34 8.48 48 25.75c-1.39 15.91-18.65 30.31-26.67 17.02-7.3-12.1-16.66-3.9-20.3-17.02z" fill="#E6F1F9"/><path d="M15 13c-.6 0-1 .4-1 1v6c0 .6.4 1 1 1h15c.6 0 1-.4 1-1v-2h1v5h-8c-1.1 0-2 .9-2 2v2c-.6 0-1 .4-1 1v6c0 .6.4 1 1 1h2c.6 0 1-.4 1-1v-6c0-.6-.4-1-1-1v-2h8c1.1 0 2-.9 2-2v-5c0-1.1-.9-2-2-2h-1v-2c0-.6-.4-1-1-1H15zm1 2h13v4H16v-4z" fill="#036FC7"/></g><defs><clipPath id="clip0"><path fill="#fff" d="M0 0h48v48H0z"/></clipPath></defs>
  </symbol>
  <symbol fill="none" xmlns="http://www.w3.org/2000/svg" viewBox="0 0 48 48" id="formwork">
    <g clip-path="url(#clip0)"><path d="M33.3 48c11.01 0 17.3-12.63 13.67-25.75-3.64-13.12-13-4.92-20.3-17.02C18.65-8.07 1.39 6.33 0 22.25.53 30.84 7.93 48 33.3 48z" fill="#E6F1F9"/><path d="M12.75 35.25V25.16c1.1-.58 3.46-1.5 6.16-1.5 1.72 0 3.15 1 4.88 2.22h0c1.66 1.17 3.58 2.5 6.03 2.5 2.42 0 4.24-.86 5.43-1.78v8.65h-22.5z" stroke="#036FC7" stroke-width="1.5"/><path d="M17 15a1 1 0 012 0v8.16L17 24v-9zm6-2a1 1 0 012 0v13l-2-1V13zm6 2a1 1 0 012 0v13h-2V15z" fill="#036FC7"/><path d="M13 17a1 1 0 011-1h20a1 1 0 010 2H14a1 1 0 01-1-1zm0 4a1 1 0 011-1h20a1 1 0 010 2H14a1 1 0 01-1-1zm2 6h2v2h-2v-2zm1 4h2v2h-2v-2zm5-2h2v2h-2v-2zm6 2h2v2h-2v-2zm4-1h2v2h-2v-2z" fill="#036FC7"/></g><defs><clipPath id="clip0"><path fill="#fff" d="M0 0h48v48H0z"/></clipPath></defs>
  </symbol>
  <symbol fill="none" xmlns="http://www.w3.org/2000/svg" viewBox="0 0 48 48" id="panels">
    <g clip-path="url(#clip0)"><path d="M46.97 25.75C50.6 12.62 44.3 0 33.3 0c-6.1 0-8.7 3.5-15.4 11.66C11.2 19.82 1.65 8.48 0 25.75c1.39 15.91 18.65 30.31 26.67 17.02 7.3-12.1 16.66-3.9 20.3-17.02z" fill="#E6F1F9"/><path fill-rule="evenodd" clip-rule="evenodd" d="M12 14h2v7h7v-7h2v8a1 1 0 01-1 1h-9a1 1 0 01-1-1v-8zm13 0h2v7h7v-7h2v8a1 1 0 01-1 1h-9a1 1 0 01-1-1v-8zM12 25h2v7h7v-7h2v8a1 1 0 01-1 1h-9a1 1 0 01-1-1v-8zm13 0h2v7h7v-7h2v8a1 1 0 01-1 1h-9a1 1 0 01-1-1v-8z" fill="#036FC7"/></g><defs><clipPath id="clip0"><path fill="#fff" d="M0 0h48v48H0z"/></clipPath></defs>
  </symbol>
  <symbol fill="none" xmlns="http://www.w3.org/2000/svg" viewBox="0 0 48 48" id="plumbing">
    <g clip-path="url(#clip0)"><path d="M1.03 25.75C-2.6 12.62 3.7 0 14.71 0c6.1 0 8.7 3.5 15.4 11.66C36.8 19.82 46.34 8.48 48 25.75c-1.39 15.91-18.65 30.31-26.67 17.02-7.3-12.1-16.66-3.9-20.3-17.02z" fill="#E6F1F9"/><path d="M12 12v8h2v-1h6a1 1 0 011 1v10c0 2.75 2.25 5 5 5h8v1h2v-8h-2v1h-6a1 1 0 01-1-1V18c0-2.75-2.25-5-5-5h-8v-1h-2zm2 3h8c1.67 0 3 1.33 3 3v5h-2v-4c0-1.1-.9-2-2-2h-7v-2zm9 10h2v4c0 1.1.9 2 2 2h7v2h-8c-1.67 0-3-1.33-3-3v-5z" fill="#036FC7"/><path d="M20 23h8v3h-8v-3z" fill="#036FC7"/></g><defs><clipPath id="clip0"><path fill="#fff" d="M0 0h48v48H0z"/></clipPath></defs>
  </symbol>
  <symbol fill="none" xmlns="http://www.w3.org/2000/svg" viewBox="0 0 48 48" id="scaffolding">
    <g clip-path="url(#clip0)"><path d="M46.97 25.75C50.6 12.62 44.3 0 33.3 0c-6.1 0-8.7 3.5-15.4 11.66C11.2 19.82 1.65 8.48 0 25.75c1.39 15.91 18.65 30.31 26.67 17.02 7.3-12.1 16.66-3.9 20.3-17.02z" fill="#E6F1F9"/><path d="M13 12h2v23h-2V12zm20 0h2v23h-2V12z" fill="#036FC7"/><path d="M12 34h4v2h-4v-2zm20 0h4v2h-4v-2zM13 14h22v2H13v-2zm0 15h21v2H13v-2z" fill="#036FC7"/><path d="M14 16l20 13m-20 0l20-13-20 13z" stroke="#036FC7" stroke-width="2" stroke-linejoin="bevel"/></g><defs><clipPath id="clip0"><path fill="#fff" d="M0 0h48v48H0z"/></clipPath></defs>
  </symbol>
  <symbol fill="none" xmlns="http://www.w3.org/2000/svg" viewBox="0 0 48 48" id="utilization">
    <g clip-path="url(#clip0)"><path d="M1.03 25.75C-2.6 12.62 3.7 0 14.71 0c6.1 0 8.7 3.5 15.4 11.66C36.8 19.82 46.34 8.48 48 25.75c-1.39 15.91-18.65 30.31-26.67 17.02-7.3-12.1-16.66-3.9-20.3-17.02z" fill="#E6F1F9"/><path d="M20.73 12l-1.1 2H12v2h2l1 18c.16 1.2 1.18 2 2.52 2h12.93c1.35 0 2.4-.8 2.55-2l1-18h2v-2h-7.64l-1.09-2h-6.54zM16 16h16l-1 18H17l-1-18zm4 3l.73 9.5c0 .66.6 1.5 1.33 1.5H23V19h-3zm5 0v11h1.18c.74 0 1.1-.84 1.1-1.5L28 19h-3z" fill="#036FC7"/></g><defs><clipPath id="clip0"><path fill="#fff" d="M0 0h48v48H0z"/></clipPath></defs>
  </symbol>
  <symbol fill="none" xmlns="http://www.w3.org/2000/svg" viewBox="0 0 48 48" id="concrete">
    <g clip-path="url(#clip0)"><path d="M46.97 25.75C50.6 12.62 44.3 0 33.3 0c-6.1 0-8.7 3.5-15.4 11.66C11.2 19.82 1.65 8.48 0 25.75c1.39 15.91 18.65 30.31 26.67 17.02 7.3-12.1 16.66-3.9 20.3-17.02z" fill="#E6F1F9"/><path d="M27.92 19c-.55 0-.92.37-.92.92v9.58c0 .46.37.92.92.92.19-1.56 1.42-2.92 3.08-2.92 1.66 0 2.82 1.34 3 3h1c.56 0 1-.4 1-.96v-4.62c0-.83-.75-1.84-.75-1.84l-2.02-3.12c-.46-.55-.74-.92-1.38-.92L27.92 19zM29 21h3l2.07 3.09c.18.27.43.63.43.91H29v-4zm-13 8c-1.17 0-2 .83-2 2s.83 2 2 2 2-.83 2-2-.83-2-2-2zm15 0c-1.17 0-2 .83-2 2s.83 2 2 2 2-.83 2-2-.83-2-2-2zm-11 2c0-1.17.83-2 2-2s2 .83 2 2-.83 2-2 2-2-.83-2-2zm-6.45-10a2 2 0 01-.55-2.4l1.11-2.39a2 2 0 012.2-1.12l4.05.79a2 2 0 01.47.15l3.69 1.72a1.44 1.44 0 01.7 1.92l-2.5 5.54a1.44 1.44 0 01-1.91.7l-3.7-1.73a2 2 0 01-.4-.26L13.54 21z" fill="#036FC7"/><path d="M12.5 27c-.55 0-.5.45-.5 1v1.5c0 .55-.05.96.5.96h.5V28h12v2.46l.21-.04c.56 0 .79-.37.79-.92V28a1 1 0 00-1-1H12.5z" fill="#036FC7"/></g><defs><clipPath id="clip0"><path fill="#fff" d="M0 0h48v48H0z"/></clipPath></defs>
  </symbol>
  <symbol fill="none" xmlns="http://www.w3.org/2000/svg" viewBox="0 0 48 48" id="equipment">
    <g clip-path="url(#clip0)"><path d="M33.3 48c11.01 0 17.3-12.63 13.67-25.75-3.64-13.12-13-4.92-20.3-17.02C18.65-8.07 1.39 6.33 0 22.25.53 30.84 7.93 48 33.3 48z" fill="#E6F1F9"/><path d="M14.02 14v13.2c-1.1.64-2.02 1.83-2.02 3.16 0 2 1.66 3.64 3.7 3.64h11.07c2.03 0 3.7-1.64 3.7-3.64-.01-.64-.2-1.27-.52-1.81l2.55-.05v1.86c0 2 1.47 3.64 3.5 3.64v-1.5c-1.03 0-2-1.12-2-2.14V23h-1.5v3.76l-3.45-.03 1.41-3.47v-1.99h-3.69v-2.72c0-.52.4-.91.92-.91v-1.82a2.76 2.76 0 00-2.77 2.73v2.72h-1.2L20.95 14h-6.93zm1.67 1.82h3.98l2.07 5.45H15.7v-5.45zm0 7.27h12.85L27 26.73H15.7v-3.64zm0 5.46h11.08a1.82 1.82 0 110 3.63H15.69a1.82 1.82 0 110-3.63zm0 .9c-.24 0-.48.1-.65.27a.9.9 0 000 1.29.93.93 0 001.5-.3.9.9 0 00-.2-.99.93.93 0 00-.65-.27zm3.7 0a.93.93 0 00-.86.57.9.9 0 00.2.99.93.93 0 001.5-.3.9.9 0 00-.2-.99.93.93 0 00-.64-.27zm3.69 0a.93.93 0 00-.85.57.9.9 0 00.2.99.93.93 0 001.5-.3.9.9 0 00-.2-.99.93.93 0 00-.65-.27zm3.69 0a.93.93 0 00-.85.57.9.9 0 00.2.99.93.93 0 001.5-.3.9.9 0 00-.2-.99.93.93 0 00-.65-.27z" fill="#036FC7"/></g><defs><clipPath id="clip0"><path fill="#fff" d="M0 0h48v48H0z"/></clipPath></defs>
  </symbol>
  <symbol fill="none" xmlns="http://www.w3.org/2000/svg" viewBox="0 0 48 48" id="facades">
    <g clip-path="url(#clip0)">
      <path d="M46.97 25.75C50.6 12.62 44.3 0 33.3 0c-6.1 0-8.7 3.5-15.4 11.66C11.2 19.82 1.65 8.48 0 25.75c1.39 15.91 18.65 30.31 26.67 17.02 7.3-12.1 16.66-3.9 20.3-17.02z" fill="#E6F1F9"/>
      <path d="M35 14H13a1 1 0 00-1 1v18a1 1 0 001 1h22a1 1 0 001-1V15a1 1 0 00-1-1z" fill="#fff"/>
      <path d="M35 14H13a1 1 0 00-1 1v18a1 1 0 001 1h22a1 1 0 001-1V15a1 1 0 00-1-1z" stroke="#036FC7" stroke-width="3"/>
      <path d="M12 20h16v2H12v-2zm0 6h7v2h-7v-2z" fill="#036FC7"/>
      <path d="M18 15h2v6h-2v-6zm5 6h2v5h-2v-5zm5-6h2v6h-2v-6z" fill="#036FC7"/>
      <path d="M35 32V18c-7 0-5.5 3.5-7 6s-4.36 1.47-7 2c-2.5.5-2.5 5-2.5 7H34a1 1 0 001-1z" stroke="#036FC7" stroke-width="2"/>
    </g>
    <defs>
      <clipPath id="clip0">
        <path fill="#fff" d="M0 0h48v48H0z"/>
      </clipPath>
    </defs>
  </symbol>

  <symbol fill="none" xmlns="http://www.w3.org/2000/svg" viewBox="0 0 48 48" id="pollution">
    <g clip-path="url(#clip0)"><path d="M46.97 25.75C50.6 12.62 44.3 0 33.3 0c-6.1 0-8.7 3.5-15.4 11.66C11.2 19.82 1.65 8.48 0 25.75c1.39 15.91 18.65 30.31 26.67 17.02 7.3-12.1 16.66-3.9 20.3-17.02z" fill="#E2F9C3"/><path fill-rule="evenodd" clip-rule="evenodd" d="M34 15a1 1 0 11-2 0 1 1 0 012 0zm1 0a2 2 0 11-4 0 2 2 0 014 0zm-20 4.5a1.5 1.5 0 100-3 1.5 1.5 0 000 3zm0 1.5a3 3 0 100-6 3 3 0 000 6zm11.5-3c-2.18 0-3.56.77-4.4 1.7-.3.34-.5.67-.66.98a4.07 4.07 0 00-3.5.49 5.37 5.37 0 00-2.37 3.6c-.71.24-1.37.63-1.93 1.13A4.95 4.95 0 0012 29.7c0 2 .83 3.4 2.08 4.24 1.2.81 2.67 1.06 3.92 1.06h12.5c1.14 0 2.48-.42 3.55-1.26A4.92 4.92 0 0036 29.78a4.89 4.89 0 00-3.75-5.07 6.32 6.32 0 00-.82-3.8A5.58 5.58 0 0026.5 18zm-3.54 4.28l.02-.06c.06-.23.2-.71.61-1.18.43-.48 1.25-1.04 2.91-1.04 1.5 0 2.57.8 3.2 1.9.65 1.14.73 2.45.38 3.27l-.6 1.4H31c.77 0 1.52.26 2.07.77.53.5.93 1.28.93 2.44 0 1.06-.49 1.84-1.18 2.38-.72.57-1.63.84-2.32.84H18a5.08 5.08 0 01-2.8-.71c-.67-.46-1.2-1.22-1.2-2.6 0-1.1.44-1.82.98-2.3a3.53 3.53 0 011.68-.84l.84-.14v-.85c0-.69.3-1.89 1.55-2.73 1-.66 2.1-.19 2.42.02l1.12.7.37-1.27zm-4.24 5.36c0-1.73.93-2.8 2.43-2.8 1.23 0 2.17.84 2.25 2h-1.06a1.17 1.17 0 00-1.19-1.01c-.81 0-1.32.69-1.32 1.81s.5 1.82 1.32 1.82c.62 0 1.1-.38 1.2-.96h1.05c-.09 1.15-1 1.94-2.25 1.94-1.5 0-2.43-1.07-2.43-2.8zm5.28 0c0-1.73.94-2.8 2.4-2.8 1.48 0 2.4 1.08 2.4 2.8 0 1.73-.92 2.8-2.4 2.8s-2.4-1.07-2.4-2.8zm3.73 0c0-1.11-.51-1.82-1.33-1.82-.8 0-1.33.7-1.33 1.82 0 1.11.51 1.82 1.33 1.82.82 0 1.34-.7 1.34-1.82zm1.55 1.66c0-.66.48-1.1 1.2-1.1.7 0 1.15.38 1.15.97 0 .4-.2.73-.77 1.17l-.36.33v.06h1.18v.73h-2.34v-.65l.9-.81c.45-.4.56-.55.56-.75 0-.2-.15-.33-.36-.33-.22 0-.37.15-.37.37v.02h-.79v-.01z" fill="#3A8241"/></g><defs><clipPath id="clip0"><path fill="#fff" d="M0 0h48v48H0z"/></clipPath></defs>
  </symbol>

  <symbol fill="none" xmlns="http://www.w3.org/2000/svg" viewBox="0 0 48 48" id="waste">
    <g clip-path="url(#clip0)">
      <path d="M1.03 32.95C-2.6 20.14 3.7 0 14.71 0c6.1 0 12.7 2.45 19.4 10.41C40.8 18.38 48 14.65 48 30.02c0 16.85-19.5 24.18-26.67 11.75-6.93-12.02-16.66 4-20.3-8.82z" fill="#E2F9C3"/>
      <path d="M24 12c-1.17 0-2.22.78-2.92 2.01l-2.65 4.65 1.62.96L22.67 15c.47-.83.95-1.08 1.33-1.08.38 0 .85.25 1.33 1.08l2.88 5.07-1.47.93 4.62 2.88v-5.76l-1.56.96-2.89-5.07C26.21 12.78 25.17 12 24 12zm-5.6 8.61l-4.62 2.88 1.42.87-2.57 4.53c-.7 1.23-.86 2.58-.27 3.63.6 1.05 1.8 1.56 3.18 1.56h5.69v-1.92h-5.69c-.95 0-1.4-.31-1.59-.63-.17-.32-.2-.85.26-1.68l2.54-4.5 1.65 1.02v-5.76zm14.72 4.41l-1.56.99 2.23 3.84c.47.84.43 1.36.26 1.68-.18.31-.64.63-1.6.63H27.7v-1.92l-4.62 2.88L27.7 36v-1.92h4.76c1.38 0 2.58-.51 3.17-1.56.6-1.05.44-2.4-.26-3.63v-.03l-2.25-3.84z" fill="#fff"/>
      <path d="M24 12c-1.17 0-2.22.78-2.92 2.01l-2.65 4.65 1.62.96L22.67 15c.47-.83.95-1.08 1.33-1.08.38 0 .85.25 1.33 1.08l2.88 5.07-1.47.93 4.62 2.88v-5.76l-1.56.96-2.89-5.07C26.21 12.78 25.17 12 24 12zm-5.6 8.61l-4.62 2.88 1.42.87-2.57 4.53c-.7 1.23-.86 2.58-.27 3.63.6 1.05 1.8 1.56 3.18 1.56h5.69v-1.92h-5.69c-.95 0-1.4-.31-1.59-.63-.17-.32-.2-.85.26-1.68l2.54-4.5 1.65 1.02v-5.76zm14.72 4.41l-1.56.99 2.23 3.84c.47.84.43 1.36.26 1.68-.18.31-.64.63-1.6.63H27.7v-1.92l-4.62 2.88L27.7 36v-1.92h4.76c1.38 0 2.58-.51 3.17-1.56.6-1.05.44-2.4-.26-3.63v-.03l-2.25-3.84z" fill="#3A8241" stroke="#3A8241" stroke-width="1"/>
    </g>
    <defs>
      <clipPath id="clip0">
        <path fill="#fff" d="M0 0h48v48H0z"/>
      </clipPath>
    </defs>
  </symbol>

  <symbol fill="none" xmlns="http://www.w3.org/2000/svg" viewBox="0 0 48 48" id="society">
    <g clip-path="url(#clip0)"><path d="M48 27.57C48 16.32 46.4 0 26.45 0s-9.2 19.31-21.32 26.77C-8.2 34.95 6.9 48 22.2 48 33.97 48 48 42.17 48 27.57z" fill="#E2F9C3"/><path d="M20.14 15a3 3 0 00-2.25.96 3.05 3.05 0 00-.75 2.04c0 .73.24 1.46.75 2.04.52.58 1.32.96 2.25.96a3 3 0 002.25-.96c.52-.58.75-1.31.75-2.04s-.23-1.46-.75-2.04a2.99 2.99 0 00-2.25-.96zm7.72 0a3 3 0 00-2.25.96 3.06 3.06 0 00-.75 2.04c0 .73.23 1.46.75 2.04.51.58 1.32.96 2.25.96a3 3 0 002.25-.96c.51-.58.75-1.31.75-2.04s-.24-1.46-.75-2.04a3 3 0 00-2.25-.96zm-7.72 1.71c.5 0 .77.16.97.39.2.22.32.55.32.9 0 .34-.12.68-.32.9-.2.23-.47.39-.97.39s-.76-.16-.96-.39c-.2-.22-.32-.55-.32-.9 0-.34.12-.68.32-.9.2-.23.46-.39.96-.39zm7.72 0c.5 0 .76.16.96.39.2.22.32.55.32.9 0 .34-.12.68-.32.9-.2.23-.46.39-.96.39-.5 0-.77-.16-.97-.39-.2-.22-.32-.55-.32-.9 0-.34.12-.68.32-.9.2-.23.47-.39.97-.39zM16.29 21c-.79 0-1.49.33-1.93.82-.42.49-.65 1.1-.65 1.75 0 .51.24 1 .54 1.45a4.25 4.25 0 00-2.25 3.7h1.71a2.56 2.56 0 014.32-1.9c.47.45.76 1.05.8 1.7A6.8 6.8 0 0017.15 33h1.72a5.13 5.13 0 1110.28 0h1.72a6.8 6.8 0 00-1.7-4.48 2.55 2.55 0 013.54-2.18 2.56 2.56 0 011.59 2.37H36c0-1.57-.87-2.94-2.15-3.68a2.65 2.65 0 00-.2-3.2A2.58 2.58 0 0031.7 21c-.78 0-1.48.33-1.92.82a2.65 2.65 0 00-.21 3.2 4.3 4.3 0 00-1.88 2.24c-.34-.23-.7-.42-1.08-.59.53-.63.81-1.42.8-2.24a3.5 3.5 0 00-.85-2.34A3.4 3.4 0 0024 21a3.4 3.4 0 00-2.57 1.1 3.5 3.5 0 00-.86 2.33c0 .8.27 1.6.8 2.25a6.9 6.9 0 00-1.08.58 4.4 4.4 0 00-1.97-2.24c.3-.45.54-.94.54-1.45 0-.62-.2-1.25-.65-1.75A2.58 2.58 0 0016.3 21zm0 1.71c.35 0 .51.1.64.25s.21.37.21.61-.08.47-.21.61c-.13.15-.29.25-.64.25-.36 0-.52-.1-.65-.25a.94.94 0 01-.21-.6c0-.25.08-.47.21-.62.13-.14.29-.25.65-.25zm7.71 0c.64 0 1.02.21 1.29.52.27.3.42.75.42 1.2 0 .45-.15.9-.42 1.2-.27.3-.65.51-1.29.51s-1.02-.2-1.29-.51c-.27-.3-.42-.75-.42-1.2 0-.45.15-.9.42-1.2.27-.3.65-.52 1.29-.52zm7.71 0c.36 0 .52.1.65.25s.21.37.21.61-.08.47-.21.61c-.13.15-.29.25-.65.25-.35 0-.51-.1-.64-.25a.94.94 0 01-.21-.6c0-.25.08-.47.21-.62.13-.14.29-.25.64-.25z" fill="#3A8241"/></g><defs><clipPath id="clip0"><path fill="#fff" d="M0 0h48v48H0z"/></clipPath></defs>
  </symbol>

  <symbol fill="none" xmlns="http://www.w3.org/2000/svg" viewBox="0 0 40 40" id="reliability">
    <path d="M18.12 1.73c6.76 3.15 8.32 7.09 8.66 9.15.37 2.36-.46 4.14-1.29 4.94a3.77 3.77 0 01-2.63 1.24c-.26 0-.5-.04-.73-.1L17.16 2.49a.73.73 0 01.27-.67l.69-.08zm0 0a.67.67 0 00-.7.08l.7-.08zm0 0l-.21.45c6.62 3.1 8.07 6.89 8.37 8.78.36 2.2-.43 3.82-1.14 4.5h0c-.77.76-1.53 1.1-2.28 1.1-.21 0-.43-.03-.64-.1.67-4.18.07-7.19-1.11-10.27a1.18 1.18 0 00-1.55-.69h0a1.23 1.23 0 00-.66 1.58 16.1 16.1 0 01.86 9.66 3.98 3.98 0 01-4.12-.75 4.76 4.76 0 01-1.4-2.77c-.53-3.1.82-5.24 2-7.1l.02-.03c.39-.6.77-1.2 1.04-1.79.27-.6.44-1.23.36-1.89a.23.23 0 01.08-.2l-.31-.4.69-.08zm0 0l-.21.45a.17.17 0 00-.1-.01.17.17 0 00-.07.03l-.31-.39.69-.08zm3.44 15.57a4.02 4.02 0 01-.13-.05l-.1-.05-.29.14.52-.04zm0 0l-.4-.58-.04.23-.06.1.03.03-.05.26.52-.04zm0 0a35 35 0 01-1.01 3.88l1-3.88zm0 0l-1.01 3.88 1-3.88zm-.52.04a34.78 34.78 0 01-.97 3.68l.97-3.68zm0 0c-.13.07-.27.12-.41.17l.41-.17zm-.97 3.68l.56-3.5-.56 3.5zm0 0c-.03.1-.11.15-.18.15l-.04-.01h-.01c-.09-.04-.16-.15-.12-.29.35-1.1.66-2.22.9-3.35l-.55 3.5zm0 0l.55-3.5-.55 3.5zm.56-3.5h0zm0 0h0zm-.08 3.66a.7.7 0 01-.66.49.62.62 0 01-.21-.04.72.72 0 01-.44-.91l1.3.46zM3.26 25l.4-.3-.01-.01-.01-.02-.14-.15a5.3 5.3 0 01-.9-1.24 5.5 5.5 0 01-.43-2.45v-10c0-.71.23-1.2.56-1.5.33-.32.8-.5 1.33-.5s1 .18 1.33.5a2 2 0 01.56 1.5v7.14l-.1.05a2 2 0 00-.46.43c-.31.39-.53.85-.63 1.34-.23 1.11.02 2.53 1.31 3.9l3.5 3.9h0a1.11 1.11 0 001.66 0 1.27 1.27 0 000-1.69l-3.82-4.24h0a1.58 1.58 0 01.01-2.12h0c.08-.08.32-.3.66-.36.29-.05.77 0 1.4.66l3.82 4.25h0l.01.01c1.64 1.72 3 3.85 3 6.73v6.89l-.02.07a.66.66 0 01-.27.04H9.64a.9.9 0 01-.13 0 .37.37 0 01-.1-.03.08.08 0 01-.04-.03c0-.01-.03-.05-.03-.15v-5.28l-.1-.14c-.4-.56-1.8-2.43-3.1-4.17l-1.72-2.31-.55-.74-.15-.2-.04-.06-.01-.01h0v0l-.4.29zm30.8-7.03v-7.14c0-.71.23-1.2.55-1.5.33-.32.8-.5 1.33-.5.54 0 1 .18 1.33.5a2 2 0 01.56 1.5v10a5.5 5.5 0 01-.42 2.45c-.23.47-.53.81-.91 1.24l-.14.15v.02l-.02.01.4.3-.4-.3h0l-.02.02-.04.05-.15.2-.55.75-1.72 2.31-3.1 4.17-.1.14v5.28c0 .1-.02.14-.03.15l-.03.03a.37.37 0 01-.11.03.9.9 0 01-.13 0H24a.66.66 0 01-.28-.04 1.74 1.74 0 01-.02-.29v-6.67c0-2.88 1.36-5.01 3-6.73h.01l3.82-4.26c.63-.67 1.11-.71 1.4-.66.34.06.59.28.66.36.55.6.54 1.54.01 2.12h0l-3.82 4.24h0a1.26 1.26 0 000 1.69 1.11 1.11 0 001.66 0h0l3.5-3.9c1.3-1.37 1.54-2.79 1.3-3.9-.1-.49-.3-.95-.62-1.34a2 2 0 00-.56-.48z" fill="#2C70C1" stroke="#2C70C1"/>
    
  </symbol>
  
  <symbol fill="none" xmlns="http://www.w3.org/2000/svg" viewBox="0 0 48 48" id="compliance">
    <g clip-path="url(#clip0)">
      <path d="M46.97 25.75C50.6 12.62 44.3 0 33.3 0c-6.1 0-8.7 3.5-15.4 11.66C11.2 19.82 1.65 8.48 0 25.75c1.39 15.91 18.65 30.31 26.67 17.02 7.3-12.1 16.66-3.9 20.3-17.02z" fill="#FFDD76"/>
      <path d="M21.65 14.56h.53l.2-.49c.32-.8.9-1.29 1.62-1.29.72 0 1.3.49 1.63 1.3l.2.48H32c.26 0 .5.08.7.21h-4.03v3.56h-9.34v-3.56H15.3c.2-.13.43-.21.69-.21h5.65zm11.31 1v-.53c.16.2.26.47.26.75V34c0 .28-.1.54-.26.75V15.56zM32.18 35h.51c-.2.14-.44.22-.69.22H16c-.25 0-.49-.08-.7-.22h16.88zm-17.14-.78v.53a1.21 1.21 0 01-.26-.75V15.78c0-.28.1-.54.26-.75v19.19zm13.38-18.66v-.79h-2.73v-.1c0-.95-.76-1.67-1.69-1.67-.93 0-1.69.72-1.69 1.67v.1h-2.73v3.34h8.84v-2.55zm-5.88 13.52l.55.53.55-.53 5.17-5.06.17.16-5.89 5.76-3.16-3.09.17-.16 2.45 2.39z" fill="#63522B" stroke="#63522B" stroke-width="1.56"/>
    </g>
    <defs>
      <clipPath id="clip0">
        <path fill="#fff" d="M0 0h48v48H0z"/>
      </clipPath>
    </defs>
    
  </symbol>
  
  <symbol fill="none" xmlns="http://www.w3.org/2000/svg" viewBox="0 0 48 48" id="contractor">
    <g clip-path="url(#clip0)">
      <path d="M46.97 22.25C50.6 35.37 44.3 48 33.3 48c-6.1 0-8.7-3.5-15.4-11.66C11.2 28.18 1.65 39.52 0 22.25 1.39 6.34 18.65-8.06 26.67 5.23c7.3 12.1 16.66 3.9 20.3 17.02z" fill="#FFDD76"/>
      <path d="M23.5 15.52h0a.3.3 0 01.18 0L34.3 18.9l.04.02h.04c.08.01.14.05.2.11.05.07.08.15.08.24v9.11l.24.14c.35.21.59.6.59 1.05 0 .13-.06.38-.22.74a11.23 11.23 0 01-.94 1.76l-.39-.67c-.2-.36-.38-.72-.54-1.09a2.31 2.31 0 01-.22-.74c0-.45.24-.84.59-1.05l.24-.14v-8.62l-.66.2-9.68 3.1a.3.3 0 01-.19 0l-10.75-3.43a.33.33 0 01-.17-.13.38.38 0 010-.43c.04-.06.1-.1.16-.13l10.76-3.42zm-6.04 12.73v-4.27l5.24 1.67c.58.18 1.2.18 1.77 0l5.24-1.67v4.27h-.13a13.04 13.04 0 00-6 2.4 13.05 13.05 0 00-6.12-2.4z" fill="#63522B" stroke="#63522B"/>
    </g>
    <defs>
      <clipPath id="clip0">
        <path fill="#fff" d="M0 0h48v48H0z"/>
      </clipPath>
    </defs>
    
  </symbol>

   <symbol fill="none" xmlns="http://www.w3.org/2000/svg" viewBox="0 0 48 48" id="providers">
    <g clip-path="url(#clip0)">
      <path d="M33.3 48c11.01 0 17.3-12.63 13.67-25.75-3.64-13.12-13-4.92-20.3-17.02C18.65-8.07 1.39 6.33 0 22.25.53 30.84 7.93 48 33.3 48z" fill="#FFDD76"/>
      <path d="M32 16v7l4-3.5-4-3.5zm-13.25-2a.75.75 0 00-.75.75v18.5a.75.75 0 00.75.75h10.5a.75.75 0 00.75-.75v-18.5a.75.75 0 00-.75-.75h-10.5zM12 19v1.5h1.5V19H12zm3 0v1.5h1.5V19H15zm4.5-3.5h9v17h-9v-17zm1.75 1.5a.75.75 0 100 1.5h5.5a.75.75 0 100-1.5h-5.5zM16 24l-4 3.5 4 3.5v-7zm15.5 3v1.5H33V27h-1.5zm3 0v1.5H36V27h-1.5z" fill="#fff"/>
      <path d="M32 16v7l4-3.5-4-3.5zm-13.25-2a.75.75 0 00-.75.75v18.5a.75.75 0 00.75.75h10.5a.75.75 0 00.75-.75v-18.5a.75.75 0 00-.75-.75h-10.5zM12 19v1.5h1.5V19H12zm3 0v1.5h1.5V19H15zm4.5-3.5h9v17h-9v-17zm1.75 1.5a.75.75 0 100 1.5h5.5a.75.75 0 100-1.5h-5.5zM16 24l-4 3.5 4 3.5v-7zm15.5 3v1.5H33V27h-1.5zm3 0v1.5H36V27h-1.5z" fill="#63522B" stroke="#63522B" stroke-width="0.5"/>
    </g>
    <defs>
      <clipPath id="clip0">
        <path fill="#fff" d="M0 0h48v48H0z"/>
      </clipPath>
    </defs>
  </symbol>
  <symbol fill="none" xmlns="http://www.w3.org/2000/svg" viewBox="0 0 48 48" id="reward">
    <path d="M46.97 22.25C50.6 35.38 44.3 48 33.3 48c-6.1 0-14.8-1-18.4-9.66C11.43 29.99.5 37.5 0 20.25 0 6 20.88-7.66 26.67 5.23c5.79 12.89 16.66 3.9 20.3 17.02z" fill="#E8F3FE"/>
    <path d="M21.34 12s-1.68-.04-2.63 1.02c-.95 1.05-.8 2.8-.8 2.8s1.68.05 2.63-1c.94-1.07.8-2.82.8-2.82zm5.32 0s-.14 1.76.8 2.81c.95 1.06 2.63 1.02 2.63 1.02s.15-1.76-.8-2.81c-.95-1.06-2.63-1.02-2.63-1.02zm-11.2 1.2s-1.11 1.31-.95 2.75c.17 1.44 1.54 2.45 1.54 2.45.3.24 1.37 1.09 2.55.97 1.38-.15 2.37-1.57 2.37-1.57s-1.24-1.19-2.62-1.04c-.79.08-1.44.57-1.86.98.29-.52.6-1.29.51-2.1-.16-1.44-1.54-2.45-1.54-2.45zm17.08 0s-1.38 1-1.54 2.44c-.1.82.22 1.58.5 2.1a3.27 3.27 0 00-1.85-.98c-1.38-.15-2.62 1.04-2.62 1.04s1 1.42 2.37 1.57c1.18.12 2.25-.73 2.54-.98v.01s1.38-1.01 1.55-2.45c.16-1.44-.95-2.76-.95-2.76zM12.77 18.6s-.68 1.61-.12 2.93c.57 1.33 2.18 1.86 2.18 1.86v-.02c.36.12 1.66.46 2.7-.12 1.22-.69 1.61-2.4 1.61-2.4s-1.58-.6-2.8.09c-.59.33-.98.9-1.23 1.4.09-.55.1-1.25-.17-1.88-.56-1.32-2.17-1.86-2.17-1.86zm22.46 0s-1.6.54-2.17 1.86a3.44 3.44 0 00-.17 1.88 3.25 3.25 0 00-1.23-1.4c-1.22-.69-2.8-.1-2.8-.1s.39 1.72 1.6 2.4c1.05.6 2.34.25 2.7.13l.01.02s1.6-.53 2.17-1.85c.57-1.33-.11-2.94-.11-2.94zm-16.7 5.34s-1.64.38-2.33 1.63c-.33.61-.37 1.31-.33 1.87a3.29 3.29 0 00-1.09-1.5c-1.15-.82-2.78-.4-2.78-.4s.23 1.75 1.37 2.56c1.15.82 2.79.39 2.79.39v-.02c.35-.1 1.64-.52 2.22-1.6.69-1.25.16-2.92.16-2.92zm10.93 0s-.53 1.68.16 2.93c.58 1.08 1.87 1.5 2.23 1.6v.02s1.63.43 2.78-.38c1.14-.82 1.37-2.56 1.37-2.56s-1.64-.43-2.78.38c-.55.4-.89 1-1.09 1.52.04-.57 0-1.27-.34-1.88-.68-1.25-2.33-1.62-2.33-1.62zm-9.6 3.43s-1.54.72-1.96 2.1c-.24.79-.07 1.6.12 2.18a3.34 3.34 0 00-1.63-1.33c-1.33-.42-2.77.5-2.77.5s.72 1.6 2.04 2.01c1.16.36 2.34-.26 2.64-.43.6.64 1.3 1.08 2.06 1.37a2.4 2.4 0 00-.71.9h-.01a.96.96 0 00.18 1.05.86.86 0 001.1.12c.15-.1.27-.23.33-.4.09-.2.32-.38.92-.56a13.8 13.8 0 011.83-.33c.7.1 1.36.19 1.83.33.6.18.83.37.91.57.08.16.19.3.33.4a.86.86 0 001.11-.13.95.95 0 00.18-1.04v-.02a2.4 2.4 0 00-.71-.9c.75-.28 1.46-.72 2.05-1.36.3.17 1.48.8 2.63.43 1.33-.41 2.05-2 2.05-2s-1.44-.93-2.77-.51c-.75.23-1.3.84-1.63 1.33.19-.57.36-1.4.12-2.18-.42-1.38-1.96-2.1-1.96-2.1s-.85 1.52-.43 2.9c.12.39.33.72.57 1-.91.83-2.4 1.14-3.98 1.36l-.3.04-.3-.04c-1.58-.22-3.07-.53-3.98-1.36.24-.28.45-.61.57-1 .42-1.38-.43-2.9-.43-2.9z" fill="#2C70C1"/>
  </symbol>
  <symbol fill="none" xmlns="http://www.w3.org/2000/svg" viewBox="0 0 48 48" id="potential">
    <g clip-path="url(#clip0)">
      <path d="M46.97 25.82C50.6 12.7 44.3.08 33.3.08c-6.1 0-14.8 1-18.4 9.66C11.43 18.08.5 10.57 0 27.82c0 14.25 20.88 27.92 26.67 15.03 5.79-12.9 16.66-3.9 20.3-17.03z" fill="#E8F3FE"/>
      <path fill-rule="evenodd" clip-rule="evenodd" d="M33 24a9 9 0 11-18 0 9 9 0 0118 0zm2 0a11 11 0 11-22 0 11 11 0 0122 0zm-12.5 5L18 24.5l1.5-1.5 3 3 6-6 1.5 1.5-7.5 7.5z" fill="#2C70C1"/>
    </g>
    <defs>
      <clipPath id="clip0">
        <path fill="#fff" d="M0 0h48v48H0z"/>
      </clipPath>
    </defs>
  </symbol>
  <symbol fill="none" xmlns="http://www.w3.org/2000/svg" viewBox="0 0 48 48" id="leader">
    <g clip-path="url(#clip0)">
      <path d="M33.3 48c11.01 0 17.3-12.63 13.67-25.75-3.64-13.12-13-4.92-20.3-17.02C18.65-8.07 1.39 6.33 0 22.25.53 30.84 7.93 48 33.3 48z" fill="#E8F3FE"/>
      <path d="M20.37 12.9l-.87 1.13h0a.91.91 0 01-.42.3l-1.34.48 2.63-1.91zm0 0a1.84 1.84 0 011.99-.63h0l1.36.4c.17.05.36.05.53 0l1.36-.4h0c.73-.21 1.53.04 1.98.63l.88 1.13h0c.1.13.24.25.42.3l1.33.48a1.85 1.85 0 011.23 1.67l.05 1.41c0 .2.05.36.17.5l.8 1.18h0c.44.6.44 1.45 0 2.05h0l-.8 1.18h0a.9.9 0 00-.17.5l-.05 1.41a1.85 1.85 0 01-1.22 1.67L20.37 12.9zm0 0l9.86 13.48-9.86-13.48zm-3.86 3.58v0l-.04 1.41a.9.9 0 01-.17.5h0l-.81 1.17a1.94 1.94 0 00.02 2.09l.8 1.17a.8.8 0 01.18.5l.04 1.41v0c.02.74.52 1.41 1.23 1.67l.7.24.2.06-.08.2-2.52 6.82a.45.45 0 00.12.48c.14.12.34.15.52.08a2.64 2.64 0 013.5 1.27c.07.16.24.25.41.25h.02c.2-.02.36-.13.42-.3h0l2.52-6.87.03-.08.07-.03.04-.02h.01l.02-.01a.88.88 0 01.53 0l1.36.39c.73.21 1.53-.04 1.98-.63l.8-1.02.21-.28.12.33 2.02 5.5.1.28-.3-.02a3.63 3.63 0 00-2.74 1l-.22.2-.1-.28-1.14-3.07c-.1-.25-.36-.36-.58-.28-.25.1-.37.37-.29.58h0l1.56 4.26a.5.5 0 00.42.31h.01a.47.47 0 00.42-.26 2.64 2.64 0 013.5-1.27L16.51 16.48zm0 0l14.9 17.75-14.9-17.75zm0 0a1.85 1.85 0 011.23-1.67l-1.23 1.67zm14.9 17.75a.48.48 0 00.5-.07.45.45 0 00.13-.48l-2.5-6.85-.07-.19.19-.07.57-.2 1.17 7.86zm0 0l-1.18-7.85 1.17 7.85zm-11.72-6.85l-.21-.28-.12.33-2.02 5.44-.1.26h.54a3.6 3.6 0 012.5.99l.21.21.11-.29 1.78-4.82.1-.26H22h0l-.15.02a1.9 1.9 0 01-1.46-.71l-.7-.9zm8.45-6.77a4.14 4.14 0 00-8.3 0 4.14 4.14 0 008.3 0v0zm-4.61-1.09c0-.26.2-.46.46-.46.27 0 .47.2.47.46v2.17c0 .26-.2.46-.47.46a.45.45 0 01-.46-.46v-2.17z" fill="#2C70C1" stroke="#2C70C1" stroke-width=".39"/>
    </g>
    <defs>
      <clipPath id="clip0">
        <path fill="#fff" d="M0 0h48v48H0z"/>
      </clipPath>
    </defs>
  </symbol>
  <symbol fill="none" xmlns="http://www.w3.org/2000/svg" viewBox="0 0 48 48" id="growth">
    <g clip-path="url(#clip0)">
      <path d="M1.03 22.25C-2.6 35.38 3.7 48 14.71 48c6.1 0 14.79-1 18.4-9.66C36.56 29.99 47.5 37.5 48 20.25 48 6 27.12-7.66 21.33 5.23c-5.79 12.89-16.66 3.9-20.3 17.02z" fill="#E8F3FE"/>
      <path d="M25.56 21.72l.16.01c.38 0 .79-.17 1.23-.6.37-.36.82-1.26.62-2.52-.17-1.05-.97-3.24-4.77-5.05.03.4-.09.77-.24 1.1-.17.37-.4.74-.63 1.1l-.02.02c-.7 1.11-1.47 2.34-1.17 4.12l4.82 1.82zm0 0c.36-2.45 0-4.25-.7-6.08a.9.9 0 00-1.2-.53h0a.94.94 0 00-.5 1.2c.64 1.71.95 3.27.52 5.58l1.88-.17zm0 0l-1.88.17 1.88-.17zm-1.88.17a2.2 2.2 0 01-2.16-.44 2.66 2.66 0 01-.78-1.55l2.94 1.99zM13.96 27l.4-.3-.01-.02-.02-.01-.08-.09a3 3 0 01-.51-.7 3.1 3.1 0 01-.24-1.38v-6c0-.38.12-.62.27-.76a.94.94 0 01.66-.24c.28 0 .51.09.67.24.14.14.27.38.27.76v4.17c-.1.08-.2.17-.29.27-.2.26-.35.57-.42.9-.15.73.02 1.64.84 2.5l2.1 2.34h0a.87.87 0 001.29 0 .96.96 0 000-1.27h0l-2.3-2.55h0a.75.75 0 01.01-1h0a.55.55 0 01.28-.16c.1-.01.32-.02.67.34l2.28 2.55h.01a5.53 5.53 0 011.75 3.91v4H17.8v-3.16l-.1-.14-2.89-3.89-.33-.44-.09-.13-.02-.03h-.01 0l-.4.29zm17.45-2.14h0l-2.3 2.55h0a.96.96 0 000 1.28.87.87 0 001.3 0h0l2.1-2.35c.81-.86.98-1.78.83-2.5a2.11 2.11 0 00-.42-.9c-.08-.1-.18-.2-.29-.27V18.5c0-.38.13-.62.27-.76a.94.94 0 01.66-.24c.28 0 .51.09.66.24.16.14.28.38.28.76v6c0 .7-.1 1.1-.24 1.38-.12.26-.28.44-.51.7l-.08.09-.02.01v.02l.4.3-.4-.3v0h0l-.02.01-.02.03-.1.13-.32.44-2.9 3.9-.1.13v3.16h-3.78v-4c0-1.66.79-2.89 1.75-3.9h0v-.01l2.3-2.55c.34-.36.56-.35.66-.34.14.03.25.13.28.16a.75.75 0 010 1v0z" fill="#2C70C1" stroke="#2C70C1"/>
    </g>
    <defs>
      <clipPath id="clip0">
        <path fill="#fff" d="M0 0h48v48H0z"/>
      </clipPath>
    </defs>
  </symbol>
  <symbol  xmlns="http://www.w3.org/2000/svg" viewBox="0 0 24 24" id="facebook">
    <path d="M12 0C5.4 0 0 5.41 0 12.07 0 18.1 4.4 23.1 10.13 24v-8.43H7.08v-3.5h3.05V9.41c0-3.02 1.79-4.69 4.53-4.69 1.31 0 2.68.23 2.68.23v2.98h-1.51c-1.49 0-1.96.93-1.96 1.88v2.26h3.34l-.54 3.5h-2.8V24A11.99 11.99 0 0024 12.07C24 5.41 18.6 0 12 0z"  />
  </symbol>
  <symbol  xmlns="http://www.w3.org/2000/svg" viewBox="0 0 32 32" id="instagram">
    <path d="M20.84 16.14a4.76 4.76 0 01-4.83 4.68 4.76 4.76 0 01-4.83-4.68c0-.47.07-.91.2-1.34l-1.2-.26v6.8c0 .34.14.49.48.49h10.68c.34 0 .49-.15.49-.49v-6.8l-1.19.27c.13.42.2.87.2 1.33z"/><ellipse cx="16.01" cy="15.97" rx="3.12" ry="3.02"/><path d="M16 0a16 16 0 100 32 16 16 0 000-32zm7.77 21.83c0 1.1-.84 1.94-1.94 1.94H10.17c-1.1 0-1.94-.84-1.94-1.94V10.17c0-1.1.84-1.94 1.94-1.94h11.66c1.1 0 1.94.84 1.94 1.94v11.66z"/><path d="M21.34 10.17H19.4a.49.49 0 00-.49.49v1.94c0 .27.22.49.49.49h1.94c.27 0 .49-.22.49-.5v-1.93a.49.49 0 00-.49-.49z"/>
  </symbol>
   <symbol  xmlns="http://www.w3.org/2000/svg" viewBox="0 0 96 96" id="vk">
    <path d="M48 0a48 48 0 1048 48A48 48 0 0048 0zm28 62.63c-.3 1.92-3.48 1.56-6.28 1.64a18.46 18.46 0 01-6.25-.55c-1.89-.74-6.91-7.35-8.2-7.1-2.93.6-1.87 6.69-2.71 7.1-1.29.6-5.29.44-6.86.27-8.23-1.37-13-6.85-17.44-13.93-5.51-8.61-8.77-15-7.37-15.85s5.75-.63 10.06-.55c1.32.05 5 9.4 6 11 3.89 6.22 5.1 1.62 5.18 1.07 1.16-11.23-1.59-10.73-3.2-10.96 1.18-3.62 9.57-3 9.57-3a16.34 16.34 0 013.81 1.4c.41.25.88 1.18.85 4.06-.16 4.42-.61 10.37 1.34 10.37 1.48.06 3.81-3.45 5.73-7.07 1.67-3.21 3-6.33 3.54-6.55a38.21 38.21 0 016-.3c2.63 0 5.29 0 6 .55 1.4 1.21-1.07 5-3.32 8.23-1.81 2.63-5.37 6.06-5.15 7.92.28 2.57 9.44 8.05 8.7 12.25z" data-name="Layer 2"/>
  </symbol>
  
  
  
</svg>