<svg width="0" height="0">
  <symbol xmlns="http://www.w3.org/2000/svg" viewBox="0 0 135 26" id="logo">
    <path fill-rule="evenodd" clip-rule="evenodd" d="M13.63.69L3.61 4c-1.3.43-1.74.68-2.18 1.05-.43.36-.75.8-.96 1.33a5.78 5.78 0 00-.31 2.4v14.98c0 .66.06.9.2 1.15.13.24.32.44.56.57.24.13.49.2 1.15.2H30.9c.67 0 .9-.07 1.15-.2.25-.13.44-.33.57-.57.13-.24.2-.49.2-1.15V8.75c0-1.36-.1-1.85-.31-2.38-.21-.52-.52-.96-.95-1.33a5.78 5.78 0 00-2.15-1.06L19.88.72c-1.34-.46-1.8-.58-2.33-.66a5.35 5.35 0 00-1.57 0c-.54.07-1 .18-2.35.63zM2.65 23.19h8.27V10.56a1 1 0 011-1h9.13a1 1 0 011 1v12.63h8.27V8.75c0-.96-.03-1.2-.13-1.45a.86.86 0 00-.25-.36c-.2-.17-.43-.29-1.34-.6l-9.52-3.26c-1.14-.39-1.51-.5-1.9-.55-.3-.04-.56-.05-.86 0-.39.05-.76.15-1.9.53L4.38 6.37c-.92.31-1.15.42-1.35.6-.12.1-.2.2-.26.35-.1.25-.13.5-.13 1.47v14.4zM38.88 8.96c0-.29.13-.43.39-.43h8.5c.14 0 .25.04.32.13.06.09.1.2.1.32v1.56c0 .1-.04.2-.12.28-.07.08-.18.12-.33.12h-6.26v2.69h4.83c.12-.01.21.01.28.07.07.06.1.17.1.32v1.6c0 .1-.02.2-.08.28-.06.08-.15.12-.28.12h-4.85v3.21h6.5c.16 0 .27.04.32.11.05.07.08.18.08.33v1.6c0 .25-.13.38-.39.38h-8.72c-.1 0-.2-.03-.27-.1-.08-.05-.12-.15-.12-.28V8.96zm18.26 9.75c.1-.07.19-.1.25-.12a.83.83 0 01.18-.03c.1.01.18.06.25.16l.21.3.63.89a.6.6 0 01.07.12l.03.12c0 .1-.04.18-.1.26l-.26.22a7 7 0 01-1.61.88 5.57 5.57 0 01-4.8-.45 5.86 5.86 0 01-2.88-5 5.72 5.72 0 012.88-5 5.82 5.82 0 014.74-.5c.58.2 1.1.47 1.55.82v-.01c.07.08.15.15.23.21.08.06.12.16.12.29v.12c0 .05-.02.1-.05.14l-.72 1.1c-.12.18-.25.26-.39.26-.1 0-.21-.05-.34-.15a3.77 3.77 0 00-2.28-.85c-.45 0-.88.1-1.29.29a3.5 3.5 0 00-1.78 1.91 3.58 3.58 0 000 2.74 3.58 3.58 0 001.78 1.88c.4.19.84.28 1.3.28.5 0 .92-.09 1.29-.26.36-.18.7-.38 1-.62zm2.4-2.65a5.77 5.77 0 1111.57 0 5.72 5.72 0 01-2.87 5 5.8 5.8 0 01-8.5-3.46c-.13-.5-.2-1-.2-1.54zm2.48 0a3.64 3.64 0 00.94 2.43 3.28 3.28 0 002.36 1.02 3.05 3.05 0 002.32-1.02 3.7 3.7 0 00.67-3.77 3.28 3.28 0 00-1.7-1.89c-.4-.18-.83-.28-1.3-.28-.47 0-.9.1-1.3.29a3.35 3.35 0 00-1.74 1.88c-.16.43-.25.87-.25 1.34zm21.65-6.57c.07.04.13.09.18.15.04.05.07.13.07.2s-.02.14-.06.21l-.85 1.46c-.1.13-.2.2-.32.2-.03 0-.07 0-.12-.02a.6.6 0 01-.14-.07 4.67 4.67 0 00-1.19-.62 4.07 4.07 0 00-5.14 2.42 4.64 4.64 0 00.85 4.72 3.99 3.99 0 002.94 1.25 4.19 4.19 0 002.56-.84.4.4 0 01.14-.07l.13-.02c.1 0 .2.06.3.2l.88 1.47c.04.07.05.13.05.2s-.02.14-.07.2c-.05.05-.1.1-.17.14a6.99 6.99 0 01-3.8 1.17 6.67 6.67 0 01-6.5-4.94 6.72 6.72 0 010-3.6 6.76 6.76 0 018.49-4.67c.63.2 1.22.48 1.77.86zm13 11.63c0 .11-.03.2-.07.27a.47.47 0 01-.17.15.76.76 0 01-.25.08c-.09.02-.18.03-.28.03h-1.1c-.2 0-.32-.05-.4-.15-.07-.1-.12-.23-.16-.38l-.05-.75a5.48 5.48 0 01-1.49 1.04 4.67 4.67 0 01-1.91.42 5.6 5.6 0 01-2.9-.79 5.62 5.62 0 01-2.07-2.08 5.91 5.91 0 01-.59-4.48 5.91 5.91 0 011.48-2.55 5.7 5.7 0 015.15-1.57 4.53 4.53 0 012.47 1.52l.12-.95.09-.26a.51.51 0 01.1-.16.29.29 0 01.14-.08.92.92 0 01.22-.03h.88c.1 0 .19.01.28.03.1.02.18.05.26.08.07.04.13.1.18.16.04.07.06.15.06.26v10.2zm-9.17-5.1a3.64 3.64 0 00.94 2.46c.3.31.64.57 1.03.75a3.23 3.23 0 002.63 0 3.42 3.42 0 001.8-1.86 3.43 3.43 0 000-2.67 3.58 3.58 0 00-1.8-1.87 3.18 3.18 0 00-3.66.76 3.49 3.49 0 00-.94 2.44zm13.23 5.1c-.06.17-.12.3-.18.4-.06.08-.18.13-.35.13h-1.33c-.37 0-.56-.18-.56-.53V7.63a.5.5 0 01.16-.38c.1-.1.23-.15.36-.15h1.45c.18 0 .32.05.42.16.1.1.15.22.15.37v4.05a4.38 4.38 0 013.35-1.43 5.4 5.4 0 014 1.7 5.74 5.74 0 011.63 4.1 5.9 5.9 0 01-1.63 4.1 5.66 5.66 0 01-4 1.7 4.23 4.23 0 01-1.9-.43 4.64 4.64 0 01-1.5-1.05l-.07.75zm6.62-5.06a3.64 3.64 0 00-.93-2.45c-.3-.33-.64-.58-1.04-.77a3.12 3.12 0 00-2.62 0 3.55 3.55 0 00-2.08 3.22v.06c0 .46.1.9.28 1.3a3.6 3.6 0 001.8 1.82 3.23 3.23 0 004.34-1.85c.17-.42.25-.86.25-1.33zm3.82-5.1c0-.14.05-.27.14-.37.08-.1.21-.16.38-.16h1.47a.56.56 0 01.38.15c.05.06.1.11.13.18.03.06.05.13.05.2v10.16c0 .35-.19.53-.56.53h-1.46c-.35 0-.53-.18-.53-.53V10.97zm0-3.9c0-.35.18-.52.52-.52h1.48c.17 0 .3.04.4.13.1.09.15.22.15.4v1.31c0 .14-.05.27-.14.39a.47.47 0 01-.4.18h-1.48c-.35 0-.53-.2-.53-.57V7.07zm4.76 3.9c0-.1.03-.18.1-.27.08-.1.14-.16.2-.18.05-.05.13-.07.22-.07H117.61c.16 0 .29.05.37.16.08.11.14.23.17.37l.1.94a3.9 3.9 0 011.2-1.12 3.99 3.99 0 012.1-.51c.69 0 1.3.13 1.84.38s1 .59 1.37 1.02c.37.44.65.95.84 1.54.19.59.28 1.22.28 1.9v5.89c0 .21-.05.37-.14.48-.1.1-.25.16-.44.16h-1.34c-.23 0-.39-.05-.47-.14-.08-.09-.12-.24-.12-.46v-5.89a2.7 2.7 0 00-.62-1.7 2.25 2.25 0 00-1.79-.79 2.73 2.73 0 00-2.24 1.36c-.16.28-.24.6-.24.97v5.72l-.02.33a.98.98 0 01-.08.3.51.51 0 01-.16.22.45.45 0 01-.27.08h-1.46c-.19 0-.33-.05-.42-.14-.1-.1-.14-.22-.14-.4V10.96zm12.5 7.52c.13.2.29.37.48.5a3.2 3.2 0 001.14.56c.18.04.32.06.42.06.17 0 .36-.02.59-.06.22-.03.43-.1.63-.19s.36-.21.5-.37c.13-.15.2-.35.2-.6a.94.94 0 00-.16-.57c-.1-.14-.25-.27-.44-.36-.18-.1-.4-.18-.63-.25l-.76-.2a7.39 7.39 0 01-1.57-.6c-.44-.24-.8-.5-1.07-.8-.28-.3-.49-.63-.62-1a3.45 3.45 0 01.1-2.47c.18-.4.44-.74.79-1.02.34-.28.75-.5 1.22-.66a5.11 5.11 0 013.6.21c.27.15.53.33.77.56.25.22.5.48.75.78.09.1.13.21.13.31s-.06.2-.18.3a8.87 8.87 0 00-.67.58c-.11.1-.22.18-.33.25a.5.5 0 01-.26.1c-.13 0-.26-.07-.38-.22a3.9 3.9 0 00-.4-.4 2.03 2.03 0 00-.85-.45 2.36 2.36 0 00-.54-.06 1.9 1.9 0 00-.97.28c-.15.1-.27.2-.37.34a.74.74 0 00-.14.45c0 .19.06.35.18.48s.27.25.46.34c.18.1.38.18.6.25l.6.17c.55.16 1.04.33 1.5.53.45.2.84.45 1.16.73.33.29.58.62.77 1 .18.4.27.84.27 1.36a3.2 3.2 0 01-1.23 2.57c-.38.3-.84.53-1.37.7a5.9 5.9 0 01-2.84.11 4.78 4.78 0 01-2.06-1.01 3.5 3.5 0 01-.75-.94.8.8 0 01-.13-.4c0-.07.02-.14.06-.2a.78.78 0 01.15-.16l.99-.76a.47.47 0 01.24-.07c.08 0 .15.02.22.08l.2.22z" />
  </symbol>
</svg>