<svg version="1.0" xmlns="http://www.w3.org/2000/svg" width="224" height="224" viewBox="0 0 168 168"><path d="M.2 57.5l.1 56.6 15.3 24.2c8.4 13.3 15.9 25 16.6 26.1 1.3 1.7 3.2 1.8 31.5 1.8 32.8.1 36.3-.4 47.3-5.6 8.2-3.8 20.3-15.6 24.3-23.8 11.4-22.9 6.8-49.8-11.4-67-6.8-6.4-17.6-12.3-24.4-13.4-2.5-.3-4.5-.7-4.5-.9 0-.1 1.6-1.9 3.5-4 7.8-8.2 10.4-19.2 7-30-2.2-6.9-8.8-14.6-15.3-17.7-4.6-2.3-5.4-2.3-47.3-2.6L.2.9v56.6zM87 7.8c5.1 2.4 6.5 3.4 10.2 8 7.4 9 6 25.4-2.8 33.2-6.5 5.7-6.9 5.7-33.2 5.6L37 54.5l-14.9-24C13.9 17.3 7.3 6.3 7.5 6c.2-.3 17.1-.5 37.7-.4 35.8 0 37.5.1 41.8 2.2zM19.6 35.6l13.9 22.7v25.3c0 21.7-.2 25.3-1.5 25.6-.8.2-7.1.3-14 .3H5.5l-.3-48.3C5.1 34.7 5.1 13 5.4 13c.2 0 6.6 10.2 14.2 22.6zm71 28c11.3 8 14.7 20 9 31.8-1.5 3-4.2 6.6-6.1 8.1-7.2 5.4-9.2 5.8-33.2 5.9l-22.3.2V59.5h23.5l23.4.1 5.7 4zm11.6-1.5c16.3 5.5 28.9 19.2 33.3 36.4 6.8 26.6-10.6 55.7-37.1 61.8-4.2 1-13.8 1.4-33.1 1.4l-27.3.1v-47.7l23.8-.3c22.3-.3 24-.4 28.3-2.6 2.5-1.2 6.2-3.9 8.2-5.9 11.3-11.2 11.5-30.5.5-41.3-2.3-2.2-3.8-4-3.4-4 .4 0 3.4.9 6.8 2.1zm-68.7 72.3c0 11.3-.3 20.7-.5 21-.3.3-5.6-7.5-11.8-17.2-6.2-9.7-12.1-19.2-13.3-21L5.8 114h27.7v20.4z"/></svg>