<svg width="12" height="12" fill="none" xmlns="http://www.w3.org/2000/svg"><path fill-rule="evenodd" clip-rule="evenodd" d="M2 7.7H.5c-.3 0-.5-.3-.5-.5v-6C0 .7.2.5.5.5h9c.3 0 .5.2.5.5v6c0 .3-.2.6-.5.6H6.2L2.8 9.9c-.3.2-.8 0-.8-.4V7.7zM11 3c0-.3.2-.5.5-.5s.5.2.5.5v6c0 .3-.2.5-.5.5H10V11c0 .4-.5.6-.8.4L6.3 9.5H6c-.3 0-.5-.2-.5-.5s.2-.5.5-.5h.5l.3.1 2.1 1.3V9c0-.3.3-.5.6-.5h1.4V3zM1 1.6h8v5H6l-.3.1L3 8.5V7.2c0-.3-.3-.5-.6-.5H1.1v-5z" fill="#2296F9"/><mask id="a" maskUnits="userSpaceOnUse" x="0" y="0" width="12" height="12"><path fill-rule="evenodd" clip-rule="evenodd" d="M2 7.7H.5c-.3 0-.5-.3-.5-.5v-6C0 .7.2.5.5.5h9c.3 0 .5.2.5.5v6c0 .3-.2.6-.5.6H6.2L2.8 9.9c-.3.2-.8 0-.8-.4V7.7zM11 3c0-.3.2-.5.5-.5s.5.2.5.5v6c0 .3-.2.5-.5.5H10V11c0 .4-.5.6-.8.4L6.3 9.5H6c-.3 0-.5-.2-.5-.5s.2-.5.5-.5h.5l.3.1 2.1 1.3V9c0-.3.3-.5.6-.5h1.4V3zM1 1.6h8v5H6l-.3.1L3 8.5V7.2c0-.3-.3-.5-.6-.5H1.1v-5z" fill="#fff"/></mask></svg>