<svg width="12" height="12" fill="none" xmlns="http://www.w3.org/2000/svg"><path fill-rule="evenodd" clip-rule="evenodd" d="M11 6.7a3.9 3.9 0 000-5.3 3.4 3.4 0 00-5 0 3.4 3.4 0 00-5 0 3.9 3.9 0 000 5.3l4.6 4.8c.2.3.6.3.8 0L11 6.7zm-.8-.8L6 10.3 1.8 5.9c-1-1-1-2.7 0-3.7a2.3 2.3 0 013.7.4c.3.4.7.4 1 0l.3-.4c1-1 2.4-1 3.4 0s1 2.6 0 3.7z" fill="#2296F9"/><mask id="a" maskUnits="userSpaceOnUse" x="0" y="0" width="13" height="12"><path fill-rule="evenodd" clip-rule="evenodd" d="M11 6.7a3.9 3.9 0 000-5.3 3.4 3.4 0 00-5 0 3.4 3.4 0 00-5 0 3.9 3.9 0 000 5.3l4.6 4.8c.2.3.6.3.8 0L11 6.7zm-.8-.8L6 10.3 1.8 5.9c-1-1-1-2.7 0-3.7a2.3 2.3 0 013.7.4c.3.4.7.4 1 0l.3-.4c1-1 2.4-1 3.4 0s1 2.6 0 3.7z" fill="#fff"/></mask></svg>