<svg width="50" height="50" fill="none" xmlns="http://www.w3.org/2000/svg"><circle cx="25" cy="25" r="25" fill="#0096FF"/><path fill-rule="evenodd" clip-rule="evenodd" d="M31.7 21.7c0 1.1-.4 2.4-1.2 3.8a23.8 23.8 0 01-4 5.2 36.6 36.6 0 01-.9 1 1 1 0 01-1.2 0 19 19 0 01-1-1 38.5 38.5 0 01-3.9-5.2 8.1 8.1 0 01-1.2-3.8c0-4 3.1-6.7 6.7-6.7s6.7 2.8 6.7 6.7zm-6.5 7.8a36.7 36.7 0 003.7-4.9c.6-1.2 1-2.2 1-3 0-2.8-2.3-4.8-4.9-4.8-2.6 0-4.9 2-4.9 4.9 0 .7.4 1.7 1 2.9a22 22 0 003.7 5l.2.2.2-.3zm-2.8-7.8a2.6 2.6 0 105.2 0 2.6 2.6 0 00-5.2 0zm2.6.7a.7.7 0 100-1.4.7.7 0 000 1.4zm4 7c0 .5.3 1 .8 1 1.2.2 2.1.5 2.8.8a3.2 3.2 0 01.6.4c0 .6-3.7 1.6-8.2 1.6-4.5 0-8.2-1-8.2-1.6l.6-.4c.7-.3 1.6-.6 2.8-.8a1 1 0 10-.3-1.8c-3 .6-4.9 1.5-4.9 3 0 2.2 4.4 3.4 10 3.4s10-1.2 10-3.4c0-1.5-1.9-2.4-4.9-3a1 1 0 00-1 .8z" fill="#fff"/></svg>