<svg width="18" height="18" fill="none" xmlns="http://www.w3.org/2000/svg"><path fill-rule="evenodd" clip-rule="evenodd" d="M9 .5H5.5c-1 0-1.5.2-2 .4-.7.2-1.1.5-1.6 1s-.8 1-1 1.5l-.4 2a61.4 61.4 0 00.4 9.2c.2.6.5 1 1 1.5s1 .8 1.5 1l2 .4a60.5 60.5 0 009.2-.4c.6-.2 1-.5 1.5-1s.8-1 1-1.5l.4-2a61 61 0 00-.4-9.2c-.2-.6-.5-1-1-1.5s-1-.8-1.5-1l-2-.4H9zM8.2 2H9a59.7 59.7 0 015 .3l1 .7.7 1c0 .3.2.7.2 1.6a59.3 59.3 0 01-.2 8.4l-.7 1c-.3.3-.6.5-1 .6a59.4 59.4 0 01-10 0c-.4-.1-.7-.3-1-.6l-.7-1c0-.3-.2-.7-.2-1.6A59.7 59.7 0 012.3 4L3 3l1-.7c.3 0 .7-.2 1.6-.2L8.2 2zm5.4 1.4a1 1 0 100 2 1 1 0 000-2zM9 4.6a4.4 4.4 0 100 8.8 4.4 4.4 0 000-8.8zm0 1.6a2.8 2.8 0 110 5.6 2.8 2.8 0 010-5.6z" fill="#0096FF"/></svg>