<svg width="85" height="89" fill="none" xmlns="http://www.w3.org/2000/svg"><g clip-path="url(#clip0)"><path d="M27.6 57.3v8c0 13 9.9 23.6 22 23.6s22-10.6 22-23.5v-2.9c5.6-1.2 9.8-6.4 9.8-12.7 0-7.1-5.5-13-12.2-13-6.8 0-12.3 5.9-12.3 13 0 6.3 4.3 11.5 9.8 12.7v2.9c0 10-7.7 18.3-17.1 18.3-9.4 0-17.1-8.3-17.1-18.3v-8c10-2 21.5-15.2 23.5-27.7 1.3-8.2-2-14.8-8.8-18V8c0-4.3-3.3-7.8-7.4-7.8-4 0-7.3 3.5-7.3 7.8s3.3 7.8 7.3 7.8h4.4c5.6 2.2 8 6.7 7 13C49.4 39.5 38 52.3 30 52.3c-8.9 0-21.3-15-21.3-26.1 0-5 2.4-8.5 7.1-10.4h4.4c4 0 7.4-3.5 7.4-7.8S24.3.3 20.2.3c-4 0-7.3 3.5-7.3 7.8v3.5c-5.9 2.8-9.2 8-9.1 14.7 0 13 12.7 28.8 23.8 31zm39.1-10h5v5.1h-5v-5.2z" fill="#fff"/></g><defs><clipPath id="clip0"><path fill="#fff" transform="translate(.8 .3)" d="M0 0h83.5v88.6H0z"/></clipPath></defs></svg>