<svg width="146" height="29" fill="none" xmlns="http://www.w3.org/2000/svg"><path fill-rule="evenodd" clip-rule="evenodd" d="M124 20c2.5 0 4.5-2.7 4.5-6V6h2v8c0 4.4-3 8-6.5 8s-6.4-3.6-6.4-8V6h2v8c0 3.4 2 6 4.4 6zm-48.2 2h-2v-1.4a8 8 0 111.6-11.8L74 10.1a6 6 0 10-4.5 10c1.7 0 3.3-.7 4.4-2h-5.4v-2h7.3v6zM42 6.2h-2v16h8v-2h-6V6zm12.2 12a6 6 0 100-12 6 6 0 000 12zm0-2a4 4 0 100-8 4 4 0 000 8zm4 6v-2h-8v2h8zm31-10a6 6 0 10-12 0 6 6 0 0012 0zm-6 4a4 4 0 10-4-4 4 4 0 004 4zm4 6v-2h-8v2h8zm4.1-16h2v16h-2V6zm6.8 0h-2v16h2v-4h.3a6 6 0 100-12h-.3zm0 2zm0 0h.3a4 4 0 110 8h-.3V8zm14.4-.8zm-2.8-1.1c1 0 2 .4 2.8 1.1L111 8.4a2 2 0 00-3.3 1.2v.1c0 1 .6 1.5 1.8 1.6 4.6.3 6.7 2.4 6.7 5.3v.1a5.9 5.9 0 01-10.2 3.5l1.5-1.2c.8.8 1.8 1.2 2.8 1.1 2 .1 3.8-1.4 4-3.4v-.1c0-2.7-2.7-3.2-5-3.4-2-.2-3.5-1.5-3.5-3.4.1-2.1 1.8-3.7 3.9-3.6zM143.8 22h2V6.1l-6.6 8.7-6.6-8.7v16h2V12l4.6 6 4.6-6V22z" fill="#000"/><path d="M27.2 2.7A7.9 7.9 0 0021.3 0c-1.8 0-3.7 1-5.1 1.8l-1.4.7c-.3 0-1-.4-1.5-.7C12 1.1 10 0 8.2 0c-2.3 0-4.4 1-6 2.7a9 9 0 00-2.2 6A33.9 33.9 0 005.8 26c1 1.5 2 2.2 2.7 2.2.4 0 1-.1 1.4-1.1l1-3.3c.9-3.2 2-7.1 3.8-7.1h.1c.8 0 1.5.7 2.2 2 .7 1.4 1.2 3.3 1.6 5a47 47 0 001 3.4c.4 1 1 1.1 1.4 1.1.8 0 1.7-.7 2.7-2.3a34 34 0 005.8-17.2 9 9 0 00-2.3-6zM20.8 5s-2-.1-3.6-.6c-.8-.2-1.7-.6-1.7-.7l1.3-.8c1.3-.7 3-1.7 4.5-1.7 4.4 0 7 3.8 7 7.5a33.2 33.2 0 01-5.6 16.6c-1 1.3-1.5 1.7-1.7 1.7-.1 0-.2-.1-.2-.4-.4-.9-.7-2-1-3.1-.5-1.9-1-3.8-1.7-5.3-1-1.8-2-2.7-3.3-2.7h-.1c-1.3 0-2.3.9-3.2 2.7-.7 1.5-1.2 3.4-1.8 5.2-.3 1.2-.6 2.3-1 3.2 0 .3 0 .4-.2.4 0 0-.6 0-1.7-1.7A33.2 33.2 0 011.2 8.7c0-3.7 2.6-7.5 7-7.5a8 8 0 014 1.4l.7.5a39.4 39.4 0 001.6 1.1l.8.4a8.8 8.8 0 005.5.5h.1l-.1-.1z" fill="#0096FF"/></svg>