<svg width="16" height="14" fill="none" xmlns="http://www.w3.org/2000/svg"><path fill-rule="evenodd" clip-rule="evenodd" d="M7.5 4v.6L7 4.5c-2-.3-3.8-1.2-5.3-2.6L.9 1l-.2.6C.3 2.9.6 4.2 1.4 5c.5.5.4.6-.4.3l-.5-.1.4 1.5c.3.5.9 1 1.5 1.4l.6.3h-.7c-.6 0-.6 0-.6.2.3.8 1.1 1.6 2.1 1.9l.7.2-.6.4c-.9.5-2 .8-3 .8L0 12a9.5 9.5 0 009.5.2A9.8 9.8 0 0014 4.4c0-.5 0-.6.6-1.2l.8-.9c.1-.2.1-.2-.4 0-1 .3-1.1.3-.7-.2.4-.4.8-1 .8-1.2l-.3.1-1 .4-.6.2-.6-.4-1-.5c-.5-.2-1.4-.1-1.9 0A3.2 3.2 0 007.5 4z" fill="#0096FF"/></svg>