<svg width="48" height="48" fill="none"><g clip-path="url(#clip0)"><path d="M46.97 25.75C50.6 12.62 44.3 0 33.3 0c-6.1 0-8.7 3.5-15.4 11.66C11.2 19.82 1.65 8.48 0 25.75c1.39 15.91 18.65 30.31 26.67 17.02 7.3-12.1 16.66-3.9 20.3-17.02z" fill="#E6F1F9"/><path d="M27.92 19c-.55 0-.92.37-.92.92v9.58c0 .46.37.92.92.92.19-1.56 1.42-2.92 3.08-2.92 1.66 0 2.82 1.34 3 3h1c.56 0 1-.4 1-.96v-4.62c0-.83-.75-1.84-.75-1.84l-2.02-3.12c-.46-.55-.74-.92-1.38-.92L27.92 19zM29 21h3l2.07 3.09c.18.27.43.63.43.91H29v-4zm-13 8c-1.17 0-2 .83-2 2s.83 2 2 2 2-.83 2-2-.83-2-2-2zm15 0c-1.17 0-2 .83-2 2s.83 2 2 2 2-.83 2-2-.83-2-2-2zm-11 2c0-1.17.83-2 2-2s2 .83 2 2-.83 2-2 2-2-.83-2-2zm-6.45-10a2 2 0 01-.55-2.4l1.11-2.39a2 2 0 012.2-1.12l4.05.79a2 2 0 01.47.15l3.69 1.72a1.44 1.44 0 01.7 1.92l-2.5 5.54a1.44 1.44 0 01-1.91.7l-3.7-1.73a2 2 0 01-.4-.26L13.54 21z" fill="#036FC7"/><path d="M12.5 27c-.55 0-.5.45-.5 1v1.5c0 .55-.05.96.5.96h.5V28h12v2.46l.21-.04c.56 0 .79-.37.79-.92V28a1 1 0 00-1-1H12.5z" fill="#036FC7"/></g><defs><clipPath id="clip0"><path fill="#fff" d="M0 0h48v48H0z"/></clipPath></defs></svg>