<svg width="48" height="48" fill="none"><g clip-path="url(#clip0)"><path d="M33.3 48c11.01 0 17.3-12.63 13.67-25.75-3.64-13.12-13-4.92-20.3-17.02C18.65-8.07 1.39 6.33 0 22.25.53 30.84 7.93 48 33.3 48z" fill="#E6F1F9"/><path d="M14.02 14v13.2c-1.1.64-2.02 1.83-2.02 3.16 0 2 1.66 3.64 3.7 3.64h11.07c2.03 0 3.7-1.64 3.7-3.64-.01-.64-.2-1.27-.52-1.81l2.55-.05v1.86c0 2 1.47 3.64 3.5 3.64v-1.5c-1.03 0-2-1.12-2-2.14V23h-1.5v3.76l-3.45-.03 1.41-3.47v-1.99h-3.69v-2.72c0-.52.4-.91.92-.91v-1.82a2.76 2.76 0 00-2.77 2.73v2.72h-1.2L20.95 14h-6.93zm1.67 1.82h3.98l2.07 5.45H15.7v-5.45zm0 7.27h12.85L27 26.73H15.7v-3.64zm0 5.46h11.08a1.82 1.82 0 110 3.63H15.69a1.82 1.82 0 110-3.63zm0 .9c-.24 0-.48.1-.65.27a.9.9 0 000 1.29.93.93 0 001.5-.3.9.9 0 00-.2-.99.93.93 0 00-.65-.27zm3.7 0a.93.93 0 00-.86.57.9.9 0 00.2.99.93.93 0 001.5-.3.9.9 0 00-.2-.99.93.93 0 00-.64-.27zm3.69 0a.93.93 0 00-.85.57.9.9 0 00.2.99.93.93 0 001.5-.3.9.9 0 00-.2-.99.93.93 0 00-.65-.27zm3.69 0a.93.93 0 00-.85.57.9.9 0 00.2.99.93.93 0 001.5-.3.9.9 0 00-.2-.99.93.93 0 00-.65-.27z" fill="#036FC7"/></g><defs><clipPath id="clip0"><path fill="#fff" d="M0 0h48v48H0z"/></clipPath></defs></svg>