<svg width="48" height="48" fill="none"><g clip-path="url(#clip0)"><path d="M1.03 25.75C-2.6 12.62 3.7 0 14.71 0c6.1 0 8.7 3.5 15.4 11.66C36.8 19.82 46.34 8.48 48 25.75c-1.39 15.91-18.65 30.31-26.67 17.02-7.3-12.1-16.66-3.9-20.3-17.02z" fill="#E6F1F9"/><path d="M15 13c-.6 0-1 .4-1 1v6c0 .6.4 1 1 1h15c.6 0 1-.4 1-1v-2h1v5h-8c-1.1 0-2 .9-2 2v2c-.6 0-1 .4-1 1v6c0 .6.4 1 1 1h2c.6 0 1-.4 1-1v-6c0-.6-.4-1-1-1v-2h8c1.1 0 2-.9 2-2v-5c0-1.1-.9-2-2-2h-1v-2c0-.6-.4-1-1-1H15zm1 2h13v4H16v-4z" fill="#036FC7"/></g><defs><clipPath id="clip0"><path fill="#fff" d="M0 0h48v48H0z"/></clipPath></defs></svg>