<svg width="48" height="48" fill="none"><g clip-path="url(#clip0)"><path d="M33.3 48c11.01 0 17.3-12.63 13.67-25.75-3.64-13.12-13-4.92-20.3-17.02C18.65-8.07 1.39 6.33 0 22.25.53 30.84 7.93 48 33.3 48z" fill="#E6F1F9"/><path d="M12.75 35.25V25.16c1.1-.58 3.46-1.5 6.16-1.5 1.72 0 3.15 1 4.88 2.22h0c1.66 1.17 3.58 2.5 6.03 2.5 2.42 0 4.24-.86 5.43-1.78v8.65h-22.5z" stroke="#036FC7" stroke-width="1.5"/><path d="M17 15a1 1 0 012 0v8.16L17 24v-9zm6-2a1 1 0 012 0v13l-2-1V13zm6 2a1 1 0 012 0v13h-2V15z" fill="#036FC7"/><path d="M13 17a1 1 0 011-1h20a1 1 0 010 2H14a1 1 0 01-1-1zm0 4a1 1 0 011-1h20a1 1 0 010 2H14a1 1 0 01-1-1zm2 6h2v2h-2v-2zm1 4h2v2h-2v-2zm5-2h2v2h-2v-2zm6 2h2v2h-2v-2zm4-1h2v2h-2v-2z" fill="#036FC7"/></g><defs><clipPath id="clip0"><path fill="#fff" d="M0 0h48v48H0z"/></clipPath></defs></svg>