<svg width="48" height="48" fill="none"><g clip-path="url(#clip0)"><path d="M46.97 25.75C50.6 12.62 44.3 0 33.3 0c-6.1 0-8.7 3.5-15.4 11.66C11.2 19.82 1.65 8.48 0 25.75c1.39 15.91 18.65 30.31 26.67 17.02 7.3-12.1 16.66-3.9 20.3-17.02z" fill="#E6F1F9"/><path fill-rule="evenodd" clip-rule="evenodd" d="M12 14h2v7h7v-7h2v8a1 1 0 01-1 1h-9a1 1 0 01-1-1v-8zm13 0h2v7h7v-7h2v8a1 1 0 01-1 1h-9a1 1 0 01-1-1v-8zM12 25h2v7h7v-7h2v8a1 1 0 01-1 1h-9a1 1 0 01-1-1v-8zm13 0h2v7h7v-7h2v8a1 1 0 01-1 1h-9a1 1 0 01-1-1v-8z" fill="#036FC7"/></g><defs><clipPath id="clip0"><path fill="#fff" d="M0 0h48v48H0z"/></clipPath></defs></svg>