<svg width="48" height="48" fill="none"><g clip-path="url(#clip0)"><path d="M1.03 25.75C-2.6 12.62 3.7 0 14.71 0c6.1 0 8.7 3.5 15.4 11.66C36.8 19.82 46.34 8.48 48 25.75c-1.39 15.91-18.65 30.31-26.67 17.02-7.3-12.1-16.66-3.9-20.3-17.02z" fill="#E6F1F9"/><path d="M12 12v8h2v-1h6a1 1 0 011 1v10c0 2.75 2.25 5 5 5h8v1h2v-8h-2v1h-6a1 1 0 01-1-1V18c0-2.75-2.25-5-5-5h-8v-1h-2zm2 3h8c1.67 0 3 1.33 3 3v5h-2v-4c0-1.1-.9-2-2-2h-7v-2zm9 10h2v4c0 1.1.9 2 2 2h7v2h-8c-1.67 0-3-1.33-3-3v-5z" fill="#036FC7"/><path d="M20 23h8v3h-8v-3z" fill="#036FC7"/></g><defs><clipPath id="clip0"><path fill="#fff" d="M0 0h48v48H0z"/></clipPath></defs></svg>