<svg width="48" height="48" fill="none"><g clip-path="url(#clip0)"><path d="M46.97 25.75C50.6 12.62 44.3 0 33.3 0c-6.1 0-8.7 3.5-15.4 11.66C11.2 19.82 1.65 8.48 0 25.75c1.39 15.91 18.65 30.31 26.67 17.02 7.3-12.1 16.66-3.9 20.3-17.02z" fill="#E6F1F9"/><path d="M13 12h2v23h-2V12zm20 0h2v23h-2V12z" fill="#036FC7"/><path d="M12 34h4v2h-4v-2zm20 0h4v2h-4v-2zM13 14h22v2H13v-2zm0 15h21v2H13v-2z" fill="#036FC7"/><path d="M14 16l20 13m-20 0l20-13-20 13z" stroke="#036FC7" stroke-width="2" stroke-linejoin="bevel"/></g><defs><clipPath id="clip0"><path fill="#fff" d="M0 0h48v48H0z"/></clipPath></defs></svg>