<svg width="48" height="48" fill="none"><g clip-path="url(#clip0)"><path d="M1.03 25.75C-2.6 12.62 3.7 0 14.71 0c6.1 0 8.7 3.5 15.4 11.66C36.8 19.82 46.34 8.48 48 25.75c-1.39 15.91-18.65 30.31-26.67 17.02-7.3-12.1-16.66-3.9-20.3-17.02z" fill="#E6F1F9"/><path d="M20.73 12l-1.1 2H12v2h2l1 18c.16 1.2 1.18 2 2.52 2h12.93c1.35 0 2.4-.8 2.55-2l1-18h2v-2h-7.64l-1.09-2h-6.54zM16 16h16l-1 18H17l-1-18zm4 3l.73 9.5c0 .66.6 1.5 1.33 1.5H23V19h-3zm5 0v11h1.18c.74 0 1.1-.84 1.1-1.5L28 19h-3z" fill="#036FC7"/></g><defs><clipPath id="clip0"><path fill="#fff" d="M0 0h48v48H0z"/></clipPath></defs></svg>