<svg xmlns="http://www.w3.org/2000/svg" viewBox="0 0 512 512"><path d="M453 361.3c-2.8-1.1-6-.5-8.2 1.6l-82 82.2a7.5 7.5 0 005.2 12.8h82.2c4.1 0 7.5-3.4 7.5-7.5v-82.1c0-3-1.9-5.8-4.7-7zM386.2 443l56.4-56.5V443h-56.4z"/><path d="M507.4 240.9c-2.8-1.2-6-.6-8.2 1.6L476.7 265V112c0-4.2-3.4-7.5-7.6-7.5h-57.7l21-21 20.2-20.2a22.8 22.8 0 000-32.4L429.2 7.5a22.8 22.8 0 00-32.4 0l-20.2 20.2-24.4 24.5-52.3 52.3H66.6V30c0-4.1-3.3-7.5-7.5-7.5A59.2 59.2 0 000 81.7v319.2A56.6 56.6 0 0057 455h229.6l-43.3 43.2a7.5 7.5 0 005.3 12.9h255.9c4.1 0 7.5-3.4 7.5-7.5V247.8c0-3-1.8-5.8-4.6-7zm-100-222.7c3.1-3.1 8.1-3.1 11.2 0l23.3 23.3c3.1 3 3.1 8 0 11.2l-14.8 14.9L392.5 33l15-15zM382 43.7l34.5 34.5L402.6 92l-34.5-34.5L382 43.7zm115 288.6h-13.8a7.5 7.5 0 100 15H497v22.6H483a7.5 7.5 0 100 15H497v22.7H483a7.5 7.5 0 100 15H497v22.7H483a7.5 7.5 0 100 15H497v35.9H266.8l75.9-76a7.5 7.5 0 10-10.6-10.6l-30.5 30.5H56.9a41.7 41.7 0 01-41.8-40.6l.3-4.2c0-.7.2-1.4.3-2v-.3a43.5 43.5 0 011.8-6.7l.3-.8.6-1.5.2-.4.8-1.7v-.1a44.2 44.2 0 0130.7-24l.2-.1 1.8-.3h.4c.5-.2 1.1-.2 1.7-.3h.5l1.6-.2H59.1c4.2 0 7.5-3.5 7.5-7.6v-54.5a7.5 7.5 0 10-15 0v47.5A58.7 58.7 0 0015 361.5V81.7a44.2 44.2 0 0136.6-43.4V264.7a7.5 7.5 0 0015 0V119.5H285L243.3 161a7.5 7.5 0 0010.6 10.7l54.4-54.4L357.5 68l34.5 34.5-4 4-151.6 151.6-34.5-34.5 29.9-29.9a7.5 7.5 0 00-10.6-10.6L186 218.4l-.6.6-.1.2-.3.4-.2.3a7.1 7.1 0 00-.5 1.1l-.1.2-14.6 41.5-10 28.2-.3 1.2h-25a7.5 7.5 0 100 15h208.1a7.5 7.5 0 100-15H193.1l45.8-16.2h.1l.6-.3h.2l.5-.4h.2l.5-.4.1-.1.6-.6 154.7-154.6h65.2V280L354.1 387.5a7.5 7.5 0 1010.7 10.7L497 265.9v66.4zm-274.2-66.6l-21.5 7.6-14.4-14.3 7.6-21.6 28.3 28.3z"/></svg>