<svg height="512" width="512" xmlns="http://www.w3.org/2000/svg"><path d="M318.4 276.8a8 8 0 001.6-4.8v-30.7l6.1-18.3a15.5 15.5 0 00-3.8-16 15.7 15.7 0 00-20.4-1.4l-24.8 18.6A24 24 0 00256 248v12.3l-49.2 42.2-36.5-18.3a40.2 40.2 0 00-17.9-4.2H128v-1.4a24 24 0 0016-22.6v-33.4a24 24 0 00-8-46.6H96a40 40 0 00-40 40v16a8 8 0 001.3 4.4l14.7 22V280h-8a48 48 0 00-48 48v96a8 8 0 00.4 2.5l7.6 22.8V496h16v-40h96v40h16v-46.7l7.6-22.8a8 8 0 00.4-2.5v-60.2l16.6 6.7a77.3 77.3 0 0090.6-25.4zM72 216a24 24 0 0124-24h40a8 8 0 010 16h-16a8 8 0 00-7.4 5l-14 35H84.3L72 229.6zm16 48h16a8 8 0 007.4-5l14-35h2.6v32a8 8 0 01-8 8 8 8 0 00-8 8v8H88zm67 80.6a8 8 0 00-11 7.4v70.7l-5.8 17.3H37.8L32 422.7V328a32 32 0 0132-32h88.4a24.1 24.1 0 0110.8 2.5l25 12.6-17 40zm99.4-9.1a61.2 61.2 0 01-68.4 21.4l16.6-38.7 1.8 1a8 8 0 008.8-1.1l56-48a8 8 0 002.8-6.1v-16a8 8 0 018-8 8 8 0 004.8-1.6l25.7-19.3-6 18.4a8 8 0 00-.5 2.5v29.3z"/><path d="M472 16H216a24 24 0 00-24 24v240h16V88h272v264a8 8 0 01-8 8H264v16h208a24 24 0 0024-24V40a24 24 0 00-24-24zM208 72V40a8 8 0 018-8h256a8 8 0 018 8v32z"/><circle cx="224" cy="48" r="8"/><circle cx="248" cy="48" r="8"/><circle cx="272" cy="48" r="8"/><path d="M256 136v-16h-16a8 8 0 00-8 8v48a8 8 0 008 8h48a8 8 0 008-8v-44.7l13.7-13.6-11.4-11.4-48 48 11.4 11.4 18.3-18.4V168h-32v-32zM320 128h32v16h-32zM368 128h88v16h-88zM320 160h64v16h-64zM400 160h16v16h-16zM408 208h48v16h-48zM344 208h48v16h-48zM336 240h80v16h-80zM432 240h16v16h-16zM408 288h48v16h-48zM344 288h48v16h-48zM336 320h80v16h-80zM432 320h16v16h-16z"/></svg>