<?xml version="1.0" standalone="no"?>
<!DOCTYPE svg PUBLIC "-//W3C//DTD SVG 20010904//EN"
 "http://www.w3.org/TR/2001/REC-SVG-20010904/DTD/svg10.dtd">
<svg version="1.0" xmlns="http://www.w3.org/2000/svg"
 width="1056.000000pt" height="1056.000000pt" viewBox="0 0 1056.000000 1056.000000"
 preserveAspectRatio="xMidYMid meet">
<metadata>
Created by potrace 1.11, written by Peter Selinger 2001-2013
</metadata>
<g transform="translate(0.000000,1056.000000) scale(0.100000,-0.100000)"
fill="#000000" stroke="none">
<path d="M5165 9430 c-22 -4 -62 -10 -90 -14 -46 -5 -66 -9 -120 -20 -50 -10
-184 -47 -223 -60 -23 -8 -42 -13 -42 -11 0 3 -17 -2 -37 -9 -21 -8 -130 -44
-243 -81 -113 -36 -212 -68 -220 -72 -8 -3 -19 -7 -25 -8 -22 -6 -451 -147
-470 -155 -11 -5 -51 -18 -90 -30 -38 -12 -79 -25 -90 -30 -11 -5 -72 -25
-135 -45 -63 -20 -122 -39 -130 -42 -8 -4 -17 -7 -20 -8 -3 0 -70 -22 -150
-49 -80 -26 -149 -48 -155 -50 -5 -2 -13 -3 -16 -2 -3 0 -13 -5 -22 -13 -10
-7 -17 -11 -17 -7 0 3 -16 -1 -36 -9 -20 -8 -46 -17 -58 -19 -11 -2 -34 -10
-51 -17 -16 -6 -34 -13 -40 -15 -5 -1 -66 -21 -135 -44 -69 -23 -129 -43 -135
-44 -5 -2 -17 -6 -25 -9 -8 -3 -46 -15 -85 -27 -38 -12 -79 -25 -90 -30 -27
-11 -267 -90 -280 -91 -5 -1 -32 -10 -60 -21 -27 -11 -57 -21 -65 -23 -8 -2
-61 -19 -118 -38 -56 -19 -102 -33 -102 -30 0 3 -6 1 -12 -4 -11 -8 -40 -19
-78 -28 -3 0 -15 -6 -27 -13 -13 -7 -23 -11 -23 -8 0 3 -35 -8 -77 -23 -43
-15 -81 -29 -85 -30 -4 -1 -13 -3 -20 -6 -7 -2 -56 -18 -108 -35 -323 -106
-498 -185 -634 -286 -120 -91 -196 -169 -262 -270 -22 -32 -42 -61 -45 -64 -7
-6 -80 -166 -84 -184 -1 -6 -7 -23 -13 -39 -18 -43 -43 -157 -48 -217 -3 -30
-8 -66 -12 -80 -3 -14 -8 -1220 -9 -2680 -3 -2844 -4 -2732 45 -2842 63 -136
192 -236 342 -263 19 -4 76 -8 125 -11 50 -2 92 -4 95 -5 3 -1 9 -1 14 0 12 3
207 3 221 0 6 -1 14 -1 19 0 12 3 207 3 221 0 6 -1 14 -1 19 0 12 3 207 3 221
0 6 -1 14 -1 19 0 11 2 287 2 301 0 6 -1 14 0 20 1 22 4 268 1 272 -4 3 -3 14
-1 24 4 12 7 20 7 24 0 4 -6 13 -7 23 -2 19 9 54 8 70 -2 6 -3 13 -3 15 1 4 7
101 9 117 3 3 -2 9 -2 14 -1 12 3 207 3 221 0 6 -1 14 -1 19 0 12 3 207 3 221
0 6 -1 15 0 20 1 21 4 187 1 192 -4 3 -3 14 -1 24 4 12 7 20 7 24 0 4 -6 13
-7 23 -2 15 8 41 8 67 2 6 -1 15 -1 20 0 12 2 188 2 195 -1 3 -1 9 -1 14 0 11
2 287 2 301 0 6 -1 14 -1 19 0 12 3 207 3 221 0 6 -1 14 -1 19 0 12 3 207 3
221 0 6 -1 14 -1 19 0 12 3 207 3 221 0 6 -1 14 0 20 1 12 2 127 2 140 0 6 -2
14 -2 19 -1 12 3 207 3 221 0 6 -1 14 -1 19 0 12 3 207 3 221 0 6 -1 14 -1 19
0 12 3 207 3 221 0 6 -1 14 -1 19 0 11 2 287 2 301 0 6 -1 14 0 20 1 22 4 268
1 272 -4 3 -3 14 -1 24 4 12 7 20 7 24 0 4 -6 13 -7 23 -2 19 9 54 8 70 -2 6
-3 13 -3 15 1 4 7 101 9 117 3 3 -2 9 -2 14 -1 12 3 207 3 221 0 6 -1 14 -1
19 0 12 3 207 3 221 0 6 -1 15 0 20 1 21 4 187 1 192 -4 3 -3 14 -1 24 4 12 7
20 7 24 0 4 -6 13 -7 23 -2 15 8 41 8 67 2 6 -1 15 -1 20 0 12 2 188 2 195 -1
3 -1 9 -1 14 0 11 2 287 2 301 0 6 -1 14 -1 19 0 12 3 207 3 221 0 6 -1 14 -1
19 0 12 3 207 3 221 0 6 -1 14 -1 19 0 12 3 207 3 221 0 6 -1 14 0 20 1 12 2
127 2 140 0 6 -2 14 -2 19 -1 12 3 207 3 221 0 6 -1 14 -1 19 0 12 3 207 3
221 0 6 -1 14 -1 19 0 12 3 207 3 221 0 6 -1 14 -1 19 0 11 2 287 2 301 0 6
-1 14 0 20 1 22 4 268 1 272 -4 3 -3 14 -1 24 4 12 7 20 7 24 0 4 -6 13 -7 23
-2 15 8 41 8 67 2 6 -1 12 -2 15 -1 3 1 61 4 130 6 145 4 191 10 220 25 11 6
20 9 20 6 0 -11 122 63 159 97 89 81 133 183 147 342 6 70 6 5064 0 5202 -6
128 -12 191 -27 266 -6 28 -12 61 -14 72 -5 26 -11 46 -18 65 -3 8 -13 36 -21
61 -15 47 -66 160 -76 169 -3 3 -14 21 -24 40 -26 48 -95 136 -143 185 -57 58
-123 115 -133 115 -5 0 -10 4 -12 8 -7 17 -196 131 -228 137 -3 1 -30 12 -60
26 -68 31 -184 74 -189 70 -2 -1 -7 1 -10 6 -6 8 -337 125 -358 126 -7 0 -13
4 -13 9 0 5 -4 7 -10 3 -5 -3 -17 -1 -27 4 -17 10 -179 67 -213 76 -17 4 -276
93 -300 102 -8 3 -19 7 -25 9 -5 1 -136 46 -290 99 -154 53 -314 108 -355 121
-41 14 -84 29 -95 33 -26 11 -176 61 -195 66 -18 5 -128 43 -155 55 -11 5 -29
11 -40 13 -11 3 -87 28 -170 57 -169 58 -167 57 -177 59 -4 1 -28 10 -52 21
-24 10 -47 16 -50 13 -3 -4 -6 0 -6 7 0 7 -3 11 -6 7 -3 -3 -25 1 -47 10 -23
8 -49 16 -57 18 -8 2 -39 13 -67 24 -29 12 -53 19 -53 16 0 -3 -10 0 -22 7
-13 7 -25 13 -28 13 -3 0 -30 9 -60 20 -30 11 -57 20 -60 20 -3 1 -18 7 -33
13 -16 7 -37 12 -48 12 -10 0 -19 5 -19 11 0 5 -3 8 -7 6 -5 -3 -19 0 -33 6
-14 5 -29 11 -35 13 -5 1 -50 16 -100 34 -49 17 -103 35 -120 40 -16 5 -79 25
-140 45 -60 20 -117 38 -125 40 -8 2 -42 11 -75 20 -33 9 -69 18 -80 20 -11 1
-38 7 -60 13 -37 10 -68 15 -155 28 -60 9 -373 12 -415 4z m175 -793 c0 5 12
8 28 7 15 -1 27 -3 27 -4 0 -1 21 -3 46 -4 42 -3 68 -7 149 -23 40 -8 42 -8
105 -27 33 -10 65 -19 70 -21 6 -1 17 -4 25 -7 8 -3 60 -20 115 -37 55 -18
107 -35 115 -38 8 -3 20 -7 25 -9 6 -1 57 -19 115 -39 58 -20 157 -53 220 -75
63 -21 234 -80 380 -130 146 -50 326 -112 400 -136 74 -25 144 -49 155 -54 20
-9 142 -50 160 -55 18 -4 50 -16 67 -26 10 -5 26 -9 36 -9 10 0 22 -3 26 -7 3
-4 12 -8 19 -9 7 -1 111 -37 232 -79 121 -42 229 -79 240 -82 11 -2 29 -8 40
-13 11 -5 61 -22 110 -39 127 -42 327 -111 345 -118 8 -3 24 -8 35 -10 11 -2
24 -8 29 -13 6 -6 18 -10 28 -10 10 0 26 -4 36 -9 16 -8 104 -39 127 -45 6 -2
17 -6 25 -9 8 -3 56 -19 105 -36 96 -31 353 -122 395 -139 14 -6 39 -16 55
-23 17 -7 32 -13 35 -13 3 -1 28 -16 57 -33 119 -74 165 -160 179 -338 4 -49
8 -1174 8 -2498 1 -2402 1 -2408 -19 -2406 -11 1 -24 1 -30 0 -8 -1 -803 0
-840 1 -5 0 -111 0 -235 -1 -124 0 -232 0 -240 1 -8 0 -44 0 -80 -1 -36 0 -72
0 -80 0 -8 1 -116 1 -240 0 -124 0 -232 0 -240 0 -8 1 -118 1 -245 0 -126 0
-268 0 -314 2 l-84 2 0 2039 c0 1311 -3 2052 -9 2075 -6 20 -10 38 -11 41 0 3
-11 23 -25 45 -51 83 -136 138 -230 151 -72 9 -1602 11 -1602 1 0 -5 -5 -5
-11 -1 -6 4 -323 6 -704 6 -757 0 -756 0 -834 -59 -32 -24 -44 -36 -79 -79
-14 -16 -33 -54 -45 -88 -7 -21 -11 -683 -12 -2078 -1 -1126 -4 -2050 -6
-2053 -4 -3 -634 -6 -749 -3 -8 0 -116 0 -240 -1 -124 0 -232 0 -240 0 -12 1
-798 0 -1225 -1 -60 0 -122 -2 -137 -4 -14 -1 -32 0 -39 5 -10 6 -12 518 -12
2416 0 1324 4 2440 7 2478 15 148 45 226 110 287 23 21 44 38 48 38 4 0 13 6
20 13 12 11 160 76 188 81 3 1 10 4 15 7 11 7 89 33 92 31 2 -1 23 7 48 18 25
11 46 19 48 18 3 -2 136 41 162 52 25 10 784 261 805 265 8 2 16 4 18 5 1 2 5
3 10 5 4 1 14 4 22 8 24 9 94 31 102 32 3 0 10 3 14 8 4 4 15 7 25 7 10 0 33
7 51 14 28 13 453 154 483 161 6 1 17 5 25 8 19 8 130 46 150 51 26 7 994 327
1015 336 21 9 273 92 290 96 6 1 73 23 150 49 77 26 147 48 156 50 9 2 47 12
85 23 119 34 187 48 268 56 21 2 40 6 43 10 3 3 14 1 24 -5 11 -5 19 -6 19 -2z"/>
</g>
</svg>
