<svg width="48" height="48" fill="none"><g clip-path="url(#clip0)"><path d="M46.97 25.75C50.6 12.62 44.3 0 33.3 0c-6.1 0-8.7 3.5-15.4 11.66C11.2 19.82 1.65 8.48 0 25.75c1.39 15.91 18.65 30.31 26.67 17.02 7.3-12.1 16.66-3.9 20.3-17.02z" fill="#E2F9C3"/><path fill-rule="evenodd" clip-rule="evenodd" d="M34 15a1 1 0 11-2 0 1 1 0 012 0zm1 0a2 2 0 11-4 0 2 2 0 014 0zm-20 4.5a1.5 1.5 0 100-3 1.5 1.5 0 000 3zm0 1.5a3 3 0 100-6 3 3 0 000 6zm11.5-3c-2.18 0-3.56.77-4.4 1.7-.3.34-.5.67-.66.98a4.07 4.07 0 00-3.5.49 5.37 5.37 0 00-2.37 3.6c-.71.24-1.37.63-1.93 1.13A4.95 4.95 0 0012 29.7c0 2 .83 3.4 2.08 4.24 1.2.81 2.67 1.06 3.92 1.06h12.5c1.14 0 2.48-.42 3.55-1.26A4.92 4.92 0 0036 29.78a4.89 4.89 0 00-3.75-5.07 6.32 6.32 0 00-.82-3.8A5.58 5.58 0 0026.5 18zm-3.54 4.28l.02-.06c.06-.23.2-.71.61-1.18.43-.48 1.25-1.04 2.91-1.04 1.5 0 2.57.8 3.2 1.9.65 1.14.73 2.45.38 3.27l-.6 1.4H31c.77 0 1.52.26 2.07.77.53.5.93 1.28.93 2.44 0 1.06-.49 1.84-1.18 2.38-.72.57-1.63.84-2.32.84H18a5.08 5.08 0 01-2.8-.71c-.67-.46-1.2-1.22-1.2-2.6 0-1.1.44-1.82.98-2.3a3.53 3.53 0 011.68-.84l.84-.14v-.85c0-.69.3-1.89 1.55-2.73 1-.66 2.1-.19 2.42.02l1.12.7.37-1.27zm-4.24 5.36c0-1.73.93-2.8 2.43-2.8 1.23 0 2.17.84 2.25 2h-1.06a1.17 1.17 0 00-1.19-1.01c-.81 0-1.32.69-1.32 1.81s.5 1.82 1.32 1.82c.62 0 1.1-.38 1.2-.96h1.05c-.09 1.15-1 1.94-2.25 1.94-1.5 0-2.43-1.07-2.43-2.8zm5.28 0c0-1.73.94-2.8 2.4-2.8 1.48 0 2.4 1.08 2.4 2.8 0 1.73-.92 2.8-2.4 2.8s-2.4-1.07-2.4-2.8zm3.73 0c0-1.11-.51-1.82-1.33-1.82-.8 0-1.33.7-1.33 1.82 0 1.11.51 1.82 1.33 1.82.82 0 1.34-.7 1.34-1.82zm1.55 1.66c0-.66.48-1.1 1.2-1.1.7 0 1.15.38 1.15.97 0 .4-.2.73-.77 1.17l-.36.33v.06h1.18v.73h-2.34v-.65l.9-.81c.45-.4.56-.55.56-.75 0-.2-.15-.33-.36-.33-.22 0-.37.15-.37.37v.02h-.79v-.01z" fill="#3A8241"/></g><defs><clipPath id="clip0"><path fill="#fff" d="M0 0h48v48H0z"/></clipPath></defs></svg>