<svg width="40" height="40" fill="none"><path d="M18.12 1.73c6.76 3.15 8.32 7.09 8.66 9.15.37 2.36-.46 4.14-1.29 4.94a3.77 3.77 0 01-2.63 1.24c-.26 0-.5-.04-.73-.1L17.16 2.49a.73.73 0 01.27-.67l.69-.08zm0 0a.67.67 0 00-.7.08l.7-.08zm0 0l-.21.45c6.62 3.1 8.07 6.89 8.37 8.78.36 2.2-.43 3.82-1.14 4.5h0c-.77.76-1.53 1.1-2.28 1.1-.21 0-.43-.03-.64-.1.67-4.18.07-7.19-1.11-10.27a1.18 1.18 0 00-1.55-.69h0a1.23 1.23 0 00-.66 1.58 16.1 16.1 0 01.86 9.66 3.98 3.98 0 01-4.12-.75 4.76 4.76 0 01-1.4-2.77c-.53-3.1.82-5.24 2-7.1l.02-.03c.39-.6.77-1.2 1.04-1.79.27-.6.44-1.23.36-1.89a.23.23 0 01.08-.2l-.31-.4.69-.08zm0 0l-.21.45a.17.17 0 00-.1-.01.17.17 0 00-.07.03l-.31-.39.69-.08zm3.44 15.57a4.02 4.02 0 01-.13-.05l-.1-.05-.29.14.52-.04zm0 0l-.4-.58-.04.23-.06.1.03.03-.05.26.52-.04zm0 0a35 35 0 01-1.01 3.88l1-3.88zm0 0l-1.01 3.88 1-3.88zm-.52.04a34.78 34.78 0 01-.97 3.68l.97-3.68zm0 0c-.13.07-.27.12-.41.17l.41-.17zm-.97 3.68l.56-3.5-.56 3.5zm0 0c-.03.1-.11.15-.18.15l-.04-.01h-.01c-.09-.04-.16-.15-.12-.29.35-1.1.66-2.22.9-3.35l-.55 3.5zm0 0l.55-3.5-.55 3.5zm.56-3.5h0zm0 0h0zm-.08 3.66a.7.7 0 01-.66.49.62.62 0 01-.21-.04.72.72 0 01-.44-.91l1.3.46zM3.26 25l.4-.3-.01-.01-.01-.02-.14-.15a5.3 5.3 0 01-.9-1.24 5.5 5.5 0 01-.43-2.45v-10c0-.71.23-1.2.56-1.5.33-.32.8-.5 1.33-.5s1 .18 1.33.5a2 2 0 01.56 1.5v7.14l-.1.05a2 2 0 00-.46.43c-.31.39-.53.85-.63 1.34-.23 1.11.02 2.53 1.31 3.9l3.5 3.9h0a1.11 1.11 0 001.66 0 1.27 1.27 0 000-1.69l-3.82-4.24h0a1.58 1.58 0 01.01-2.12h0c.08-.08.32-.3.66-.36.29-.05.77 0 1.4.66l3.82 4.25h0l.01.01c1.64 1.72 3 3.85 3 6.73v6.89l-.02.07a.66.66 0 01-.27.04H9.64a.9.9 0 01-.13 0 .37.37 0 01-.1-.03.08.08 0 01-.04-.03c0-.01-.03-.05-.03-.15v-5.28l-.1-.14c-.4-.56-1.8-2.43-3.1-4.17l-1.72-2.31-.55-.74-.15-.2-.04-.06-.01-.01h0v0l-.4.29zm30.8-7.03v-7.14c0-.71.23-1.2.55-1.5.33-.32.8-.5 1.33-.5.54 0 1 .18 1.33.5a2 2 0 01.56 1.5v10a5.5 5.5 0 01-.42 2.45c-.23.47-.53.81-.91 1.24l-.14.15v.02l-.02.01.4.3-.4-.3h0l-.02.02-.04.05-.15.2-.55.75-1.72 2.31-3.1 4.17-.1.14v5.28c0 .1-.02.14-.03.15l-.03.03a.37.37 0 01-.11.03.9.9 0 01-.13 0H24a.66.66 0 01-.28-.04 1.74 1.74 0 01-.02-.29v-6.67c0-2.88 1.36-5.01 3-6.73h.01l3.82-4.26c.63-.67 1.11-.71 1.4-.66.34.06.59.28.66.36.55.6.54 1.54.01 2.12h0l-3.82 4.24h0a1.26 1.26 0 000 1.69 1.11 1.11 0 001.66 0h0l3.5-3.9c1.3-1.37 1.54-2.79 1.3-3.9-.1-.49-.3-.95-.62-1.34a2 2 0 00-.56-.48z" fill="#2C70C1" stroke="#2C70C1"/></svg>