<svg width="43" height="41" fill="none" xmlns="http://www.w3.org/2000/svg"><path d="M25.03.48l-1.12.25s-8.86 1.9-12.73 8.6c-4.4 7.65.54 14.95.54 14.95l1.15 1.69 1.45-1.46s1.27-1.34 3.66-2.15c2.4-.82 5.74-1.09 10.1 1.43 6.49 3.75 9.02 9.82 9.76 11.78-2.02.91-9.3 3.9-16.44-.22a19.26 19.26 0 01-6-5.15 18 18 0 017.19.48 17.76 17.76 0 016.85 3.47l2.25-2.43s-.78-.75-2.2-1.64a22.75 22.75 0 00-6.06-2.65C15.4 26.2 4.39 25.49 0 38l4.4.03c1.58-4.48 3.9-6.36 6.93-6.95.98 1.5 3.97 4.59 8.4 7.15 10.04 5.8 21.19-.23 21.19-.23l1.2-.63-.38-1.3s-3.04-10.01-12-15.18a17.89 17.89 0 00-4.56-1.86c.94-1.14 1.9-2.57 2.56-4.66 2.24-6.97-2.03-12.97-2.03-12.97l-.68-.93zm-1.56 3.97a10.7 10.7 0 011.07 8.87A10.89 10.89 0 0122 17.7c-.83.83-1.33 1.04-1.33 1.04-1.34.07-2.73.1-3.78.46-.26.09-.5.2-.73.3.41-.9.84-1.8 1.33-2.6a44.54 44.54 0 012.41-3.66l-2.63-2.07s-1.31 1.71-2.67 4a34.4 34.4 0 00-1.71 3.29c-.5-1.89-.55-4.42 1.2-7.44 2.42-4.2 7.65-6.03 9.37-6.57z" fill="#232B30"/></svg>