<svg width="48" height="48" fill="none"><g clip-path="url(#clip0)"><path d="M48 27.57C48 16.32 46.4 0 26.45 0s-9.2 19.31-21.32 26.77C-8.2 34.95 6.9 48 22.2 48 33.97 48 48 42.17 48 27.57z" fill="#E2F9C3"/><path d="M20.14 15a3 3 0 00-2.25.96 3.05 3.05 0 00-.75 2.04c0 .73.24 1.46.75 2.04.52.58 1.32.96 2.25.96a3 3 0 002.25-.96c.52-.58.75-1.31.75-2.04s-.23-1.46-.75-2.04a2.99 2.99 0 00-2.25-.96zm7.72 0a3 3 0 00-2.25.96 3.06 3.06 0 00-.75 2.04c0 .73.23 1.46.75 2.04.51.58 1.32.96 2.25.96a3 3 0 002.25-.96c.51-.58.75-1.31.75-2.04s-.24-1.46-.75-2.04a3 3 0 00-2.25-.96zm-7.72 1.71c.5 0 .77.16.97.39.2.22.32.55.32.9 0 .34-.12.68-.32.9-.2.23-.47.39-.97.39s-.76-.16-.96-.39c-.2-.22-.32-.55-.32-.9 0-.34.12-.68.32-.9.2-.23.46-.39.96-.39zm7.72 0c.5 0 .76.16.96.39.2.22.32.55.32.9 0 .34-.12.68-.32.9-.2.23-.46.39-.96.39-.5 0-.77-.16-.97-.39-.2-.22-.32-.55-.32-.9 0-.34.12-.68.32-.9.2-.23.47-.39.97-.39zM16.29 21c-.79 0-1.49.33-1.93.82-.42.49-.65 1.1-.65 1.75 0 .51.24 1 .54 1.45a4.25 4.25 0 00-2.25 3.7h1.71a2.56 2.56 0 014.32-1.9c.47.45.76 1.05.8 1.7A6.8 6.8 0 0017.15 33h1.72a5.13 5.13 0 1110.28 0h1.72a6.8 6.8 0 00-1.7-4.48 2.55 2.55 0 013.54-2.18 2.56 2.56 0 011.59 2.37H36c0-1.57-.87-2.94-2.15-3.68a2.65 2.65 0 00-.2-3.2A2.58 2.58 0 0031.7 21c-.78 0-1.48.33-1.92.82a2.65 2.65 0 00-.21 3.2 4.3 4.3 0 00-1.88 2.24c-.34-.23-.7-.42-1.08-.59.53-.63.81-1.42.8-2.24a3.5 3.5 0 00-.85-2.34A3.4 3.4 0 0024 21a3.4 3.4 0 00-2.57 1.1 3.5 3.5 0 00-.86 2.33c0 .8.27 1.6.8 2.25a6.9 6.9 0 00-1.08.58 4.4 4.4 0 00-1.97-2.24c.3-.45.54-.94.54-1.45 0-.62-.2-1.25-.65-1.75A2.58 2.58 0 0016.3 21zm0 1.71c.35 0 .51.1.64.25s.21.37.21.61-.08.47-.21.61c-.13.15-.29.25-.64.25-.36 0-.52-.1-.65-.25a.94.94 0 01-.21-.6c0-.25.08-.47.21-.62.13-.14.29-.25.65-.25zm7.71 0c.64 0 1.02.21 1.29.52.27.3.42.75.42 1.2 0 .45-.15.9-.42 1.2-.27.3-.65.51-1.29.51s-1.02-.2-1.29-.51c-.27-.3-.42-.75-.42-1.2 0-.45.15-.9.42-1.2.27-.3.65-.52 1.29-.52zm7.71 0c.36 0 .52.1.65.25s.21.37.21.61-.08.47-.21.61c-.13.15-.29.25-.65.25-.35 0-.51-.1-.64-.25a.94.94 0 01-.21-.6c0-.25.08-.47.21-.62.13-.14.29-.25.64-.25z" fill="#3A8241"/></g><defs><clipPath id="clip0"><path fill="#fff" d="M0 0h48v48H0z"/></clipPath></defs></svg>