<svg width="48" height="48" fill="none"><g clip-path="url(#clip0)"><path d="M1.03 32.95C-2.6 20.14 3.7 0 14.71 0c6.1 0 12.7 2.45 19.4 10.41C40.8 18.38 48 14.65 48 30.02c0 16.85-19.5 24.18-26.67 11.75-6.93-12.02-16.66 4-20.3-8.82z" fill="#E2F9C3"/><mask id="a" maskUnits="userSpaceOnUse" x="12" y="12" width="24" height="24"><path d="M24 12c-1.17 0-2.22.78-2.92 2.01l-2.65 4.65 1.62.96L22.67 15c.47-.83.95-1.08 1.33-1.08.38 0 .85.25 1.33 1.08l2.88 5.07-1.47.93 4.62 2.88v-5.76l-1.56.96-2.89-5.07C26.21 12.78 25.17 12 24 12zm-5.6 8.61l-4.62 2.88 1.42.87-2.57 4.53c-.7 1.23-.86 2.58-.27 3.63.6 1.05 1.8 1.56 3.18 1.56h5.69v-1.92h-5.69c-.95 0-1.4-.31-1.59-.63-.17-.32-.2-.85.26-1.68l2.54-4.5 1.65 1.02v-5.76zm14.72 4.41l-1.56.99 2.23 3.84c.47.84.43 1.36.26 1.68-.18.31-.64.63-1.6.63H27.7v-1.92l-4.62 2.88L27.7 36v-1.92h4.76c1.38 0 2.58-.51 3.17-1.56.6-1.05.44-2.4-.26-3.63v-.03l-2.25-3.84z" fill="#fff"/></mask><g mask="url(#a)"><path d="M24 12c-1.17 0-2.22.78-2.92 2.01l-2.65 4.65 1.62.96L22.67 15c.47-.83.95-1.08 1.33-1.08.38 0 .85.25 1.33 1.08l2.88 5.07-1.47.93 4.62 2.88v-5.76l-1.56.96-2.89-5.07C26.21 12.78 25.17 12 24 12zm-5.6 8.61l-4.62 2.88 1.42.87-2.57 4.53c-.7 1.23-.86 2.58-.27 3.63.6 1.05 1.8 1.56 3.18 1.56h5.69v-1.92h-5.69c-.95 0-1.4-.31-1.59-.63-.17-.32-.2-.85.26-1.68l2.54-4.5 1.65 1.02v-5.76zm14.72 4.41l-1.56.99 2.23 3.84c.47.84.43 1.36.26 1.68-.18.31-.64.63-1.6.63H27.7v-1.92l-4.62 2.88L27.7 36v-1.92h4.76c1.38 0 2.58-.51 3.17-1.56.6-1.05.44-2.4-.26-3.63v-.03l-2.25-3.84z" fill="#3A8241" stroke="#3A8241" stroke-width="3.85"/></g></g><defs><clipPath id="clip0"><path fill="#fff" d="M0 0h48v48H0z"/></clipPath></defs></svg>