<svg width="81" height="81" fill="none" xmlns="http://www.w3.org/2000/svg"><g clip-path="url(#clip0)" fill="#fff"><path d="M68.8 16.5H57.2v-6.1a8 8 0 00-8-8h-17a8 8 0 00-8 8v6.1H12.6a12 12 0 00-12 12v37.3a12 12 0 0012 12h56.2a12 12 0 0012-12V28.4a12 12 0 00-12-11.9zm-40-6.1c0-1.9 1.6-3.3 3.4-3.3h17c1.9 0 3.3 1.4 3.3 3.3v6.1H29v-6.1zM5.5 65.8V28.4c0-3.1 2-5.8 4.9-6.8v51a7.2 7.2 0 01-5-6.8zM15 73V21.2h51.5V73H15zm61-7.2c0 3.2-2 5.8-4.8 6.8v-51c2.8 1 4.9 3.7 4.9 6.8v37.4z"/><path d="M54.8 40h-7v-7c0-1.3-1-2.4-2.4-2.4H36c-1.3 0-2.3 1-2.3 2.4v7h-7.1c-1.3 0-2.4 1.1-2.4 2.4v9.4c0 1.3 1 2.4 2.4 2.4h7v7c0 1.3 1.1 2.4 2.4 2.4h9.4c1.3 0 2.4-1 2.4-2.4v-7h7c1.3 0 2.4-1 2.4-2.4v-9.4c0-1.3-1-2.4-2.4-2.4zm-2.3 9.5h-7c-1.4 0-2.4 1-2.4 2.3v7h-4.7v-7c0-1.3-1.1-2.3-2.4-2.3h-7v-4.8h7c1.3 0 2.4-1 2.4-2.3v-7H43v7c0 1.3 1 2.3 2.3 2.3h7.1v4.8z"/></g><defs><clipPath id="clip0"><path fill="#fff" transform="translate(.7)" d="M0 0h80v80H0z"/></clipPath></defs></svg>