<?xml version="1.0" standalone="no"?>
<!DOCTYPE svg PUBLIC "-//W3C//DTD SVG 20010904//EN"
 "http://www.w3.org/TR/2001/REC-SVG-20010904/DTD/svg10.dtd">
<svg version="1.0" xmlns="http://www.w3.org/2000/svg"
 width="912.000000pt" height="912.000000pt" viewBox="0 0 912.000000 912.000000"
 preserveAspectRatio="xMidYMid meet">
<metadata>
Created by potrace 1.11, written by Peter Selinger 2001-2013
</metadata>
<g transform="translate(0.000000,912.000000) scale(0.100000,-0.100000)"
fill="#000000" stroke="none">
<path d="M2508 9018 c-13 -13 -25 -32 -26 -43 -2 -11 -35 -78 -72 -150 -37
-71 -87 -168 -111 -215 -24 -47 -46 -87 -49 -90 -3 -3 -27 -50 -55 -105 -27
-55 -57 -112 -68 -127 -10 -16 -16 -28 -13 -28 3 0 -7 -21 -22 -47 -16 -27
-51 -93 -80 -148 -28 -55 -73 -143 -101 -195 -27 -52 -69 -133 -93 -180 -52
-101 -191 -368 -258 -495 -48 -92 -114 -217 -247 -475 -42 -80 -97 -185 -123
-235 -26 -49 -82 -157 -125 -240 -43 -82 -105 -202 -138 -265 -33 -63 -81
-155 -107 -205 -26 -49 -82 -157 -125 -240 -43 -82 -92 -177 -110 -210 -18
-33 -61 -116 -95 -185 -35 -69 -67 -126 -72 -128 -4 -2 -8 -11 -8 -21 0 -9 -4
-21 -9 -26 -5 -6 -46 -82 -91 -170 -46 -88 -105 -203 -133 -255 -107 -203
-111 -212 -99 -229 10 -14 43 -70 92 -156 10 -16 59 -101 109 -189 50 -87 91
-162 91 -166 0 -5 3 -10 8 -12 6 -2 98 -159 170 -288 8 -14 24 -42 35 -62 89
-152 127 -219 127 -228 0 -5 4 -10 9 -10 5 0 13 -10 17 -22 4 -13 10 -25 13
-28 6 -4 54 -87 128 -220 14 -25 35 -61 47 -80 45 -75 57 -96 62 -112 4 -10
10 -18 15 -18 5 0 9 -5 9 -11 0 -6 31 -63 69 -127 38 -64 78 -133 88 -152 70
-123 86 -151 94 -156 5 -3 7 -9 4 -14 -3 -4 2 -13 10 -20 8 -7 15 -19 15 -26
0 -8 5 -14 10 -14 6 0 10 -5 10 -11 0 -6 23 -49 52 -97 28 -48 64 -112 81
-142 16 -30 36 -62 43 -71 8 -8 14 -18 14 -21 0 -4 20 -41 45 -82 25 -42 45
-78 45 -80 0 -3 62 -111 90 -156 5 -8 29 -49 52 -90 24 -41 47 -83 53 -92 9
-15 146 -253 204 -352 13 -23 82 -142 153 -266 71 -124 143 -247 159 -273 16
-27 29 -52 29 -57 0 -5 3 -10 8 -12 7 -3 43 -66 66 -115 6 -13 14 -23 19 -23
4 0 7 -4 7 -10 0 -5 17 -38 38 -72 21 -35 41 -71 45 -80 6 -17 132 -18 2447
-18 1606 0 2448 3 2460 10 10 5 51 63 92 127 40 65 76 119 80 121 5 2 8 10 8
18 0 8 5 14 12 14 6 0 8 3 5 7 -4 3 -1 13 7 22 21 25 226 352 226 361 0 5 3
10 8 12 8 3 70 98 91 140 8 15 22 37 33 47 10 11 18 23 18 25 0 6 37 65 117
188 23 37 43 70 43 73 0 3 5 11 10 18 13 14 55 79 128 197 57 90 135 215 152
240 5 8 25 39 45 69 19 29 35 57 35 61 0 4 6 13 14 19 8 7 21 26 30 44 18 34
188 304 206 324 5 7 10 14 10 17 0 4 145 235 158 251 27 34 92 155 92 173 0
34 -40 73 -78 74 -41 1 -60 -17 -119 -111 -58 -94 -90 -143 -101 -156 -5 -6
-11 -15 -13 -21 -2 -6 -42 -70 -89 -143 -47 -73 -89 -140 -95 -149 -5 -9 -22
-36 -37 -59 -16 -23 -28 -46 -28 -52 0 -6 -3 -11 -7 -11 -5 0 -24 -27 -42 -60
-19 -33 -39 -60 -45 -60 -5 0 -6 -3 -3 -7 4 -3 1 -13 -6 -22 -8 -9 -33 -47
-57 -86 -24 -38 -48 -73 -54 -77 -6 -4 -8 -8 -4 -8 6 0 -46 -85 -70 -115 -4
-5 -11 -17 -15 -25 -4 -8 -47 -78 -97 -155 -50 -77 -94 -147 -97 -155 -4 -8
-9 -17 -13 -20 -5 -4 -151 -234 -225 -354 -62 -102 -171 -273 -180 -283 -5 -7
-59 -90 -119 -187 l-110 -174 -55 -1 c-31 -1 -65 -1 -76 -1 -11 -1 -70 1 -132
2 -66 2 -109 -1 -105 -6 3 -6 -3 -6 -14 -2 -10 4 -62 7 -114 7 -133 -2 -123
-2 -247 1 -66 2 -109 -1 -105 -6 3 -6 -3 -6 -14 -2 -10 4 -62 7 -114 7 -133
-2 -123 -2 -247 1 -66 2 -109 -1 -105 -6 3 -6 -3 -6 -14 -2 -10 4 -62 7 -114
7 -133 -2 -123 -2 -247 1 -66 2 -109 -1 -105 -6 3 -6 -3 -6 -14 -2 -10 4 -62
7 -114 7 -52 -1 -106 -1 -120 -1 -14 0 -54 0 -90 0 -81 -1 -65 -1 -197 2 -66
2 -109 -1 -105 -6 3 -6 -3 -6 -14 -2 -10 4 -62 7 -114 7 -133 -2 -123 -2 -247
1 -66 2 -109 -1 -105 -6 3 -6 -3 -6 -14 -2 -10 4 -62 7 -114 7 -133 -2 -123
-2 -247 1 -66 2 -109 -1 -105 -6 3 -6 -3 -6 -14 -2 -10 4 -62 7 -114 7 -133
-2 -123 -2 -247 1 -66 2 -109 -1 -105 -6 3 -6 -3 -6 -14 -2 -10 4 -62 7 -114
7 -133 -2 -123 -2 -247 1 -66 2 -109 -1 -105 -6 3 -6 -3 -6 -14 -2 -10 4 -62
7 -114 7 -133 -2 -130 -2 -180 1 l-44 3 -78 132 c-42 73 -88 152 -101 175 -14
24 -57 99 -97 168 -40 69 -81 141 -92 160 -11 19 -47 81 -79 137 -33 56 -59
107 -59 112 0 6 -3 11 -7 11 -5 0 -21 24 -37 53 -39 68 -325 566 -341 592 -7
11 -12 22 -11 25 0 3 -14 26 -32 52 -18 26 -32 49 -32 53 0 3 -11 22 -24 43
-13 20 -59 100 -104 177 -44 77 -89 154 -99 172 -151 262 -193 337 -193 344 0
5 -4 9 -10 9 -5 0 -10 5 -10 10 0 6 -11 27 -23 48 -13 20 -35 58 -49 83 -45
80 -53 94 -58 99 -3 3 -13 21 -24 40 -10 19 -28 51 -39 70 -11 19 -31 55 -45
79 -14 25 -38 68 -55 95 -16 28 -38 65 -47 81 -45 79 -161 282 -170 295 -5 8
-27 47 -49 85 -22 39 -57 97 -76 130 -20 33 -41 72 -48 87 -6 16 -15 28 -19
28 -4 0 -8 4 -8 10 0 7 -58 111 -101 180 -5 8 -19 34 -31 58 -12 23 -26 42
-30 42 -4 0 -8 6 -8 14 0 7 -11 30 -25 50 -13 20 -21 36 -17 36 4 0 2 4 -4 8
-6 4 -16 16 -21 27 -9 16 0 42 55 150 37 71 69 132 72 135 3 3 29 52 58 110
72 140 265 513 392 755 35 66 86 165 115 220 28 55 82 159 120 230 37 72 97
186 133 255 35 69 86 166 112 215 26 50 69 133 95 185 27 52 52 97 57 98 4 2
8 10 8 18 0 13 18 52 30 64 3 3 26 46 51 95 47 94 159 309 287 555 116 222
174 334 242 465 34 66 84 161 110 210 26 50 78 149 115 220 37 72 97 186 132
255 36 69 88 168 115 220 55 106 70 122 102 111 11 -4 35 -4 51 -1 17 3 40 3
52 -1 13 -5 25 -4 28 2 4 5 11 7 16 3 10 -6 242 -7 304 -1 17 1 40 -1 52 -5
12 -4 25 -3 28 3 4 5 11 6 17 3 5 -4 34 -6 64 -5 30 1 60 2 67 2 6 0 52 -1
100 -2 48 -1 90 1 94 4 3 3 16 2 29 -3 14 -6 26 -6 29 0 3 5 16 6 28 1 12 -4
36 -4 52 -1 17 3 40 3 52 -1 13 -5 25 -4 28 2 4 5 11 7 16 3 10 -6 242 -7 304
-1 17 1 40 -1 52 -5 12 -4 25 -3 28 3 4 5 11 6 17 3 5 -4 34 -6 64 -5 30 1 60
2 67 2 6 0 52 -1 100 -2 48 -1 90 1 94 4 3 3 16 2 29 -3 14 -6 26 -6 29 0 3 5
16 6 28 1 12 -4 36 -4 52 -1 17 3 40 3 52 -1 13 -5 25 -4 28 2 4 5 11 7 16 3
10 -6 242 -7 304 -1 17 1 40 -1 52 -5 12 -4 25 -3 28 3 4 5 11 6 17 3 5 -4 34
-6 64 -5 30 1 60 2 67 2 6 0 52 -1 100 -2 48 -1 90 1 94 4 3 3 16 2 29 -3 14
-6 26 -6 29 0 3 5 16 6 28 1 12 -4 36 -4 52 -1 17 3 40 3 52 -1 13 -5 25 -4
28 2 4 5 11 7 16 3 10 -6 242 -7 304 -1 17 1 40 -1 52 -5 12 -4 25 -3 28 3 4
5 11 6 17 3 5 -4 34 -6 64 -5 30 1 60 2 67 2 6 0 52 -1 100 -2 48 -1 90 1 94
4 3 3 16 2 29 -3 14 -6 26 -6 29 0 3 5 16 6 28 1 12 -4 36 -4 52 -1 17 3 40 3
52 -1 13 -5 25 -4 28 2 4 5 11 7 16 3 10 -6 242 -7 304 -1 17 1 40 -1 52 -5
12 -4 25 -3 28 3 4 5 11 6 17 3 5 -4 36 -6 67 -5 92 3 134 0 148 -7 7 -4 46
-61 88 -127 41 -66 79 -127 85 -135 12 -17 166 -262 261 -415 85 -138 113
-179 122 -183 4 -2 7 -8 7 -14 0 -5 12 -28 28 -51 15 -23 32 -51 39 -62 6 -11
81 -129 165 -263 84 -133 183 -291 220 -350 37 -59 72 -114 78 -122 46 -69 90
-142 90 -150 0 -6 4 -10 8 -10 5 0 15 -12 23 -27 7 -16 30 -53 50 -83 19 -30
39 -62 42 -70 4 -8 41 -67 82 -130 41 -63 88 -138 104 -166 50 -84 75 -106
118 -102 29 2 42 10 60 37 21 31 22 35 7 69 -8 20 -18 39 -22 42 -4 3 -14 17
-22 32 -17 31 -290 467 -303 483 -21 27 -187 297 -187 305 0 4 -4 10 -8 12 -5
2 -26 32 -48 68 -47 79 -81 132 -92 145 -4 6 -11 17 -15 25 -4 8 -52 85 -106
170 -92 143 -134 210 -186 295 -11 19 -81 129 -155 245 -74 116 -142 223 -151
238 -9 15 -60 96 -113 180 -53 84 -96 157 -96 163 0 5 -3 9 -8 9 -4 0 -16 16
-27 36 -10 20 -30 44 -43 55 -24 19 -77 19 -2428 19 l-2403 0 -23 -22z"/>
<path d="M6219 6090 c-1 -3 -3 -98 -3 -212 l-2 -208 998 0 998 0 -2 213 -3
212 -992 0 c-546 1 -994 -2 -994 -5z"/>
<path d="M6216 4791 c-1 -3 -2 -98 -2 -211 l1 -205 391 -5 391 -5 0 -698 c0
-383 2 -700 5 -702 6 -7 405 -8 415 -2 5 3 8 319 8 704 l0 698 390 5 390 5 2
211 2 210 -995 0 c-547 0 -996 -2 -998 -5z"/>
</g>
</svg>
