<svg viewBox="0 0 32 32"><path d="M20.84 16.14a4.76 4.76 0 01-4.83 4.68 4.76 4.76 0 01-4.83-4.68c0-.47.07-.91.2-1.34l-1.2-.26v6.8c0 .34.14.49.48.49h10.68c.34 0 .49-.15.49-.49v-6.8l-1.19.27c.13.42.2.87.2 1.33z"/><ellipse cx="16.01" cy="15.97" rx="3.12" ry="3.02"/><path d="M16 0a16 16 0 100 32 16 16 0 000-32zm7.77 21.83c0 1.1-.84 1.94-1.94 1.94H10.17c-1.1 0-1.94-.84-1.94-1.94V10.17c0-1.1.84-1.94 1.94-1.94h11.66c1.1 0 1.94.84 1.94 1.94v11.66z"/><path d="M21.34 10.17H19.4a.49.49 0 00-.49.49v1.94c0 .27.22.49.49.49h1.94c.27 0 .49-.22.49-.5v-1.93a.49.49 0 00-.49-.49z"/></svg>