<svg width="30" height="44" fill="none"><path d="M14.67 2.07L1.37 22l13.3 19.93L27.95 22 14.67 2.07zm0-2.07l14.66 22-14.66 22L0 22 14.67 0z" fill="#FFC22D"/><path d="M10.68 16.85l-1.31 1.76-.55 5.58v-6.14l1.86-1.2zM14.12 11.48l-1.7 1.8-.58 2.7v-2.62l1.31-1.11v.06l.97-.83z" fill="#FFC22D"/><path d="M6.4 24.19h2.42l-2.21.4-.94 1.81.73-2.21zM12.8 15.36v-1.62l1.87-1.43v1.8l-1.86 1.25zM13.56 26.25h-.58v-1.82l.58-.05v1.87zM13.56 22.3l-.58.14v-1.82l.58-.2v1.89zM13.56 18.61l-.58.27v-1.84l.58-.32v1.9zM11.88 26.25h-.47v-1.64l.47-.06v1.7zM11.88 22.7l-.47.1v-1.64l.47-.16v1.7zM11.88 19.37l-.47.21v-1.64l.47-.27v1.7zM10.43 26.25h-.39v-1.5l.4-.04v1.54zM10.43 23.04l-.39.09v-1.5l.4-.13v1.54zM10.43 20.02l-.39.18v-1.5l.4-.22v1.54z" fill="#FFC22D"/><path d="M14.12 11.48l.55-.52-1.52 1.29V9.97l1.52-2.2 1.51 2.2v2.28l1.31 1.11V16l3.03 2.04v6.13h2.4l.74 2.23h-8.99V14.11l1.85 1.25v-1.62l-1.85-1.43v-1.28l-.55.45zm.07-1.14l-.46.43v.88l.46-.4v-.91zm2.16 6.7l-.59-.32v1.9l.59.26v-1.84zm0 3.58l-.59-.2v1.89l.59.13v-1.82zm0 3.81l-.59-.05v1.87h.59v-1.82zm2.55 1.82h.4v-1.5l-.4-.04v1.54zm0-3.2l.4.08v-1.5l-.4-.13v1.54zm0-3.03l.4.18v-1.5l-.4-.22v1.54zm-1.45 6.23h.48v-1.64l-.48-.06v1.7zm0-3.55l.48.12v-1.64l-.48-.16v1.68zm0-3.33l.48.22v-1.64l-.48-.26v1.68zm-2.38-8.1l.46.39v-.88l-.46-.43v.91z" fill="#FFC22D"/><path d="M14.12 11.48l-.97.83v-.06l1.52-1.28-.55.51zM25.47 26.33l-21.56.07 10.76 16.13 10.8-16.2z" fill="#FFC22D"/></svg>